STARTFONT 2.1
FONT -simutrans-prop-medium-r-normal--12-120-77-75-P-80-ISO10646-1
SIZE 12 77 75
FONTBOUNDINGBOX 12 11 0 -2
POINT_SIZE 120
PIXEL_SIZE 12
RESOLUTION_X 77
RESOLUTION_Y 75
FONT_ASCENT 9
FONT_DESCENT 3
AVERAGE_WIDTH 80
SPACING "P"
_XMBDFED_INFO "Edited with xmbdfed 4.7."
FOUNDRY "simutrans"
FAMILY_NAME "prop"
WEIGHT_NAME "medium"
SLANT "r"
SETWIDTH_NAME "normal"
ADD_STYLE_NAME ""
CHARSET_REGISTRY "ISO10646"
CHARSET_ENCODING "1"
ENDPROPERTIES
CHARS 11507
STARTCHAR char10
ENCODING 10
SWIDTH 389 0
DWIDTH 5
BBX 5 1 0 0
BITMAP
00
ENDCHAR
STARTCHAR char29
ENCODING 29
SWIDTH 623 0
DWIDTH 8
BBX 8 8 0 0
BITMAP
ba
44
aa
92
92
aa
44
ba
ENDCHAR
STARTCHAR char30
ENCODING 30
SWIDTH 623 0
DWIDTH 8
BBX 8 8 0 0
BITMAP
38
44
aa
82
aa
92
44
38
ENDCHAR
STARTCHAR char31
ENCODING 31
SWIDTH 623 0
DWIDTH 8
BBX 8 8 0 0
BITMAP
38
44
aa
82
92
aa
44
38
ENDCHAR
STARTCHAR char33
ENCODING 33
SWIDTH 312 0
DWIDTH 4
BBX 4 9 0 -1
BITMAP
60
60
60
60
60
60
00
60
60
ENDCHAR
STARTCHAR char34
ENCODING 34
SWIDTH 545 0
DWIDTH 7
BBX 7 3 0 5
BITMAP
6c
6c
d8
ENDCHAR
STARTCHAR char35
ENCODING 35
SWIDTH 623 0
DWIDTH 8
BBX 8 8 0 0
BITMAP
6c
6c
fe
6c
6c
fe
6c
6c
ENDCHAR
STARTCHAR char36
ENCODING 36
SWIDTH 545 0
DWIDTH 7
BBX 7 9 0 -1
BITMAP
10
78
d4
d0
d0
d0
d4
78
10
ENDCHAR
STARTCHAR char37
ENCODING 37
SWIDTH 623 0
DWIDTH 8
BBX 8 8 0 0
BITMAP
72
b6
ac
d8
36
6a
da
9c
ENDCHAR
STARTCHAR char38
ENCODING 38
SWIDTH 545 0
DWIDTH 7
BBX 7 8 0 0
BITMAP
70
d0
d0
e0
74
fc
d8
ec
ENDCHAR
STARTCHAR char39
ENCODING 39
SWIDTH 312 0
DWIDTH 4
BBX 4 3 0 5
BITMAP
60
60
c0
ENDCHAR
STARTCHAR char40
ENCODING 40
SWIDTH 389 0
DWIDTH 5
BBX 5 8 0 0
BITMAP
30
60
c0
c0
c0
c0
60
30
ENDCHAR
STARTCHAR char41
ENCODING 41
SWIDTH 389 0
DWIDTH 5
BBX 5 8 0 0
BITMAP
c0
60
30
30
30
30
60
c0
ENDCHAR
STARTCHAR char42
ENCODING 42
SWIDTH 623 0
DWIDTH 8
BBX 8 5 0 1
BITMAP
24
18
7e
18
24
ENDCHAR
STARTCHAR char43
ENCODING 43
SWIDTH 545 0
DWIDTH 7
BBX 7 5 0 1
BITMAP
30
30
fc
30
30
ENDCHAR
STARTCHAR char44
ENCODING 44
SWIDTH 312 0
DWIDTH 4
BBX 4 3 0 -1
BITMAP
60
60
c0
ENDCHAR
STARTCHAR char45
ENCODING 45
SWIDTH 467 0
DWIDTH 6
BBX 6 1 0 3
BITMAP
f8
ENDCHAR
STARTCHAR char46
ENCODING 46
SWIDTH 234 0
DWIDTH 3
BBX 3 2 0 0
BITMAP
c0
c0
ENDCHAR
STARTCHAR char47
ENCODING 47
SWIDTH 545 0
DWIDTH 7
BBX 7 7 0 0
BITMAP
04
0c
18
30
60
c0
80
ENDCHAR
STARTCHAR char48
ENCODING 48
SWIDTH 545 0
DWIDTH 7
BBX 7 8 0 0
BITMAP
78
cc
cc
cc
cc
cc
cc
78
ENDCHAR
STARTCHAR char49
ENCODING 49
SWIDTH 545 0
DWIDTH 7
BBX 7 8 0 0
BITMAP
30
70
30
30
30
30
30
fc
ENDCHAR
STARTCHAR char50
ENCODING 50
SWIDTH 545 0
DWIDTH 7
BBX 7 8 0 0
BITMAP
78
cc
0c
18
30
60
c0
fc
ENDCHAR
STARTCHAR char51
ENCODING 51
SWIDTH 545 0
DWIDTH 7
BBX 7 8 0 0
BITMAP
78
cc
0c
38
0c
0c
cc
78
ENDCHAR
STARTCHAR char52
ENCODING 52
SWIDTH 545 0
DWIDTH 7
BBX 7 8 0 0
BITMAP
60
60
6c
cc
cc
fc
0c
0c
ENDCHAR
STARTCHAR char53
ENCODING 53
SWIDTH 545 0
DWIDTH 7
BBX 7 8 0 0
BITMAP
f8
c0
c0
f8
0c
0c
cc
78
ENDCHAR
STARTCHAR char54
ENCODING 54
SWIDTH 545 0
DWIDTH 7
BBX 7 8 0 0
BITMAP
78
c0
c0
f8
cc
cc
cc
78
ENDCHAR
STARTCHAR char55
ENCODING 55
SWIDTH 545 0
DWIDTH 7
BBX 7 8 0 0
BITMAP
fc
0c
18
18
18
30
30
30
ENDCHAR
STARTCHAR char56
ENCODING 56
SWIDTH 545 0
DWIDTH 7
BBX 7 8 0 0
BITMAP
78
cc
cc
78
cc
cc
cc
78
ENDCHAR
STARTCHAR char57
ENCODING 57
SWIDTH 545 0
DWIDTH 7
BBX 7 8 0 0
BITMAP
78
cc
cc
cc
cc
7c
0c
78
ENDCHAR
STARTCHAR char58
ENCODING 58
SWIDTH 312 0
DWIDTH 4
BBX 4 6 0 0
BITMAP
60
60
00
00
60
60
ENDCHAR
STARTCHAR char59
ENCODING 59
SWIDTH 312 0
DWIDTH 4
BBX 4 7 0 -1
BITMAP
60
60
00
00
60
60
c0
ENDCHAR
STARTCHAR char60
ENCODING 60
SWIDTH 545 0
DWIDTH 7
BBX 7 6 0 0
BITMAP
0c
38
e0
e0
38
0c
ENDCHAR
STARTCHAR char61
ENCODING 61
SWIDTH 467 0
DWIDTH 6
BBX 6 4 0 1
BITMAP
f8
00
00
f8
ENDCHAR
STARTCHAR char62
ENCODING 62
SWIDTH 545 0
DWIDTH 7
BBX 7 6 0 0
BITMAP
c0
70
1c
1c
70
c0
ENDCHAR
STARTCHAR char63
ENCODING 63
SWIDTH 545 0
DWIDTH 7
BBX 7 9 0 -1
BITMAP
78
cc
0c
18
30
30
00
30
30
ENDCHAR
STARTCHAR char64
ENCODING 64
SWIDTH 701 0
DWIDTH 9
BBX 9 8 0 0
BITMAP
7e
e3
cf
db
db
cf
e0
7e
ENDCHAR
STARTCHAR char65
ENCODING 65
SWIDTH 545 0
DWIDTH 7
BBX 7 8 0 0
BITMAP
78
cc
cc
fc
cc
cc
cc
cc
ENDCHAR
STARTCHAR char66
ENCODING 66
SWIDTH 545 0
DWIDTH 7
BBX 7 8 0 0
BITMAP
f8
cc
cc
f8
cc
cc
cc
f8
ENDCHAR
STARTCHAR char67
ENCODING 67
SWIDTH 545 0
DWIDTH 7
BBX 7 8 0 0
BITMAP
78
cc
c0
c0
c0
c0
cc
78
ENDCHAR
STARTCHAR char68
ENCODING 68
SWIDTH 545 0
DWIDTH 7
BBX 7 8 0 0
BITMAP
f8
cc
cc
cc
cc
cc
cc
f8
ENDCHAR
STARTCHAR char69
ENCODING 69
SWIDTH 467 0
DWIDTH 6
BBX 6 8 0 0
BITMAP
f8
c0
c0
f0
c0
c0
c0
f8
ENDCHAR
STARTCHAR char70
ENCODING 70
SWIDTH 467 0
DWIDTH 6
BBX 6 8 0 0
BITMAP
f8
c0
c0
f0
c0
c0
c0
c0
ENDCHAR
STARTCHAR char71
ENCODING 71
SWIDTH 545 0
DWIDTH 7
BBX 7 8 0 0
BITMAP
78
cc
c0
c0
dc
cc
cc
74
ENDCHAR
STARTCHAR char72
ENCODING 72
SWIDTH 545 0
DWIDTH 7
BBX 7 8 0 0
BITMAP
cc
cc
cc
fc
cc
cc
cc
cc
ENDCHAR
STARTCHAR char73
ENCODING 73
SWIDTH 389 0
DWIDTH 5
BBX 5 8 0 0
BITMAP
f0
60
60
60
60
60
60
f0
ENDCHAR
STARTCHAR char74
ENCODING 74
SWIDTH 467 0
DWIDTH 6
BBX 6 8 0 0
BITMAP
78
30
30
30
30
30
70
e0
ENDCHAR
STARTCHAR char75
ENCODING 75
SWIDTH 545 0
DWIDTH 7
BBX 7 8 0 0
BITMAP
c4
cc
d8
f0
f0
d8
cc
c4
ENDCHAR
STARTCHAR char76
ENCODING 76
SWIDTH 467 0
DWIDTH 6
BBX 6 8 0 0
BITMAP
c0
c0
c0
c0
c0
c0
c0
f8
ENDCHAR
STARTCHAR char77
ENCODING 77
SWIDTH 623 0
DWIDTH 8
BBX 8 8 0 0
BITMAP
82
c6
ee
fe
d6
c6
c6
c6
ENDCHAR
STARTCHAR char78
ENCODING 78
SWIDTH 545 0
DWIDTH 7
BBX 7 8 0 0
BITMAP
cc
cc
ec
ec
dc
dc
cc
cc
ENDCHAR
STARTCHAR char79
ENCODING 79
SWIDTH 545 0
DWIDTH 7
BBX 7 8 0 0
BITMAP
78
cc
cc
cc
cc
cc
cc
78
ENDCHAR
STARTCHAR char80
ENCODING 80
SWIDTH 545 0
DWIDTH 7
BBX 7 8 0 0
BITMAP
f8
cc
cc
cc
cc
f8
c0
c0
ENDCHAR
STARTCHAR char81
ENCODING 81
SWIDTH 545 0
DWIDTH 7
BBX 7 8 0 0
BITMAP
78
cc
cc
cc
cc
d4
d8
6c
ENDCHAR
STARTCHAR char82
ENCODING 82
SWIDTH 545 0
DWIDTH 7
BBX 7 8 0 0
BITMAP
f8
cc
cc
cc
f8
f0
d8
cc
ENDCHAR
STARTCHAR char83
ENCODING 83
SWIDTH 545 0
DWIDTH 7
BBX 7 8 0 0
BITMAP
78
cc
c0
78
0c
0c
cc
78
ENDCHAR
STARTCHAR char84
ENCODING 84
SWIDTH 545 0
DWIDTH 7
BBX 7 8 0 0
BITMAP
fc
30
30
30
30
30
30
30
ENDCHAR
STARTCHAR char85
ENCODING 85
SWIDTH 545 0
DWIDTH 7
BBX 7 8 0 0
BITMAP
cc
cc
cc
cc
cc
cc
cc
78
ENDCHAR
STARTCHAR char86
ENCODING 86
SWIDTH 545 0
DWIDTH 7
BBX 7 8 0 0
BITMAP
cc
cc
cc
78
78
78
30
30
ENDCHAR
STARTCHAR char87
ENCODING 87
SWIDTH 701 0
DWIDTH 9
BBX 9 8 0 0
BITMAP
c3
db
db
5a
7e
7e
34
34
ENDCHAR
STARTCHAR char88
ENCODING 88
SWIDTH 545 0
DWIDTH 7
BBX 7 8 0 0
BITMAP
cc
cc
78
30
30
78
cc
cc
ENDCHAR
STARTCHAR char89
ENCODING 89
SWIDTH 545 0
DWIDTH 7
BBX 7 8 0 0
BITMAP
cc
cc
cc
78
38
30
70
e0
ENDCHAR
STARTCHAR char90
ENCODING 90
SWIDTH 545 0
DWIDTH 7
BBX 7 8 0 0
BITMAP
fc
0c
18
30
60
c0
c0
fc
ENDCHAR
STARTCHAR char91
ENCODING 91
SWIDTH 389 0
DWIDTH 5
BBX 5 8 0 0
BITMAP
f0
c0
c0
c0
c0
c0
c0
f0
ENDCHAR
STARTCHAR char92
ENCODING 92
SWIDTH 545 0
DWIDTH 7
BBX 7 7 0 0
BITMAP
80
c0
60
30
18
0c
04
ENDCHAR
STARTCHAR char93
ENCODING 93
SWIDTH 389 0
DWIDTH 5
BBX 5 8 0 0
BITMAP
f0
30
30
30
30
30
30
f0
ENDCHAR
STARTCHAR char94
ENCODING 94
SWIDTH 545 0
DWIDTH 7
BBX 7 3 0 5
BITMAP
30
78
cc
ENDCHAR
STARTCHAR char95
ENCODING 95
SWIDTH 467 0
DWIDTH 6
BBX 6 1 0 -1
BITMAP
f8
ENDCHAR
STARTCHAR char96
ENCODING 96
SWIDTH 312 0
DWIDTH 4
BBX 4 3 0 5
BITMAP
c0
c0
60
ENDCHAR
STARTCHAR char97
ENCODING 97
SWIDTH 545 0
DWIDTH 7
BBX 7 6 0 0
BITMAP
78
0c
7c
cc
cc
7a
ENDCHAR
STARTCHAR char98
ENCODING 98
SWIDTH 545 0
DWIDTH 7
BBX 7 8 0 0
BITMAP
c0
c0
d8
ec
cc
cc
ec
d8
ENDCHAR
STARTCHAR char99
ENCODING 99
SWIDTH 545 0
DWIDTH 7
BBX 7 6 0 0
BITMAP
78
cc
c0
c0
cc
78
ENDCHAR
STARTCHAR char100
ENCODING 100
SWIDTH 545 0
DWIDTH 7
BBX 7 8 0 0
BITMAP
0c
0c
6c
dc
cc
cc
dc
6c
ENDCHAR
STARTCHAR char101
ENCODING 101
SWIDTH 545 0
DWIDTH 7
BBX 7 6 0 0
BITMAP
78
cc
fc
c0
cc
78
ENDCHAR
STARTCHAR char102
ENCODING 102
SWIDTH 389 0
DWIDTH 5
BBX 5 8 0 0
BITMAP
70
c0
f0
c0
c0
c0
c0
c0
ENDCHAR
STARTCHAR char103
ENCODING 103
SWIDTH 545 0
DWIDTH 7
BBX 7 8 0 -2
BITMAP
6c
dc
cc
cc
dc
6c
0c
78
ENDCHAR
STARTCHAR char104
ENCODING 104
SWIDTH 545 0
DWIDTH 7
BBX 7 8 0 0
BITMAP
c0
c0
d8
ec
cc
cc
cc
cc
ENDCHAR
STARTCHAR char105
ENCODING 105
SWIDTH 234 0
DWIDTH 3
BBX 3 8 0 0
BITMAP
c0
00
c0
c0
c0
c0
c0
c0
ENDCHAR
STARTCHAR char106
ENCODING 106
SWIDTH 389 0
DWIDTH 5
BBX 5 10 0 -2
BITMAP
30
00
30
30
30
30
30
30
30
e0
ENDCHAR
STARTCHAR char107
ENCODING 107
SWIDTH 467 0
DWIDTH 6
BBX 6 8 0 0
BITMAP
c0
c0
c8
d8
f0
f0
d8
c8
ENDCHAR
STARTCHAR char108
ENCODING 108
SWIDTH 234 0
DWIDTH 3
BBX 3 8 0 0
BITMAP
c0
c0
c0
c0
c0
c0
c0
c0
ENDCHAR
STARTCHAR char109
ENCODING 109
SWIDTH 701 0
DWIDTH 9
BBX 9 6 0 0
BITMAP
b6
db
db
db
db
db
ENDCHAR
STARTCHAR char110
ENCODING 110
SWIDTH 545 0
DWIDTH 7
BBX 7 6 0 0
BITMAP
d8
ec
cc
cc
cc
cc
ENDCHAR
STARTCHAR char111
ENCODING 111
SWIDTH 545 0
DWIDTH 7
BBX 7 6 0 0
BITMAP
78
cc
cc
cc
cc
78
ENDCHAR
STARTCHAR char112
ENCODING 112
SWIDTH 545 0
DWIDTH 7
BBX 7 8 0 -2
BITMAP
d8
ec
cc
cc
ec
d8
c0
c0
ENDCHAR
STARTCHAR char113
ENCODING 113
SWIDTH 545 0
DWIDTH 7
BBX 7 8 0 -2
BITMAP
6c
dc
cc
cc
dc
6c
0c
0c
ENDCHAR
STARTCHAR char114
ENCODING 114
SWIDTH 312 0
DWIDTH 4
BBX 4 6 0 0
BITMAP
b0
e0
c0
c0
c0
c0
ENDCHAR
STARTCHAR char115
ENCODING 115
SWIDTH 545 0
DWIDTH 7
BBX 7 6 0 0
BITMAP
78
c4
78
0c
cc
78
ENDCHAR
STARTCHAR char116
ENCODING 116
SWIDTH 389 0
DWIDTH 5
BBX 5 8 0 0
BITMAP
c0
c0
f0
c0
c0
c0
c0
70
ENDCHAR
STARTCHAR char117
ENCODING 117
SWIDTH 545 0
DWIDTH 7
BBX 7 6 0 0
BITMAP
cc
cc
cc
cc
dc
6c
ENDCHAR
STARTCHAR char118
ENCODING 118
SWIDTH 545 0
DWIDTH 7
BBX 7 6 0 0
BITMAP
cc
cc
cc
78
78
30
ENDCHAR
STARTCHAR char119
ENCODING 119
SWIDTH 701 0
DWIDTH 9
BBX 9 6 0 0
BITMAP
99
db
db
7e
7e
34
ENDCHAR
STARTCHAR char120
ENCODING 120
SWIDTH 467 0
DWIDTH 6
BBX 6 6 0 0
BITMAP
88
d8
70
70
d8
88
ENDCHAR
STARTCHAR char121
ENCODING 121
SWIDTH 545 0
DWIDTH 7
BBX 7 8 0 -2
BITMAP
cc
cc
cc
6c
78
38
30
60
ENDCHAR
STARTCHAR char122
ENCODING 122
SWIDTH 467 0
DWIDTH 6
BBX 6 6 0 0
BITMAP
f8
18
30
60
c0
f8
ENDCHAR
STARTCHAR char123
ENCODING 123
SWIDTH 389 0
DWIDTH 5
BBX 5 8 0 0
BITMAP
30
60
60
c0
60
60
60
30
ENDCHAR
STARTCHAR char124
ENCODING 124
SWIDTH 234 0
DWIDTH 3
BBX 3 10 0 -2
BITMAP
c0
c0
c0
c0
c0
c0
c0
c0
c0
c0
ENDCHAR
STARTCHAR char125
ENCODING 125
SWIDTH 389 0
DWIDTH 5
BBX 5 8 0 0
BITMAP
c0
60
60
30
60
60
60
c0
ENDCHAR
STARTCHAR char126
ENCODING 126
SWIDTH 545 0
DWIDTH 7
BBX 7 3 0 5
BITMAP
64
fc
98
ENDCHAR
STARTCHAR char127
ENCODING 127
SWIDTH 389 0
DWIDTH 5
BBX 5 10 0 -2
BITMAP
88
18
30
60
c0
88
18
30
60
c0
ENDCHAR
STARTCHAR char161
ENCODING 161
SWIDTH 312 0
DWIDTH 4
BBX 4 9 0 -1
BITMAP
60
60
00
60
60
60
60
60
60
ENDCHAR
STARTCHAR char167
ENCODING 167
SWIDTH 623 0
DWIDTH 8
BBX 8 10 0 -2
BITMAP
1c
36
30
78
66
66
36
0c
6c
38
ENDCHAR
STARTCHAR char171
ENCODING 171
SWIDTH 545 0
DWIDTH 7
BBX 7 6 0 0
BITMAP
24
6c
d8
d8
6c
24
ENDCHAR
STARTCHAR char176
ENCODING 176
SWIDTH 467 0
DWIDTH 6
BBX 6 4 0 2
BITMAP
70
d8
d8
70
ENDCHAR
STARTCHAR char177
ENCODING 177
SWIDTH 389 0
DWIDTH 5
BBX 5 5 0 0
BITMAP
20
70
20
00
70
ENDCHAR
STARTCHAR char178
ENCODING 178
SWIDTH 467 0
DWIDTH 6
BBX 6 5 0 3
BITMAP
70
d8
30
60
f8
ENDCHAR
STARTCHAR char179
ENCODING 179
SWIDTH 467 0
DWIDTH 6
BBX 6 5 0 3
BITMAP
70
98
30
98
70
ENDCHAR
STARTCHAR char181
ENCODING 181
SWIDTH 545 0
DWIDTH 7
BBX 7 8 0 -2
BITMAP
cc
cc
cc
cc
dc
f4
c0
c0
ENDCHAR
STARTCHAR char183
ENCODING 183
SWIDTH 312 0
DWIDTH 4
BBX 4 3 0 3
BITMAP
e0
e0
e0
ENDCHAR
STARTCHAR char187
ENCODING 187
SWIDTH 545 0
DWIDTH 7
BBX 7 6 0 0
BITMAP
90
d8
6c
6c
d8
90
ENDCHAR
STARTCHAR char191
ENCODING 191
SWIDTH 545 0
DWIDTH 7
BBX 7 9 0 -1
BITMAP
30
30
00
30
30
60
c0
cc
78
ENDCHAR
STARTCHAR char192
ENCODING 192
SWIDTH 545 0
DWIDTH 7
BBX 7 8 0 0
BITMAP
60
30
78
cc
cc
fc
cc
cc
ENDCHAR
STARTCHAR char193
ENCODING 193
SWIDTH 545 0
DWIDTH 7
BBX 7 8 0 0
BITMAP
18
30
78
cc
cc
fc
cc
cc
ENDCHAR
STARTCHAR char194
ENCODING 194
SWIDTH 545 0
DWIDTH 7
BBX 7 8 0 0
BITMAP
30
78
84
78
cc
fc
cc
cc
ENDCHAR
STARTCHAR char195
ENCODING 195
SWIDTH 545 0
DWIDTH 7
BBX 7 8 0 0
BITMAP
64
fc
98
78
cc
fc
cc
cc
ENDCHAR
STARTCHAR char196
ENCODING 196
SWIDTH 545 0
DWIDTH 7
BBX 7 8 0 0
BITMAP
cc
00
78
cc
cc
fc
cc
cc
ENDCHAR
STARTCHAR char197
ENCODING 197
SWIDTH 545 0
DWIDTH 7
BBX 7 8 0 0
BITMAP
78
cc
78
78
cc
fc
cc
cc
ENDCHAR
STARTCHAR char198
ENCODING 198
SWIDTH 701 0
DWIDTH 9
BBX 9 8 0 0
BITMAP
3f
6c
6c
ff
cc
cc
cc
cf
ENDCHAR
STARTCHAR char199
ENCODING 199
SWIDTH 545 0
DWIDTH 7
BBX 7 10 0 -2
BITMAP
78
cc
c0
c0
c0
c0
cc
78
30
60
ENDCHAR
STARTCHAR char200
ENCODING 200
SWIDTH 467 0
DWIDTH 6
BBX 6 8 0 0
BITMAP
60
30
f8
c0
f0
c0
c0
f8
ENDCHAR
STARTCHAR char201
ENCODING 201
SWIDTH 467 0
DWIDTH 6
BBX 6 8 0 0
BITMAP
18
30
f8
c0
f0
c0
c0
f8
ENDCHAR
STARTCHAR char202
ENCODING 202
SWIDTH 545 0
DWIDTH 7
BBX 7 8 0 0
BITMAP
30
78
84
7c
60
78
60
7c
ENDCHAR
STARTCHAR char203
ENCODING 203
SWIDTH 467 0
DWIDTH 6
BBX 6 8 0 0
BITMAP
d8
00
f8
c0
f0
c0
c0
f8
ENDCHAR
STARTCHAR char204
ENCODING 204
SWIDTH 389 0
DWIDTH 5
BBX 5 8 0 0
BITMAP
c0
60
00
f0
60
60
60
f0
ENDCHAR
STARTCHAR char205
ENCODING 205
SWIDTH 389 0
DWIDTH 5
BBX 5 8 0 0
BITMAP
30
60
00
f0
60
60
60
f0
ENDCHAR
STARTCHAR char206
ENCODING 206
SWIDTH 467 0
DWIDTH 6
BBX 6 8 0 0
BITMAP
20
70
88
f0
60
60
60
f0
ENDCHAR
STARTCHAR char207
ENCODING 207
SWIDTH 389 0
DWIDTH 5
BBX 5 8 0 0
BITMAP
90
00
f0
60
60
60
60
f0
ENDCHAR
STARTCHAR char208
ENCODING 208
SWIDTH 623 0
DWIDTH 8
BBX 8 8 0 0
BITMAP
7c
66
66
f6
66
66
66
7c
ENDCHAR
STARTCHAR char209
ENCODING 209
SWIDTH 545 0
DWIDTH 7
BBX 7 8 0 0
BITMAP
64
fc
98
ec
fc
fc
dc
cc
ENDCHAR
STARTCHAR char210
ENCODING 210
SWIDTH 545 0
DWIDTH 7
BBX 7 8 0 0
BITMAP
60
30
78
cc
cc
cc
cc
78
ENDCHAR
STARTCHAR char211
ENCODING 211
SWIDTH 545 0
DWIDTH 7
BBX 7 8 0 0
BITMAP
18
30
78
cc
cc
cc
cc
78
ENDCHAR
STARTCHAR char212
ENCODING 212
SWIDTH 545 0
DWIDTH 7
BBX 7 8 0 0
BITMAP
10
38
44
78
cc
cc
cc
78
ENDCHAR
STARTCHAR char213
ENCODING 213
SWIDTH 545 0
DWIDTH 7
BBX 7 8 0 0
BITMAP
64
fc
b8
cc
cc
cc
cc
78
ENDCHAR
STARTCHAR char214
ENCODING 214
SWIDTH 545 0
DWIDTH 7
BBX 7 8 0 0
BITMAP
cc
78
cc
cc
cc
cc
cc
78
ENDCHAR
STARTCHAR char215
ENCODING 215
SWIDTH 545 0
DWIDTH 7
BBX 7 5 0 0
BITMAP
44
28
10
28
44
ENDCHAR
STARTCHAR char216
ENCODING 216
SWIDTH 545 0
DWIDTH 7
BBX 7 9 0 -1
BITMAP
04
78
cc
dc
cc
ec
cc
78
80
ENDCHAR
STARTCHAR char217
ENCODING 217
SWIDTH 545 0
DWIDTH 7
BBX 7 8 0 0
BITMAP
60
30
cc
cc
cc
cc
cc
78
ENDCHAR
STARTCHAR char218
ENCODING 218
SWIDTH 545 0
DWIDTH 7
BBX 7 8 0 0
BITMAP
18
30
cc
cc
cc
cc
cc
78
ENDCHAR
STARTCHAR char219
ENCODING 219
SWIDTH 545 0
DWIDTH 7
BBX 7 8 0 0
BITMAP
30
78
84
cc
cc
cc
cc
78
ENDCHAR
STARTCHAR char220
ENCODING 220
SWIDTH 545 0
DWIDTH 7
BBX 7 8 0 0
BITMAP
cc
00
cc
cc
cc
cc
cc
78
ENDCHAR
STARTCHAR char221
ENCODING 221
SWIDTH 545 0
DWIDTH 7
BBX 7 8 0 0
BITMAP
18
30
cc
cc
78
30
30
30
ENDCHAR
STARTCHAR char222
ENCODING 222
SWIDTH 545 0
DWIDTH 7
BBX 7 9 0 -1
BITMAP
c0
c0
f8
cc
cc
cc
f8
c0
c0
ENDCHAR
STARTCHAR char223
ENCODING 223
SWIDTH 545 0
DWIDTH 7
BBX 7 8 0 -2
BITMAP
78
cc
d8
cc
cc
d8
c0
c0
ENDCHAR
STARTCHAR char224
ENCODING 224
SWIDTH 545 0
DWIDTH 7
BBX 7 8 0 0
BITMAP
60
30
78
0c
7c
cc
cc
7a
ENDCHAR
STARTCHAR char225
ENCODING 225
SWIDTH 545 0
DWIDTH 7
BBX 7 8 0 0
BITMAP
18
30
78
0c
7c
cc
cc
7a
ENDCHAR
STARTCHAR char226
ENCODING 226
SWIDTH 545 0
DWIDTH 7
BBX 7 8 0 0
BITMAP
10
38
44
78
0c
7c
cc
7a
ENDCHAR
STARTCHAR char227
ENCODING 227
SWIDTH 545 0
DWIDTH 7
BBX 7 8 0 0
BITMAP
64
fc
98
78
0c
7c
cc
7a
ENDCHAR
STARTCHAR char228
ENCODING 228
SWIDTH 545 0
DWIDTH 7
BBX 7 8 0 0
BITMAP
cc
00
78
0c
7c
cc
cc
7a
ENDCHAR
STARTCHAR char229
ENCODING 229
SWIDTH 545 0
DWIDTH 7
BBX 7 8 0 0
BITMAP
38
6c
38
78
0c
7c
cc
7a
ENDCHAR
STARTCHAR char230
ENCODING 230
SWIDTH 701 0
DWIDTH 9
BBX 9 6 0 0
BITMAP
76
1b
7f
d8
db
76
ENDCHAR
STARTCHAR char231
ENCODING 231
SWIDTH 545 0
DWIDTH 7
BBX 7 8 0 -2
BITMAP
78
cc
c0
c0
cc
78
30
60
ENDCHAR
STARTCHAR char232
ENCODING 232
SWIDTH 545 0
DWIDTH 7
BBX 7 8 0 0
BITMAP
60
30
78
cc
fc
c0
cc
78
ENDCHAR
STARTCHAR char233
ENCODING 233
SWIDTH 545 0
DWIDTH 7
BBX 7 8 0 0
BITMAP
18
30
78
cc
fc
c0
cc
78
ENDCHAR
STARTCHAR char234
ENCODING 234
SWIDTH 545 0
DWIDTH 7
BBX 7 8 0 0
BITMAP
10
38
44
78
cc
fc
c0
78
ENDCHAR
STARTCHAR char235
ENCODING 235
SWIDTH 545 0
DWIDTH 7
BBX 7 8 0 0
BITMAP
cc
00
78
cc
fc
c0
cc
78
ENDCHAR
STARTCHAR char236
ENCODING 236
SWIDTH 312 0
DWIDTH 4
BBX 4 8 0 0
BITMAP
c0
60
00
60
60
60
60
60
ENDCHAR
STARTCHAR char237
ENCODING 237
SWIDTH 312 0
DWIDTH 4
BBX 4 8 0 0
BITMAP
60
c0
00
c0
c0
c0
c0
c0
ENDCHAR
STARTCHAR char238
ENCODING 238
SWIDTH 467 0
DWIDTH 6
BBX 6 8 0 0
BITMAP
20
70
88
60
60
60
60
60
ENDCHAR
STARTCHAR char239
ENCODING 239
SWIDTH 389 0
DWIDTH 5
BBX 5 8 0 0
BITMAP
90
00
60
60
60
60
60
60
ENDCHAR
STARTCHAR char240
ENCODING 240
SWIDTH 545 0
DWIDTH 7
BBX 7 8 0 0
BITMAP
ec
38
38
0c
7c
cc
cc
78
ENDCHAR
STARTCHAR char241
ENCODING 241
SWIDTH 545 0
DWIDTH 7
BBX 7 8 0 0
BITMAP
64
fc
98
d8
ec
cc
cc
cc
ENDCHAR
STARTCHAR char242
ENCODING 242
SWIDTH 545 0
DWIDTH 7
BBX 7 8 0 0
BITMAP
60
30
78
cc
cc
cc
cc
78
ENDCHAR
STARTCHAR char243
ENCODING 243
SWIDTH 545 0
DWIDTH 7
BBX 7 8 0 0
BITMAP
18
30
78
cc
cc
cc
cc
78
ENDCHAR
STARTCHAR char244
ENCODING 244
SWIDTH 545 0
DWIDTH 7
BBX 7 8 0 0
BITMAP
10
38
44
78
cc
cc
cc
78
ENDCHAR
STARTCHAR char245
ENCODING 245
SWIDTH 545 0
DWIDTH 7
BBX 7 8 0 0
BITMAP
64
fc
98
78
cc
cc
cc
78
ENDCHAR
STARTCHAR char246
ENCODING 246
SWIDTH 545 0
DWIDTH 7
BBX 7 8 0 0
BITMAP
cc
00
78
cc
cc
cc
cc
78
ENDCHAR
STARTCHAR char247
ENCODING 247
SWIDTH 545 0
DWIDTH 7
BBX 7 5 0 0
BITMAP
10
00
7c
00
10
ENDCHAR
STARTCHAR char248
ENCODING 248
SWIDTH 545 0
DWIDTH 7
BBX 7 8 0 -1
BITMAP
04
78
cc
dc
ec
cc
78
80
ENDCHAR
STARTCHAR char249
ENCODING 249
SWIDTH 545 0
DWIDTH 7
BBX 7 8 0 0
BITMAP
60
30
cc
cc
cc
cc
dc
6c
ENDCHAR
STARTCHAR char250
ENCODING 250
SWIDTH 545 0
DWIDTH 7
BBX 7 8 0 0
BITMAP
18
30
cc
cc
cc
cc
dc
6c
ENDCHAR
STARTCHAR char251
ENCODING 251
SWIDTH 545 0
DWIDTH 7
BBX 7 8 0 0
BITMAP
30
78
84
cc
cc
cc
dc
6c
ENDCHAR
STARTCHAR char252
ENCODING 252
SWIDTH 545 0
DWIDTH 7
BBX 7 8 0 0
BITMAP
cc
00
cc
cc
cc
cc
dc
6c
ENDCHAR
STARTCHAR char253
ENCODING 253
SWIDTH 545 0
DWIDTH 7
BBX 7 8 0 -2
BITMAP
18
30
cc
cc
78
30
60
c0
ENDCHAR
STARTCHAR char254
ENCODING 254
SWIDTH 467 0
DWIDTH 6
BBX 6 10 0 -2
BITMAP
c0
c0
c0
f0
d8
d8
f0
c0
c0
c0
ENDCHAR
STARTCHAR char255
ENCODING 255
SWIDTH 545 0
DWIDTH 7
BBX 7 10 0 -2
BITMAP
cc
00
cc
cc
cc
cc
7c
0c
cc
78
ENDCHAR
STARTCHAR Gbreve
ENCODING 286
SWIDTH 1000 0
DWIDTH 7 0
BBX 6 10 1 0
BITMAP
48
30
00
78
CC
C0
DC
CC
CC
74
ENDCHAR
STARTCHAR gbreve
ENCODING 287
SWIDTH 1000 0
DWIDTH 7 0
BBX 6 10 1 -1
BITMAP
48
30
00
6C
DC
CC
DC
6C
0C
78
ENDCHAR
STARTCHAR Idotaccent
ENCODING 304
SWIDTH 1000 0
DWIDTH 6 0
BBX 4 10 2 0
BITMAP
60
00
F0
60
60
60
60
60
60
F0
ENDCHAR
STARTCHAR dotlessi
ENCODING 305
SWIDTH 1000 0
DWIDTH 3 0
BBX 2 6 1 0
BITMAP
C0
C0
C0
C0
C0
C0
ENDCHAR
STARTCHAR Scedilla
ENCODING 350
SWIDTH 1000 0
DWIDTH 7 0
BBX 6 10 1 -2
BITMAP
78
CC
C0
78
0C
0C
CC
78
30
E0
ENDCHAR
STARTCHAR scedilla
ENCODING 351
SWIDTH 1000 0
DWIDTH 7 0
BBX 6 8 1 -2
BITMAP
78
C4
60
18
CC
78
30
60
ENDCHAR
STARTCHAR tonos
ENCODING 900
SWIDTH 1000 0
DWIDTH 6 0
BBX 3 2 2 7
BITMAP
60
C0
ENDCHAR
STARTCHAR dieresistonos
ENCODING 901
SWIDTH 1000 0
DWIDTH 6 0
BBX 4 4 1 6
BITMAP
30
60
00
D0
ENDCHAR
STARTCHAR Alphatonos
ENCODING 902
SWIDTH 1000 0
DWIDTH 6 0
BBX 6 10 0 0
BITMAP
18
30
00
78
CC
CC
FC
CC
CC
CC
ENDCHAR
STARTCHAR anoteleia
ENCODING 903
SWIDTH 1000 0
DWIDTH 6 0
BBX 3 2 2 3
BITMAP
E0
E0
ENDCHAR
STARTCHAR Epsilontonos
ENCODING 904
SWIDTH 1000 0
DWIDTH 6 0
BBX 6 10 0 0
BITMAP
18
30
00
FC
C0
C0
F8
C0
C0
FC
ENDCHAR
STARTCHAR Etatonos
ENCODING 905
SWIDTH 1000 0
DWIDTH 6 0
BBX 6 10 0 0
BITMAP
18
30
00
CC
CC
CC
FC
CC
CC
CC
ENDCHAR
STARTCHAR Iotatonos
ENCODING 906
SWIDTH 1000 0
DWIDTH 6 0
BBX 4 10 1 0
BITMAP
30
60
00
F0
60
60
60
60
60
F0
ENDCHAR
STARTCHAR Omicrontonos
ENCODING 908
SWIDTH 1000 0
DWIDTH 6 0
BBX 6 10 0 0
BITMAP
18
30
00
78
CC
CC
CC
CC
CC
78
ENDCHAR
STARTCHAR Upsilontonos
ENCODING 910
SWIDTH 1000 0
DWIDTH 6 0
BBX 6 10 0 0
BITMAP
18
30
00
CC
CC
68
30
30
30
30
ENDCHAR
STARTCHAR Omegatonos
ENCODING 911
SWIDTH 1000 0
DWIDTH 6 0
BBX 6 10 0 0
BITMAP
18
30
00
78
CC
CC
CC
CC
68
EC
ENDCHAR
STARTCHAR iotadieresistonos
ENCODING 912
SWIDTH 1000 0
DWIDTH 6 0
BBX 5 10 1 0
BITMAP
30
60
00
D0
00
60
60
60
68
30
ENDCHAR
STARTCHAR Alpha
ENCODING 913
SWIDTH 1000 0
DWIDTH 6 0
BBX 6 7 0 0
BITMAP
78
CC
CC
FC
CC
CC
CC
ENDCHAR
STARTCHAR Beta
ENCODING 914
SWIDTH 1000 0
DWIDTH 6 0
BBX 6 7 0 0
BITMAP
F8
CC
CC
F8
CC
CC
F8
ENDCHAR
STARTCHAR Gamma
ENCODING 915
SWIDTH 1000 0
DWIDTH 6 0
BBX 6 7 0 0
BITMAP
FC
C0
C0
C0
C0
C0
C0
ENDCHAR
STARTCHAR Delta
ENCODING 916
SWIDTH 1000 0
DWIDTH 6 0
BBX 6 7 0 0
BITMAP
30
30
68
68
CC
CC
FC
ENDCHAR
STARTCHAR Epsilon
ENCODING 917
SWIDTH 1000 0
DWIDTH 6 0
BBX 6 7 0 0
BITMAP
FC
C0
C0
F8
C0
C0
FC
ENDCHAR
STARTCHAR Zeta
ENCODING 918
SWIDTH 1000 0
DWIDTH 6 0
BBX 6 7 0 0
BITMAP
FC
0C
18
30
60
C0
FC
ENDCHAR
STARTCHAR Eta
ENCODING 919
SWIDTH 1000 0
DWIDTH 6 0
BBX 6 7 0 0
BITMAP
CC
CC
CC
FC
CC
CC
CC
ENDCHAR
STARTCHAR Theta
ENCODING 920
SWIDTH 1000 0
DWIDTH 6 0
BBX 6 7 0 0
BITMAP
78
CC
CC
FC
CC
CC
78
ENDCHAR
STARTCHAR Iota
ENCODING 921
SWIDTH 1000 0
DWIDTH 6 0
BBX 4 7 1 0
BITMAP
F0
60
60
60
60
60
F0
ENDCHAR
STARTCHAR Kappa
ENCODING 922
SWIDTH 1000 0
DWIDTH 6 0
BBX 6 7 0 0
BITMAP
CC
D8
D0
E0
D0
D8
CC
ENDCHAR
STARTCHAR Lambda
ENCODING 923
SWIDTH 1000 0
DWIDTH 6 0
BBX 6 7 0 0
BITMAP
30
30
68
68
CC
CC
CC
ENDCHAR
STARTCHAR Mu
ENCODING 924
SWIDTH 1000 0
DWIDTH 8 0
BBX 7 8 1 0
BITMAP
82
C6
EE
FE
D6
C6
C6
C6
ENDCHAR
STARTCHAR Nu
ENCODING 925
SWIDTH 1000 0
DWIDTH 7 0
BBX 6 8 1 0
BITMAP
CC
CC
EC
EC
DC
DC
CC
CC
ENDCHAR
STARTCHAR Xi
ENCODING 926
SWIDTH 1000 0
DWIDTH 6 0
BBX 6 7 0 0
BITMAP
FC
00
00
78
00
00
FC
ENDCHAR
STARTCHAR Omicron
ENCODING 927
SWIDTH 1000 0
DWIDTH 6 0
BBX 6 7 0 0
BITMAP
78
CC
CC
CC
CC
CC
78
ENDCHAR
STARTCHAR Pi
ENCODING 928
SWIDTH 1000 0
DWIDTH 6 0
BBX 6 7 0 0
BITMAP
FC
CC
CC
CC
CC
CC
CC
ENDCHAR
STARTCHAR Rho
ENCODING 929
SWIDTH 1000 0
DWIDTH 6 0
BBX 6 7 0 0
BITMAP
F8
CC
CC
F8
C0
C0
C0
ENDCHAR
STARTCHAR Sigma
ENCODING 931
SWIDTH 1000 0
DWIDTH 6 0
BBX 6 7 0 0
BITMAP
FC
60
30
18
30
60
FC
ENDCHAR
STARTCHAR Tau
ENCODING 932
SWIDTH 1000 0
DWIDTH 6 0
BBX 6 7 0 0
BITMAP
FC
30
30
30
30
30
30
ENDCHAR
STARTCHAR Upsilon
ENCODING 933
SWIDTH 1000 0
DWIDTH 6 0
BBX 6 7 0 0
BITMAP
CC
CC
68
30
30
30
30
ENDCHAR
STARTCHAR Phi
ENCODING 934
SWIDTH 1000 0
DWIDTH 6 0
BBX 6 7 0 0
BITMAP
30
78
D4
D4
D4
78
30
ENDCHAR
STARTCHAR Chi
ENCODING 935
SWIDTH 1000 0
DWIDTH 6 0
BBX 6 7 0 0
BITMAP
CC
CC
68
30
68
CC
CC
ENDCHAR
STARTCHAR Psi
ENCODING 936
SWIDTH 1000 0
DWIDTH 6 0
BBX 6 7 0 0
BITMAP
D4
D4
D4
D4
78
30
30
ENDCHAR
STARTCHAR Omega
ENCODING 937
SWIDTH 1000 0
DWIDTH 6 0
BBX 6 7 0 0
BITMAP
78
CC
CC
CC
CC
68
EC
ENDCHAR
STARTCHAR Iotadieresis
ENCODING 938
SWIDTH 1000 0
DWIDTH 6 0
BBX 4 9 1 0
BITMAP
D0
00
F0
60
60
60
60
60
F0
ENDCHAR
STARTCHAR Upsilondieresis
ENCODING 939
SWIDTH 1000 0
DWIDTH 6 0
BBX 6 9 0 0
BITMAP
68
00
CC
CC
68
30
30
30
30
ENDCHAR
STARTCHAR alphatonos
ENCODING 940
SWIDTH 1000 0
DWIDTH 6 0
BBX 6 8 0 0
BITMAP
18
30
00
74
DC
CC
DC
74
ENDCHAR
STARTCHAR epsilontonos
ENCODING 941
SWIDTH 1000 0
DWIDTH 6 0
BBX 6 8 0 0
BITMAP
18
30
00
78
CC
70
CC
78
ENDCHAR
STARTCHAR etatonos
ENCODING 942
SWIDTH 1000 0
DWIDTH 6 0
BBX 6 10 0 -2
BITMAP
18
30
00
D8
EC
CC
CC
CC
0C
0C
ENDCHAR
STARTCHAR iotatonos
ENCODING 943
SWIDTH 1000 0
DWIDTH 6 0
BBX 4 8 1 0
BITMAP
60
C0
00
C0
C0
C0
D0
60
ENDCHAR
STARTCHAR upsilondieresistonos
ENCODING 944
SWIDTH 1000 0
DWIDTH 6 0
BBX 6 10 0 0
BITMAP
18
30
00
68
00
CC
CC
CC
CC
78
ENDCHAR
STARTCHAR alpha
ENCODING 945
SWIDTH 1000 0
DWIDTH 6 0
BBX 6 5 0 0
BITMAP
74
DC
CC
DC
74
ENDCHAR
STARTCHAR beta
ENCODING 946
SWIDTH 1000 0
DWIDTH 6 0
BBX 6 9 0 -2
BITMAP
70
D8
D8
F8
CC
CC
F8
C0
C0
ENDCHAR
STARTCHAR gamma
ENCODING 947
SWIDTH 1000 0
DWIDTH 6 0
BBX 6 7 0 -2
BITMAP
CC
CC
68
68
30
30
30
ENDCHAR
STARTCHAR delta
ENCODING 948
SWIDTH 1000 0
DWIDTH 6 0
BBX 6 7 0 0
BITMAP
78
C0
78
CC
CC
CC
78
ENDCHAR
STARTCHAR epsilon
ENCODING 949
SWIDTH 1000 0
DWIDTH 6 0
BBX 6 5 0 0
BITMAP
78
CC
70
CC
78
ENDCHAR
STARTCHAR zeta
ENCODING 950
SWIDTH 1000 0
DWIDTH 6 0
BBX 6 8 0 -1
BITMAP
FC
30
60
60
60
38
0C
38
ENDCHAR
STARTCHAR eta
ENCODING 951
SWIDTH 1000 0
DWIDTH 6 0
BBX 6 7 0 -2
BITMAP
D8
EC
CC
CC
CC
0C
0C
ENDCHAR
STARTCHAR theta
ENCODING 952
SWIDTH 1000 0
DWIDTH 6 0
BBX 5 7 1 0
BITMAP
70
D8
D8
F8
D8
D8
70
ENDCHAR
STARTCHAR iota
ENCODING 953
SWIDTH 1000 0
DWIDTH 6 0
BBX 4 5 1 0
BITMAP
C0
C0
C0
D0
60
ENDCHAR
STARTCHAR kappa
ENCODING 954
SWIDTH 1000 0
DWIDTH 6 0
BBX 5 5 1 0
BITMAP
D8
D0
E0
D0
D8
ENDCHAR
STARTCHAR lambda
ENCODING 955
SWIDTH 1000 0
DWIDTH 6 0
BBX 6 7 0 0
BITMAP
78
CC
0C
74
DC
CC
CC
ENDCHAR
STARTCHAR mu
ENCODING 956
SWIDTH 1000 0
DWIDTH 6 0
BBX 6 7 0 -2
BITMAP
CC
CC
CC
DC
F4
C0
C0
ENDCHAR
STARTCHAR nu
ENCODING 957
SWIDTH 1000 0
DWIDTH 6 0
BBX 6 5 0 0
BITMAP
CC
CC
68
68
30
ENDCHAR
STARTCHAR xi
ENCODING 958
SWIDTH 1000 0
DWIDTH 6 0
BBX 6 9 0 -2
BITMAP
FC
30
60
78
C0
C0
78
0C
18
ENDCHAR
STARTCHAR omicron
ENCODING 959
SWIDTH 1000 0
DWIDTH 6 0
BBX 6 5 0 0
BITMAP
78
CC
CC
CC
78
ENDCHAR
STARTCHAR pi
ENCODING 960
SWIDTH 1000 0
DWIDTH 6 0
BBX 6 5 0 0
BITMAP
FC
68
68
68
68
ENDCHAR
STARTCHAR rho
ENCODING 961
SWIDTH 1000 0
DWIDTH 6 0
BBX 6 7 0 -2
BITMAP
78
CC
CC
EC
D8
C0
C0
ENDCHAR
STARTCHAR sigma1
ENCODING 962
SWIDTH 1000 0
DWIDTH 6 0
BBX 6 7 0 -2
BITMAP
78
CC
C0
C0
78
0C
38
ENDCHAR
STARTCHAR sigma
ENCODING 963
SWIDTH 1000 0
DWIDTH 6 0
BBX 6 5 0 0
BITMAP
7C
D8
CC
CC
78
ENDCHAR
STARTCHAR tau
ENCODING 964
SWIDTH 1000 0
DWIDTH 6 0
BBX 6 5 0 0
BITMAP
FC
30
30
34
18
ENDCHAR
STARTCHAR upsilon
ENCODING 965
SWIDTH 1000 0
DWIDTH 6 0
BBX 6 5 0 0
BITMAP
CC
CC
CC
CC
78
ENDCHAR
STARTCHAR phi
ENCODING 966
SWIDTH 1000 0
DWIDTH 6 0
BBX 6 7 0 -2
BITMAP
18
D4
D4
D4
78
30
30
ENDCHAR
STARTCHAR chi
ENCODING 967
SWIDTH 1000 0
DWIDTH 6 0
BBX 6 7 0 -2
BITMAP
CC
CC
68
30
68
CC
CC
ENDCHAR
STARTCHAR psi
ENCODING 968
SWIDTH 1000 0
DWIDTH 6 0
BBX 6 7 0 -2
BITMAP
D4
D4
D4
D4
78
30
30
ENDCHAR
STARTCHAR omega
ENCODING 969
SWIDTH 1000 0
DWIDTH 6 0
BBX 6 5 0 0
BITMAP
68
CC
D4
D4
68
ENDCHAR
STARTCHAR iotadieresis
ENCODING 970
SWIDTH 1000 0
DWIDTH 6 0
BBX 5 7 1 0
BITMAP
D0
00
60
60
60
68
30
ENDCHAR
STARTCHAR upsilondieresis
ENCODING 971
SWIDTH 1000 0
DWIDTH 6 0
BBX 6 7 0 0
BITMAP
68
00
CC
CC
CC
CC
78
ENDCHAR
STARTCHAR omicrontonos
ENCODING 972
SWIDTH 1000 0
DWIDTH 6 0
BBX 6 8 0 0
BITMAP
18
30
00
78
CC
CC
CC
78
ENDCHAR
STARTCHAR upsilontonos
ENCODING 973
SWIDTH 1000 0
DWIDTH 6 0
BBX 6 8 0 0
BITMAP
18
30
00
CC
CC
CC
CC
78
ENDCHAR
STARTCHAR omegatonos
ENCODING 974
SWIDTH 1000 0
DWIDTH 6 0
BBX 6 8 0 0
BITMAP
18
30
00
68
CC
D4
D4
68
ENDCHAR
STARTCHAR U+0401
ENCODING 1025
SWIDTH 545 0
DWIDTH 7 0
BBX 6 9 1 0
BITMAP
CC
00
FC
C0
C0
F0
C0
C0
FC
ENDCHAR
STARTCHAR U+0404
ENCODING 1028
SWIDTH 545 0
DWIDTH 7 0
BBX 6 8 1 0
BITMAP
78
CC
C0
F0
C0
C0
CC
78
ENDCHAR
STARTCHAR U+0406
ENCODING 1030
SWIDTH 233 0
DWIDTH 3 0
BBX 2 8 1 0
BITMAP
C0
C0
C0
C0
C0
C0
C0
C0
ENDCHAR
STARTCHAR U+0407
ENCODING 1031
SWIDTH 389 0
DWIDTH 5 0
BBX 4 9 1 0
BITMAP
90
00
60
60
60
60
60
60
60
ENDCHAR
STARTCHAR U+040E
ENCODING 1038
SWIDTH 623 0
DWIDTH 8 0
BBX 7 9 1 0
BITMAP
24
5A
46
2C
2C
18
18
D0
60
ENDCHAR
STARTCHAR U+0410
ENCODING 1040
SWIDTH 545 0
DWIDTH 7 0
BBX 6 8 1 0
BITMAP
3C
6C
CC
CC
CC
FC
CC
CC
ENDCHAR
STARTCHAR U+0411
ENCODING 1041
SWIDTH 545 0
DWIDTH 7 0
BBX 6 8 1 0
BITMAP
FC
C0
C0
F8
CC
CC
CC
F8
ENDCHAR
STARTCHAR U+0412
ENCODING 1042
SWIDTH 545 0
DWIDTH 7 0
BBX 6 8 1 0
BITMAP
F8
CC
CC
F8
CC
CC
CC
F8
ENDCHAR
STARTCHAR U+0413
ENCODING 1043
SWIDTH 545 0
DWIDTH 7 0
BBX 6 8 1 0
BITMAP
FC
C0
C0
C0
C0
C0
C0
C0
ENDCHAR
STARTCHAR U+0414
ENCODING 1044
SWIDTH 701 0
DWIDTH 9 0
BBX 8 9 1 -1
BITMAP
1E
36
66
66
66
66
66
FF
81
ENDCHAR
STARTCHAR U+0415
ENCODING 1045
SWIDTH 545 0
DWIDTH 7 0
BBX 6 8 1 0
BITMAP
FC
C0
C0
F0
C0
C0
C0
FC
ENDCHAR
STARTCHAR U+0416
ENCODING 1046
SWIDTH 545 0
DWIDTH 7 0
BBX 6 8 1 0
BITMAP
B4
B4
78
30
30
78
B4
B4
ENDCHAR
STARTCHAR U+0417
ENCODING 1047
SWIDTH 545 0
DWIDTH 7 0
BBX 6 8 1 0
BITMAP
78
CC
0C
18
0C
0C
CC
78
ENDCHAR
STARTCHAR U+0418
ENCODING 1048
SWIDTH 545 0
DWIDTH 7 0
BBX 6 8 1 0
BITMAP
CC
CC
CC
CC
DC
EC
CC
CC
ENDCHAR
STARTCHAR U+0419
ENCODING 1049
SWIDTH 545 0
DWIDTH 7 0
BBX 6 9 1 0
BITMAP
48
B4
CC
CC
CC
DC
EC
CC
CC
ENDCHAR
STARTCHAR U+041A
ENCODING 1050
SWIDTH 467 0
DWIDTH 6 0
BBX 5 8 1 0
BITMAP
C8
D8
F0
E0
E0
F0
D8
C8
ENDCHAR
STARTCHAR U+041B
ENCODING 1051
SWIDTH 623 0
DWIDTH 8 0
BBX 7 8 1 0
BITMAP
3E
66
66
66
66
66
66
C6
ENDCHAR
STARTCHAR U+041C
ENCODING 1052
SWIDTH 623 0
DWIDTH 8 0
BBX 7 8 1 0
BITMAP
C6
EE
FE
D6
C6
C6
C6
C6
ENDCHAR
STARTCHAR U+041D
ENCODING 1053
SWIDTH 545 0
DWIDTH 7 0
BBX 6 8 1 0
BITMAP
CC
CC
CC
FC
CC
CC
CC
CC
ENDCHAR
STARTCHAR U+041E
ENCODING 1054
SWIDTH 545 0
DWIDTH 7 0
BBX 6 8 1 0
BITMAP
78
CC
CC
CC
CC
CC
CC
78
ENDCHAR
STARTCHAR U+041F
ENCODING 1055
SWIDTH 545 0
DWIDTH 7 0
BBX 6 8 1 0
BITMAP
FC
CC
CC
CC
CC
CC
CC
CC
ENDCHAR
STARTCHAR U+0420
ENCODING 1056
SWIDTH 545 0
DWIDTH 7 0
BBX 6 8 1 0
BITMAP
F8
CC
CC
CC
F8
C0
C0
C0
ENDCHAR
STARTCHAR U+0421
ENCODING 1057
SWIDTH 545 0
DWIDTH 7 0
BBX 6 8 1 0
BITMAP
78
CC
C0
C0
C0
C0
CC
78
ENDCHAR
STARTCHAR U+0422
ENCODING 1058
SWIDTH 545 0
DWIDTH 7 0
BBX 6 8 1 0
BITMAP
FC
30
30
30
30
30
30
30
ENDCHAR
STARTCHAR U+0423
ENCODING 1059
SWIDTH 623 0
DWIDTH 8 0
BBX 7 8 1 0
BITMAP
46
46
2C
2C
18
18
D0
60
ENDCHAR
STARTCHAR U+0424
ENCODING 1060
SWIDTH 701 0
DWIDTH 9 0
BBX 8 8 1 0
BITMAP
18
7E
DB
DB
DB
7E
18
18
ENDCHAR
STARTCHAR U+0425
ENCODING 1061
SWIDTH 545 0
DWIDTH 7 0
BBX 6 8 1 0
BITMAP
CC
48
78
30
30
78
48
CC
ENDCHAR
STARTCHAR U+0426
ENCODING 1062
SWIDTH 623 0
DWIDTH 8 0
BBX 7 9 1 -1
BITMAP
CC
CC
CC
CC
CC
CC
CC
FE
02
ENDCHAR
STARTCHAR U+0427
ENCODING 1063
SWIDTH 545 0
DWIDTH 7 0
BBX 6 8 1 0
BITMAP
CC
CC
CC
CC
7C
0C
0C
0C
ENDCHAR
STARTCHAR U+0428
ENCODING 1064
SWIDTH 701 0
DWIDTH 9 0
BBX 8 8 1 0
BITMAP
C3
C3
DB
DB
DB
DB
DB
FF
ENDCHAR
STARTCHAR U+0429
ENCODING 1065
SWIDTH 779 0
DWIDTH 10 0
BBX 9 9 1 -1
BITMAP
C300
C300
DB00
DB00
DB00
DB00
DB00
FF80
0080
ENDCHAR
STARTCHAR U+042A
ENCODING 1066
SWIDTH 623 0
DWIDTH 8 0
BBX 7 8 1 0
BITMAP
E0
60
60
7C
66
66
66
7C
ENDCHAR
STARTCHAR U+042B
ENCODING 1067
SWIDTH 701 0
DWIDTH 9 0
BBX 8 8 1 0
BITMAP
C3
C3
C3
FB
CF
CF
CF
FB
ENDCHAR
STARTCHAR U+042C
ENCODING 1068
SWIDTH 545 0
DWIDTH 7 0
BBX 6 8 1 0
BITMAP
C0
C0
C0
F8
CC
CC
CC
F8
ENDCHAR
STARTCHAR U+042D
ENCODING 1069
SWIDTH 545 0
DWIDTH 7 0
BBX 6 8 1 0
BITMAP
78
CC
0C
3C
0C
0C
CC
78
ENDCHAR
STARTCHAR U+042E
ENCODING 1070
SWIDTH 701 0
DWIDTH 9 0
BBX 8 8 1 0
BITMAP
CE
DB
DB
FB
DB
DB
DB
CE
ENDCHAR
STARTCHAR U+042F
ENCODING 1071
SWIDTH 545 0
DWIDTH 7 0
BBX 6 8 1 0
BITMAP
7C
CC
CC
CC
7C
CC
CC
CC
ENDCHAR
STARTCHAR U+0430
ENCODING 1072
SWIDTH 623 0
DWIDTH 8 0
BBX 7 6 1 0
BITMAP
78
0C
7C
CC
CC
7A
ENDCHAR
STARTCHAR U+0431
ENCODING 1073
SWIDTH 545 0
DWIDTH 7 0
BBX 6 8 1 0
BITMAP
04
78
C0
F8
CC
CC
CC
78
ENDCHAR
STARTCHAR U+0432
ENCODING 1074
SWIDTH 545 0
DWIDTH 7 0
BBX 6 8 1 0
BITMAP
70
D8
D8
F0
F8
CC
CC
78
ENDCHAR
STARTCHAR U+0433
ENCODING 1075
SWIDTH 467 0
DWIDTH 6 0
BBX 5 6 1 0
BITMAP
F8
C0
C0
C0
C0
C0
ENDCHAR
STARTCHAR U+0434
ENCODING 1076
SWIDTH 701 0
DWIDTH 9 0
BBX 8 7 1 -1
BITMAP
3E
66
66
66
66
FF
81
ENDCHAR
STARTCHAR U+0435
ENCODING 1077
SWIDTH 545 0
DWIDTH 7 0
BBX 6 6 1 0
BITMAP
78
CC
FC
C0
CC
78
ENDCHAR
STARTCHAR U+0436
ENCODING 1078
SWIDTH 545 0
DWIDTH 7 0
BBX 6 6 1 0
BITMAP
B4
FC
30
78
FC
B4
ENDCHAR
STARTCHAR U+0437
ENCODING 1079
SWIDTH 545 0
DWIDTH 7 0
BBX 6 6 1 0
BITMAP
78
CC
18
0C
CC
78
ENDCHAR
STARTCHAR U+0438
ENCODING 1080
SWIDTH 545 0
DWIDTH 7 0
BBX 6 6 1 0
BITMAP
CC
CC
CC
CC
CC
74
ENDCHAR
STARTCHAR U+0439
ENCODING 1081
SWIDTH 545 0
DWIDTH 7 0
BBX 6 8 1 0
BITMAP
48
30
CC
CC
CC
CC
CC
74
ENDCHAR
STARTCHAR U+043A
ENCODING 1082
SWIDTH 467 0
DWIDTH 6 0
BBX 5 6 1 0
BITMAP
D8
D8
E0
F0
D8
D8
ENDCHAR
STARTCHAR U+043B
ENCODING 1083
SWIDTH 623 0
DWIDTH 8 0
BBX 7 6 1 0
BITMAP
3E
66
66
66
66
C6
ENDCHAR
STARTCHAR U+043C
ENCODING 1084
SWIDTH 623 0
DWIDTH 8 0
BBX 7 6 1 0
BITMAP
C6
EE
D6
C6
C6
C6
ENDCHAR
STARTCHAR U+043D
ENCODING 1085
SWIDTH 545 0
DWIDTH 7 0
BBX 6 6 1 0
BITMAP
CC
CC
FC
CC
CC
CC
ENDCHAR
STARTCHAR U+043E
ENCODING 1086
SWIDTH 545 0
DWIDTH 7 0
BBX 6 6 1 0
BITMAP
78
CC
CC
CC
CC
78
ENDCHAR
STARTCHAR U+043F
ENCODING 1087
SWIDTH 545 0
DWIDTH 7 0
BBX 6 6 1 0
BITMAP
F8
CC
CC
CC
CC
CC
ENDCHAR
STARTCHAR U+0440
ENCODING 1088
SWIDTH 545 0
DWIDTH 7 0
BBX 6 6 1 0
BITMAP
78
CC
CC
F8
C0
C0
ENDCHAR
STARTCHAR U+0441
ENCODING 1089
SWIDTH 545 0
DWIDTH 7 0
BBX 6 6 1 0
BITMAP
78
CC
C0
C0
CC
78
ENDCHAR
STARTCHAR U+0442
ENCODING 1090
SWIDTH 545 0
DWIDTH 7 0
BBX 6 6 1 0
BITMAP
FC
30
30
30
30
30
ENDCHAR
STARTCHAR U+0443
ENCODING 1091
SWIDTH 545 0
DWIDTH 7 0
BBX 6 8 1 -2
BITMAP
CC
CC
CC
CC
7C
0C
CC
78
ENDCHAR
STARTCHAR U+0444
ENCODING 1092
SWIDTH 701 0
DWIDTH 9 0
BBX 8 6 1 0
BITMAP
18
7E
DB
DB
7E
18
ENDCHAR
STARTCHAR U+0445
ENCODING 1093
SWIDTH 545 0
DWIDTH 7 0
BBX 6 6 1 0
BITMAP
CC
78
30
30
78
CC
ENDCHAR
STARTCHAR U+0446
ENCODING 1094
SWIDTH 623 0
DWIDTH 8 0
BBX 7 7 1 -1
BITMAP
CC
CC
CC
CC
CC
7E
02
ENDCHAR
STARTCHAR U+0447
ENCODING 1095
SWIDTH 545 0
DWIDTH 7 0
BBX 6 6 1 0
BITMAP
CC
CC
CC
7C
0C
0C
ENDCHAR
STARTCHAR U+0448
ENCODING 1096
SWIDTH 701 0
DWIDTH 9 0
BBX 8 6 1 0
BITMAP
DB
DB
DB
DB
DB
7F
ENDCHAR
STARTCHAR U+0449
ENCODING 1097
SWIDTH 701 0
DWIDTH 9 0
BBX 9 7 1 -1
BITMAP
DB00
DB00
DB00
DB00
DB00
7F80
0080
ENDCHAR
STARTCHAR U+044A
ENCODING 1098
SWIDTH 545 0
DWIDTH 7 0
BBX 6 6 1 0
BITMAP
E0
60
78
6C
6C
38
ENDCHAR
STARTCHAR U+044B
ENCODING 1099
SWIDTH 623 0
DWIDTH 8 0
BBX 7 6 1 0
BITMAP
C6
C6
F6
DE
DE
76
ENDCHAR
STARTCHAR U+044C
ENCODING 1100
SWIDTH 467 0
DWIDTH 6 0
BBX 5 6 1 0
BITMAP
C0
C0
F0
D8
D8
70
ENDCHAR
STARTCHAR U+044D
ENCODING 1101
SWIDTH 467 0
DWIDTH 6 0
BBX 5 6 1 0
BITMAP
70
D8
18
38
98
70
ENDCHAR
STARTCHAR U+044E
ENCODING 1102
SWIDTH 701 0
DWIDTH 9 0
BBX 8 6 1 0
BITMAP
CE
DB
DB
FB
DB
CE
ENDCHAR
STARTCHAR U+044F
ENCODING 1103
SWIDTH 545 0
DWIDTH 7 0
BBX 6 6 1 0
BITMAP
78
CC
CC
7C
CC
CC
ENDCHAR
STARTCHAR U+0451
ENCODING 1105
SWIDTH 545 0
DWIDTH 7 0
BBX 6 8 1 0
BITMAP
48
00
78
CC
FC
C0
CC
78
ENDCHAR
STARTCHAR U+0454
ENCODING 1108
SWIDTH 545 0
DWIDTH 7 0
BBX 6 6 1 0
BITMAP
78
CC
C0
F0
C4
78
ENDCHAR
STARTCHAR U+0456
ENCODING 1110
SWIDTH 233 0
DWIDTH 3 0
BBX 2 8 1 0
BITMAP
C0
00
C0
C0
C0
C0
C0
C0
ENDCHAR
STARTCHAR U+0457
ENCODING 1111
SWIDTH 389 0
DWIDTH 5 0
BBX 4 8 1 0
BITMAP
90
00
60
60
60
60
60
60
ENDCHAR
STARTCHAR U+045E
ENCODING 1118
SWIDTH 545 0
DWIDTH 7 0
BBX 6 10 1 -2
BITMAP
48
30
CC
CC
CC
CC
7C
0C
CC
78
ENDCHAR
STARTCHAR U+0490
ENCODING 1168
SWIDTH 545 0
DWIDTH 7 0
BBX 6 9 1 0
BITMAP
04
FC
C0
C0
C0
C0
C0
C0
C0
ENDCHAR
STARTCHAR U+0491
ENCODING 1169
SWIDTH 467 0
DWIDTH 6 0
BBX 5 8 1 0
BITMAP
08
F8
C0
C0
C0
C0
C0
C0
ENDCHAR
STARTCHAR uniAC00
ENCODING 44032
SWIDTH 960 0
DWIDTH 12 0
BBX 12 11 0 -1
BITMAP
7E40
0240
0240
0240
0270
0440
0440
0840
7040
0040
0040
ENDCHAR
STARTCHAR uniAC01
ENCODING 44033
SWIDTH 960 0
DWIDTH 12 0
BBX 12 11 0 -1
BITMAP
7E40
0240
0270
0440
1840
6040
0000
3FC0
0040
0040
0040
ENDCHAR
STARTCHAR uniAC02
ENCODING 44034
SWIDTH 960 0
DWIDTH 12 0
BBX 12 11 0 -1
BITMAP
7E40
0240
0270
0440
1840
6040
0000
3FC0
0440
0440
0440
ENDCHAR
STARTCHAR uniAC03
ENCODING 44035
SWIDTH 960 0
DWIDTH 12 0
BBX 12 11 0 -1
BITMAP
7E40
0240
0270
0440
1840
6040
0000
3C80
0480
0540
0220
ENDCHAR
STARTCHAR uniAC04
ENCODING 44036
SWIDTH 960 0
DWIDTH 12 0
BBX 12 11 0 -1
BITMAP
7E40
0240
0270
0440
1840
6040
0040
2000
2000
2000
1FC0
ENDCHAR
STARTCHAR uniAC05
ENCODING 44037
SWIDTH 960 0
DWIDTH 12 0
BBX 12 11 0 -1
BITMAP
7E40
0240
0270
0440
1840
6040
0000
27C0
2100
2280
1C60
ENDCHAR
STARTCHAR uniAC06
ENCODING 44038
SWIDTH 960 0
DWIDTH 12 0
BBX 12 11 0 -1
BITMAP
7E40
0240
0270
0440
1840
6040
0100
27E0
2240
2240
1D80
ENDCHAR
STARTCHAR uniAC07
ENCODING 44039
SWIDTH 960 0
DWIDTH 12 0
BBX 12 11 0 -1
BITMAP
7E40
0240
0270
0440
1840
6040
0000
3FC0
2000
2000
1FC0
ENDCHAR
STARTCHAR uniAC08
ENCODING 44040
SWIDTH 960 0
DWIDTH 12 0
BBX 12 11 0 -1
BITMAP
7E40
0240
0470
1840
6040
0040
3FC0
0040
3FC0
2000
1FC0
ENDCHAR
STARTCHAR uniAC09
ENCODING 44041
SWIDTH 960 0
DWIDTH 12 0
BBX 12 11 0 -1
BITMAP
7E40
0240
0470
1840
6040
0040
3FC0
0440
3C40
2040
1C40
ENDCHAR
STARTCHAR uniAC0A
ENCODING 44042
SWIDTH 960 0
DWIDTH 12 0
BBX 12 11 0 -1
BITMAP
7E40
0240
0470
1840
6040
0040
3DC0
0540
3D40
2140
1FC0
ENDCHAR
STARTCHAR uniAC0B
ENCODING 44043
SWIDTH 960 0
DWIDTH 12 0
BBX 12 11 0 -1
BITMAP
7E40
0240
0470
1840
6040
0040
3A40
0A40
3BC0
2240
1FC0
ENDCHAR
STARTCHAR uniAC0C
ENCODING 44044
SWIDTH 960 0
DWIDTH 12 0
BBX 12 11 0 -1
BITMAP
7E40
0240
0470
1840
6040
0040
3C80
0480
3D40
2220
1C10
ENDCHAR
STARTCHAR uniAC0D
ENCODING 44045
SWIDTH 960 0
DWIDTH 12 0
BBX 12 11 0 -1
BITMAP
7E40
0240
0470
1840
6040
0040
3BC0
0A00
3BC0
2200
1FC0
ENDCHAR
STARTCHAR uniAC0E
ENCODING 44046
SWIDTH 960 0
DWIDTH 12 0
BBX 12 11 0 -1
BITMAP
7E40
0240
0470
1840
6040
0040
3BE0
0940
3940
2140
1FE0
ENDCHAR
STARTCHAR uniAC0F
ENCODING 44047
SWIDTH 960 0
DWIDTH 12 0
BBX 12 11 0 -1
BITMAP
7E40
0240
0470
1840
6040
0040
7880
0FE0
7A40
4240
3980
ENDCHAR
STARTCHAR uniAC10
ENCODING 44048
SWIDTH 960 0
DWIDTH 12 0
BBX 12 11 0 -1
BITMAP
7E40
0240
0270
0440
1840
6040
0000
3FC0
2040
2040
1FC0
ENDCHAR
STARTCHAR uniAC11
ENCODING 44049
SWIDTH 960 0
DWIDTH 12 0
BBX 12 11 0 -1
BITMAP
7E40
0240
0270
0440
1840
6040
0000
2040
3FC0
2040
1FC0
ENDCHAR
STARTCHAR uniAC12
ENCODING 44050
SWIDTH 960 0
DWIDTH 12 0
BBX 12 11 0 -1
BITMAP
7E40
0240
0270
0440
1840
6040
0000
2480
3C80
2540
1E20
ENDCHAR
STARTCHAR uniAC13
ENCODING 44051
SWIDTH 960 0
DWIDTH 12 0
BBX 12 11 0 -1
BITMAP
7E40
0240
0270
0440
1840
6040
0000
0100
0280
0C40
3020
ENDCHAR
STARTCHAR uniAC14
ENCODING 44052
SWIDTH 960 0
DWIDTH 12 0
BBX 12 11 0 -1
BITMAP
7E40
0240
0270
0440
1840
6040
0000
0880
0880
1540
2220
ENDCHAR
STARTCHAR uniAC15
ENCODING 44053
SWIDTH 960 0
DWIDTH 12 0
BBX 12 11 0 -1
BITMAP
7E40
0240
0270
0440
1840
6040
0000
1F80
2040
2040
1F80
ENDCHAR
STARTCHAR uniAC16
ENCODING 44054
SWIDTH 960 0
DWIDTH 12 0
BBX 12 11 0 -1
BITMAP
7E40
0240
0270
0440
1840
6040
0000
3FE0
0100
0680
3860
ENDCHAR
STARTCHAR uniAC17
ENCODING 44055
SWIDTH 960 0
DWIDTH 12 0
BBX 12 11 0 -1
BITMAP
7E40
0240
0470
1840
6040
0040
0100
3FE0
0100
0680
3860
ENDCHAR
STARTCHAR uniAC18
ENCODING 44056
SWIDTH 960 0
DWIDTH 12 0
BBX 12 11 0 -1
BITMAP
7E40
0240
0470
1840
6040
0040
3FC0
2000
3FC0
2000
1FC0
ENDCHAR
STARTCHAR uniAC19
ENCODING 44057
SWIDTH 960 0
DWIDTH 12 0
BBX 12 11 0 -1
BITMAP
7E40
0240
0470
1840
6040
0040
3FC0
2000
3FC0
2000
1FC0
ENDCHAR
STARTCHAR uniAC1A
ENCODING 44058
SWIDTH 960 0
DWIDTH 12 0
BBX 12 11 0 -1
BITMAP
7E40
0240
0270
0440
1840
6040
0000
3FE0
0880
0880
3FE0
ENDCHAR
STARTCHAR uniAC1B
ENCODING 44059
SWIDTH 960 0
DWIDTH 12 0
BBX 12 11 0 -1
BITMAP
7E40
0240
0470
1840
6040
0040
0700
0000
7FE0
1040
0F80
ENDCHAR
STARTCHAR uniAC1C
ENCODING 44060
SWIDTH 960 0
DWIDTH 12 0
BBX 12 11 0 -1
BITMAP
7D20
0520
0520
0520
0520
09E0
0920
1120
6120
0120
0120
ENDCHAR
STARTCHAR uniAC1D
ENCODING 44061
SWIDTH 960 0
DWIDTH 12 0
BBX 12 11 0 -1
BITMAP
7D20
0520
05E0
0520
1920
6120
0000
1FE0
0020
0020
0020
ENDCHAR
STARTCHAR uniAC1E
ENCODING 44062
SWIDTH 960 0
DWIDTH 12 0
BBX 12 11 0 -1
BITMAP
7D20
0520
05E0
0520
1920
6120
0000
1FE0
0220
0220
0220
ENDCHAR
STARTCHAR uniAC1F
ENCODING 44063
SWIDTH 960 0
DWIDTH 12 0
BBX 12 11 0 -1
BITMAP
7D20
0520
05E0
0520
1920
6120
0000
3C80
0480
0540
0220
ENDCHAR
STARTCHAR uniAC20
ENCODING 44064
SWIDTH 960 0
DWIDTH 12 0
BBX 12 11 0 -1
BITMAP
7D20
0520
05E0
0520
1920
6120
0020
2000
2000
2000
1FE0
ENDCHAR
STARTCHAR uniAC21
ENCODING 44065
SWIDTH 960 0
DWIDTH 12 0
BBX 12 11 0 -1
BITMAP
7D20
0520
05E0
0520
1920
6120
0000
23E0
2080
2140
1E30
ENDCHAR
STARTCHAR uniAC22
ENCODING 44066
SWIDTH 960 0
DWIDTH 12 0
BBX 12 11 0 -1
BITMAP
7D20
0520
05E0
0520
1920
6120
0080
23F0
2120
2120
1CC0
ENDCHAR
STARTCHAR uniAC23
ENCODING 44067
SWIDTH 960 0
DWIDTH 12 0
BBX 12 11 0 -1
BITMAP
7D20
0520
05E0
0520
1920
6120
0000
3FE0
2000
2000
1FE0
ENDCHAR
STARTCHAR uniAC24
ENCODING 44068
SWIDTH 960 0
DWIDTH 12 0
BBX 12 11 0 -1
BITMAP
7D20
0520
05E0
1920
6120
0120
3FE0
0020
3FE0
2000
1FE0
ENDCHAR
STARTCHAR uniAC25
ENCODING 44069
SWIDTH 960 0
DWIDTH 12 0
BBX 12 11 0 -1
BITMAP
7D20
0520
05E0
1920
6120
0120
3DE0
0420
3C20
2020
1E20
ENDCHAR
STARTCHAR uniAC26
ENCODING 44070
SWIDTH 960 0
DWIDTH 12 0
BBX 12 11 0 -1
BITMAP
7D20
0520
05E0
1920
6120
0120
3DE0
0520
3D20
2120
1FE0
ENDCHAR
STARTCHAR uniAC27
ENCODING 44071
SWIDTH 960 0
DWIDTH 12 0
BBX 12 11 0 -1
BITMAP
7D20
0520
05E0
1920
6120
0120
3D20
0520
3DE0
2120
1FE0
ENDCHAR
STARTCHAR uniAC28
ENCODING 44072
SWIDTH 960 0
DWIDTH 12 0
BBX 12 11 0 -1
BITMAP
7D20
0520
05E0
1920
6120
0120
3C80
0480
3D40
2220
1C10
ENDCHAR
STARTCHAR uniAC29
ENCODING 44073
SWIDTH 960 0
DWIDTH 12 0
BBX 12 11 0 -1
BITMAP
7D20
0520
05E0
1920
6120
0120
3DE0
0500
3DE0
2100
1FE0
ENDCHAR
STARTCHAR uniAC2A
ENCODING 44074
SWIDTH 960 0
DWIDTH 12 0
BBX 12 11 0 -1
BITMAP
7D20
0520
05E0
1920
6120
0120
3BE0
0940
3940
2140
1FE0
ENDCHAR
STARTCHAR uniAC2B
ENCODING 44075
SWIDTH 960 0
DWIDTH 12 0
BBX 12 11 0 -1
BITMAP
7D20
0520
05E0
1920
6120
0120
3880
0FE0
3A40
2240
1980
ENDCHAR
STARTCHAR uniAC2C
ENCODING 44076
SWIDTH 960 0
DWIDTH 12 0
BBX 12 11 0 -1
BITMAP
7D20
0520
05E0
0520
1920
6120
0000
3FE0
2020
2020
1FE0
ENDCHAR
STARTCHAR uniAC2D
ENCODING 44077
SWIDTH 960 0
DWIDTH 12 0
BBX 12 11 0 -1
BITMAP
7D20
0520
05E0
0520
1920
6120
0000
2020
3FE0
2020
1FE0
ENDCHAR
STARTCHAR uniAC2E
ENCODING 44078
SWIDTH 960 0
DWIDTH 12 0
BBX 12 11 0 -1
BITMAP
7D20
0520
05E0
0520
1920
6120
0000
2480
3D40
2620
1C10
ENDCHAR
STARTCHAR uniAC2F
ENCODING 44079
SWIDTH 960 0
DWIDTH 12 0
BBX 12 11 0 -1
BITMAP
7D20
0520
05E0
0520
1920
6120
0000
0080
0080
0340
1C30
ENDCHAR
STARTCHAR uniAC30
ENCODING 44080
SWIDTH 960 0
DWIDTH 12 0
BBX 12 11 0 -1
BITMAP
7D20
0520
05E0
0520
1920
6120
0000
0840
0840
14A0
2310
ENDCHAR
STARTCHAR uniAC31
ENCODING 44081
SWIDTH 960 0
DWIDTH 12 0
BBX 12 11 0 -1
BITMAP
7D20
0520
05E0
0520
1920
6120
0000
1FC0
2020
2020
1FC0
ENDCHAR
STARTCHAR uniAC32
ENCODING 44082
SWIDTH 960 0
DWIDTH 12 0
BBX 12 11 0 -1
BITMAP
7D20
0520
05E0
0520
1920
6120
0000
3FE0
0100
0680
3860
ENDCHAR
STARTCHAR uniAC33
ENCODING 44083
SWIDTH 960 0
DWIDTH 12 0
BBX 12 11 0 -1
BITMAP
7D20
0520
05E0
1920
6120
0120
0080
3FE0
0100
0680
3860
ENDCHAR
STARTCHAR uniAC34
ENCODING 44084
SWIDTH 960 0
DWIDTH 12 0
BBX 12 11 0 -1
BITMAP
7D20
0520
05E0
1920
6120
0120
3FE0
2000
3FE0
2000
1FE0
ENDCHAR
STARTCHAR uniAC35
ENCODING 44085
SWIDTH 960 0
DWIDTH 12 0
BBX 12 11 0 -1
BITMAP
7D20
0520
05E0
1920
6120
0120
3FE0
2000
3FE0
2000
1FE0
ENDCHAR
STARTCHAR uniAC36
ENCODING 44086
SWIDTH 960 0
DWIDTH 12 0
BBX 12 11 0 -1
BITMAP
7D20
0520
05E0
0520
1920
6120
0000
3FE0
0880
0880
3FE0
ENDCHAR
STARTCHAR uniAC37
ENCODING 44087
SWIDTH 960 0
DWIDTH 12 0
BBX 12 11 0 -1
BITMAP
7D20
0520
05E0
1920
6120
0120
0700
0000
3FE0
1040
0F80
ENDCHAR
STARTCHAR uniAC38
ENCODING 44088
SWIDTH 960 0
DWIDTH 12 0
BBX 12 11 0 -1
BITMAP
7E40
0240
0270
0240
0240
0440
0470
0840
7040
0040
0040
ENDCHAR
STARTCHAR uniAC39
ENCODING 44089
SWIDTH 960 0
DWIDTH 12 0
BBX 12 11 0 -1
BITMAP
7E40
0270
0240
0470
1840
6040
0000
3FC0
0040
0040
0040
ENDCHAR
STARTCHAR uniAC3A
ENCODING 44090
SWIDTH 960 0
DWIDTH 12 0
BBX 12 11 0 -1
BITMAP
7E40
0270
0240
0470
1840
6040
0000
3FC0
0440
0440
0440
ENDCHAR
STARTCHAR uniAC3B
ENCODING 44091
SWIDTH 960 0
DWIDTH 12 0
BBX 12 11 0 -1
BITMAP
7E40
0270
0240
0470
1840
6040
0000
3C80
0480
0540
0220
ENDCHAR
STARTCHAR uniAC3C
ENCODING 44092
SWIDTH 960 0
DWIDTH 12 0
BBX 12 11 0 -1
BITMAP
7E40
0270
0240
0470
1840
6040
0040
2000
2000
2000
1FC0
ENDCHAR
STARTCHAR uniAC3D
ENCODING 44093
SWIDTH 960 0
DWIDTH 12 0
BBX 12 11 0 -1
BITMAP
7E40
0270
0240
0470
1840
6040
0000
27C0
2100
2280
1C60
ENDCHAR
STARTCHAR uniAC3E
ENCODING 44094
SWIDTH 960 0
DWIDTH 12 0
BBX 12 11 0 -1
BITMAP
7E40
0270
0240
0470
1840
6040
0100
27E0
2240
2240
1D80
ENDCHAR
STARTCHAR uniAC3F
ENCODING 44095
SWIDTH 960 0
DWIDTH 12 0
BBX 12 11 0 -1
BITMAP
7E40
0270
0240
0470
1840
6040
0000
3FC0
2000
2000
1FC0
ENDCHAR
STARTCHAR uniAC40
ENCODING 44096
SWIDTH 960 0
DWIDTH 12 0
BBX 12 11 0 -1
BITMAP
7E40
0270
0440
1870
6040
0040
3FC0
0040
3FC0
2000
1FC0
ENDCHAR
STARTCHAR uniAC41
ENCODING 44097
SWIDTH 960 0
DWIDTH 12 0
BBX 12 11 0 -1
BITMAP
7E40
0270
0440
1870
6040
0040
3FC0
0440
3C40
2040
1C40
ENDCHAR
STARTCHAR uniAC42
ENCODING 44098
SWIDTH 960 0
DWIDTH 12 0
BBX 12 11 0 -1
BITMAP
7E40
0270
0440
1870
6040
0040
3DC0
0540
3D40
2140
1FC0
ENDCHAR
STARTCHAR uniAC43
ENCODING 44099
SWIDTH 960 0
DWIDTH 12 0
BBX 12 11 0 -1
BITMAP
7E40
0270
0440
1870
6040
0040
3A40
0A40
3BC0
2240
1FC0
ENDCHAR
STARTCHAR uniAC44
ENCODING 44100
SWIDTH 960 0
DWIDTH 12 0
BBX 12 11 0 -1
BITMAP
7E40
0270
0440
1870
6040
0040
3C80
0480
3D40
2220
1C10
ENDCHAR
STARTCHAR uniAC45
ENCODING 44101
SWIDTH 960 0
DWIDTH 12 0
BBX 12 11 0 -1
BITMAP
7E40
0270
0440
1870
6040
0040
3BC0
0A00
3BC0
2200
1FC0
ENDCHAR
STARTCHAR uniAC46
ENCODING 44102
SWIDTH 960 0
DWIDTH 12 0
BBX 12 11 0 -1
BITMAP
7E40
0270
0440
1870
6040
0040
3BE0
0940
3940
2140
1FE0
ENDCHAR
STARTCHAR uniAC47
ENCODING 44103
SWIDTH 960 0
DWIDTH 12 0
BBX 12 11 0 -1
BITMAP
7E40
0270
0440
1870
6040
0040
7880
0FE0
7A40
4240
3980
ENDCHAR
STARTCHAR uniAC48
ENCODING 44104
SWIDTH 960 0
DWIDTH 12 0
BBX 12 11 0 -1
BITMAP
7E40
0270
0240
0470
1840
6040
0000
3FC0
2040
2040
1FC0
ENDCHAR
STARTCHAR uniAC49
ENCODING 44105
SWIDTH 960 0
DWIDTH 12 0
BBX 12 11 0 -1
BITMAP
7E40
0270
0240
0470
1840
6040
0000
2040
3FC0
2040
1FC0
ENDCHAR
STARTCHAR uniAC4A
ENCODING 44106
SWIDTH 960 0
DWIDTH 12 0
BBX 12 11 0 -1
BITMAP
7E40
0270
0240
0470
1840
6040
0000
2480
3C80
2540
1E20
ENDCHAR
STARTCHAR uniAC4B
ENCODING 44107
SWIDTH 960 0
DWIDTH 12 0
BBX 12 11 0 -1
BITMAP
7E40
0270
0240
0470
1840
6040
0000
0100
0280
0C40
3020
ENDCHAR
STARTCHAR uniAC4C
ENCODING 44108
SWIDTH 960 0
DWIDTH 12 0
BBX 12 11 0 -1
BITMAP
7E40
0270
0240
0470
1840
6040
0000
0880
0880
1540
2220
ENDCHAR
STARTCHAR uniAC4D
ENCODING 44109
SWIDTH 960 0
DWIDTH 12 0
BBX 12 11 0 -1
BITMAP
7E40
0270
0240
0470
1840
6040
0000
1F80
2040
2040
1F80
ENDCHAR
STARTCHAR uniAC4E
ENCODING 44110
SWIDTH 960 0
DWIDTH 12 0
BBX 12 11 0 -1
BITMAP
7E40
0270
0240
0470
1840
6040
0000
3FE0
0100
0680
3860
ENDCHAR
STARTCHAR uniAC4F
ENCODING 44111
SWIDTH 960 0
DWIDTH 12 0
BBX 12 11 0 -1
BITMAP
7E40
0270
0440
1870
6040
0040
0100
3FE0
0100
0680
3860
ENDCHAR
STARTCHAR uniAC50
ENCODING 44112
SWIDTH 960 0
DWIDTH 12 0
BBX 12 11 0 -1
BITMAP
7E40
0270
0440
1870
6040
0040
3FC0
2000
3FC0
2000
1FC0
ENDCHAR
STARTCHAR uniAC51
ENCODING 44113
SWIDTH 960 0
DWIDTH 12 0
BBX 12 11 0 -1
BITMAP
7E40
0270
0440
1870
6040
0040
3FC0
2000
3FC0
2000
1FC0
ENDCHAR
STARTCHAR uniAC52
ENCODING 44114
SWIDTH 960 0
DWIDTH 12 0
BBX 12 11 0 -1
BITMAP
7E40
0270
0240
0470
1840
6040
0000
3FE0
0880
0880
3FE0
ENDCHAR
STARTCHAR uniAC53
ENCODING 44115
SWIDTH 960 0
DWIDTH 12 0
BBX 12 11 0 -1
BITMAP
7E40
0270
0440
1870
6040
0040
0700
0000
7FE0
1040
0F80
ENDCHAR
STARTCHAR uniAC54
ENCODING 44116
SWIDTH 960 0
DWIDTH 12 0
BBX 12 11 0 -1
BITMAP
7D20
0520
05E0
0520
0520
0920
09E0
1120
6120
0120
0120
ENDCHAR
STARTCHAR uniAC55
ENCODING 44117
SWIDTH 960 0
DWIDTH 12 0
BBX 12 11 0 -1
BITMAP
7D20
0520
05E0
0520
1920
6120
0000
1FE0
0020
0020
0020
ENDCHAR
STARTCHAR uniAC56
ENCODING 44118
SWIDTH 960 0
DWIDTH 12 0
BBX 12 11 0 -1
BITMAP
7D20
0520
05E0
0520
1920
6120
0000
1FE0
0220
0220
0220
ENDCHAR
STARTCHAR uniAC57
ENCODING 44119
SWIDTH 960 0
DWIDTH 12 0
BBX 12 11 0 -1
BITMAP
7D20
0520
05E0
0520
1920
6120
0000
3C80
0480
0540
0220
ENDCHAR
STARTCHAR uniAC58
ENCODING 44120
SWIDTH 960 0
DWIDTH 12 0
BBX 12 11 0 -1
BITMAP
7D20
0520
05E0
0520
1920
6120
0020
2000
2000
2000
1FE0
ENDCHAR
STARTCHAR uniAC59
ENCODING 44121
SWIDTH 960 0
DWIDTH 12 0
BBX 12 11 0 -1
BITMAP
7D20
0520
05E0
0520
1920
6120
0000
23E0
2080
2140
1E30
ENDCHAR
STARTCHAR uniAC5A
ENCODING 44122
SWIDTH 960 0
DWIDTH 12 0
BBX 12 11 0 -1
BITMAP
7D20
0520
05E0
0520
1920
6120
0080
23F0
2120
2120
1CC0
ENDCHAR
STARTCHAR uniAC5B
ENCODING 44123
SWIDTH 960 0
DWIDTH 12 0
BBX 12 11 0 -1
BITMAP
7D20
0520
05E0
0520
1920
6120
0000
3FE0
2000
2000
1FE0
ENDCHAR
STARTCHAR uniAC5C
ENCODING 44124
SWIDTH 960 0
DWIDTH 12 0
BBX 12 11 0 -1
BITMAP
7D20
0520
05E0
1920
6120
0120
3FE0
0020
3FE0
2000
1FE0
ENDCHAR
STARTCHAR uniAC5D
ENCODING 44125
SWIDTH 960 0
DWIDTH 12 0
BBX 12 11 0 -1
BITMAP
7D20
0520
05E0
1920
6120
0120
3DE0
0420
3C20
2020
1E20
ENDCHAR
STARTCHAR uniAC5E
ENCODING 44126
SWIDTH 960 0
DWIDTH 12 0
BBX 12 11 0 -1
BITMAP
7D20
0520
05E0
1920
6120
0120
3DE0
0520
3D20
2120
1FE0
ENDCHAR
STARTCHAR uniAC5F
ENCODING 44127
SWIDTH 960 0
DWIDTH 12 0
BBX 12 11 0 -1
BITMAP
7D20
0520
05E0
1920
6120
0120
3D20
0520
3DE0
2120
1FE0
ENDCHAR
STARTCHAR uniAC60
ENCODING 44128
SWIDTH 960 0
DWIDTH 12 0
BBX 12 11 0 -1
BITMAP
7D20
0520
05E0
1920
6120
0120
3C80
0480
3D40
2220
1C10
ENDCHAR
STARTCHAR uniAC61
ENCODING 44129
SWIDTH 960 0
DWIDTH 12 0
BBX 12 11 0 -1
BITMAP
7D20
0520
05E0
1920
6120
0120
3DE0
0500
3DE0
2100
1FE0
ENDCHAR
STARTCHAR uniAC62
ENCODING 44130
SWIDTH 960 0
DWIDTH 12 0
BBX 12 11 0 -1
BITMAP
7D20
0520
05E0
1920
6120
0120
3BE0
0940
3940
2140
1FE0
ENDCHAR
STARTCHAR uniAC63
ENCODING 44131
SWIDTH 960 0
DWIDTH 12 0
BBX 12 11 0 -1
BITMAP
7D20
0520
05E0
1920
6120
0120
3880
0FE0
3A40
2240
1980
ENDCHAR
STARTCHAR uniAC64
ENCODING 44132
SWIDTH 960 0
DWIDTH 12 0
BBX 12 11 0 -1
BITMAP
7D20
0520
05E0
0520
1920
6120
0000
3FE0
2020
2020
1FE0
ENDCHAR
STARTCHAR uniAC65
ENCODING 44133
SWIDTH 960 0
DWIDTH 12 0
BBX 12 11 0 -1
BITMAP
7D20
0520
05E0
0520
1920
6120
0000
2020
3FE0
2020
1FE0
ENDCHAR
STARTCHAR uniAC66
ENCODING 44134
SWIDTH 960 0
DWIDTH 12 0
BBX 12 11 0 -1
BITMAP
7D20
0520
05E0
0520
1920
6120
0000
2480
3D40
2620
1C10
ENDCHAR
STARTCHAR uniAC67
ENCODING 44135
SWIDTH 960 0
DWIDTH 12 0
BBX 12 11 0 -1
BITMAP
7D20
0520
05E0
0520
1920
6120
0000
0080
0080
0340
1C30
ENDCHAR
STARTCHAR uniAC68
ENCODING 44136
SWIDTH 960 0
DWIDTH 12 0
BBX 12 11 0 -1
BITMAP
7D20
0520
05E0
0520
1920
6120
0000
0840
0840
14A0
2310
ENDCHAR
STARTCHAR uniAC69
ENCODING 44137
SWIDTH 960 0
DWIDTH 12 0
BBX 12 11 0 -1
BITMAP
7D20
0520
05E0
0520
1920
6120
0000
1FC0
2020
2020
1FC0
ENDCHAR
STARTCHAR uniAC6A
ENCODING 44138
SWIDTH 960 0
DWIDTH 12 0
BBX 12 11 0 -1
BITMAP
7D20
0520
05E0
0520
1920
6120
0000
3FE0
0100
0680
3860
ENDCHAR
STARTCHAR uniAC6B
ENCODING 44139
SWIDTH 960 0
DWIDTH 12 0
BBX 12 11 0 -1
BITMAP
7D20
0520
05E0
1920
6120
0120
0080
3FE0
0100
0680
3860
ENDCHAR
STARTCHAR uniAC6C
ENCODING 44140
SWIDTH 960 0
DWIDTH 12 0
BBX 12 11 0 -1
BITMAP
7D20
0520
05E0
1920
6120
0120
3FE0
2000
3FE0
2000
1FE0
ENDCHAR
STARTCHAR uniAC6D
ENCODING 44141
SWIDTH 960 0
DWIDTH 12 0
BBX 12 11 0 -1
BITMAP
7D20
0520
05E0
1920
6120
0120
3FE0
2000
3FE0
2000
1FE0
ENDCHAR
STARTCHAR uniAC6E
ENCODING 44142
SWIDTH 960 0
DWIDTH 12 0
BBX 12 11 0 -1
BITMAP
7D20
0520
05E0
0520
1920
6120
0000
3FE0
0880
0880
3FE0
ENDCHAR
STARTCHAR uniAC6F
ENCODING 44143
SWIDTH 960 0
DWIDTH 12 0
BBX 12 11 0 -1
BITMAP
7D20
0520
05E0
1920
6120
0120
0700
0000
3FE0
1040
0F80
ENDCHAR
STARTCHAR uniAC70
ENCODING 44144
SWIDTH 960 0
DWIDTH 12 0
BBX 12 11 0 -1
BITMAP
7E40
0240
0240
0240
03C0
0440
0440
0840
7040
0040
0040
ENDCHAR
STARTCHAR uniAC71
ENCODING 44145
SWIDTH 960 0
DWIDTH 12 0
BBX 12 11 0 -1
BITMAP
7E40
0240
03C0
0440
1840
6040
0000
3FC0
0040
0040
0040
ENDCHAR
STARTCHAR uniAC72
ENCODING 44146
SWIDTH 960 0
DWIDTH 12 0
BBX 12 11 0 -1
BITMAP
7E40
0240
03C0
0440
1840
6040
0000
3FC0
0440
0440
0440
ENDCHAR
STARTCHAR uniAC73
ENCODING 44147
SWIDTH 960 0
DWIDTH 12 0
BBX 12 11 0 -1
BITMAP
7E40
0240
03C0
0440
1840
6040
0000
3C80
0480
0540
0220
ENDCHAR
STARTCHAR uniAC74
ENCODING 44148
SWIDTH 960 0
DWIDTH 12 0
BBX 12 11 0 -1
BITMAP
7E40
0240
03C0
0440
1840
6040
0000
2000
2000
2000
1FC0
ENDCHAR
STARTCHAR uniAC75
ENCODING 44149
SWIDTH 960 0
DWIDTH 12 0
BBX 12 11 0 -1
BITMAP
7E40
0240
03C0
0440
1840
6040
0000
27C0
2100
2280
1C60
ENDCHAR
STARTCHAR uniAC76
ENCODING 44150
SWIDTH 960 0
DWIDTH 12 0
BBX 12 11 0 -1
BITMAP
7E40
0240
03C0
0440
1840
6040
0100
27E0
2240
2240
1D80
ENDCHAR
STARTCHAR uniAC77
ENCODING 44151
SWIDTH 960 0
DWIDTH 12 0
BBX 12 11 0 -1
BITMAP
7E40
0240
03C0
0440
1840
6040
0000
3FC0
2000
2000
1FC0
ENDCHAR
STARTCHAR uniAC78
ENCODING 44152
SWIDTH 960 0
DWIDTH 12 0
BBX 12 11 0 -1
BITMAP
7E40
0240
05C0
1840
6040
0040
3FC0
0040
3FC0
2000
1FC0
ENDCHAR
STARTCHAR uniAC79
ENCODING 44153
SWIDTH 960 0
DWIDTH 12 0
BBX 12 11 0 -1
BITMAP
7E40
0240
05C0
1840
6040
0040
3FC0
0440
3C40
2040
1C40
ENDCHAR
STARTCHAR uniAC7A
ENCODING 44154
SWIDTH 960 0
DWIDTH 12 0
BBX 12 11 0 -1
BITMAP
7E40
0240
05C0
1840
6040
0040
3DC0
0540
3D40
2140
1FC0
ENDCHAR
STARTCHAR uniAC7B
ENCODING 44155
SWIDTH 960 0
DWIDTH 12 0
BBX 12 11 0 -1
BITMAP
7E40
0240
05C0
1840
6040
0040
3D40
0540
3DC0
2140
1FC0
ENDCHAR
STARTCHAR uniAC7C
ENCODING 44156
SWIDTH 960 0
DWIDTH 12 0
BBX 12 11 0 -1
BITMAP
7E40
0240
05C0
1840
6040
0040
3C80
0480
3D40
2220
1C10
ENDCHAR
STARTCHAR uniAC7D
ENCODING 44157
SWIDTH 960 0
DWIDTH 12 0
BBX 12 11 0 -1
BITMAP
7E40
0240
05C0
1840
6040
0040
3DE0
0500
3DC0
2100
1FE0
ENDCHAR
STARTCHAR uniAC7E
ENCODING 44158
SWIDTH 960 0
DWIDTH 12 0
BBX 12 11 0 -1
BITMAP
7E40
0240
05C0
1840
6040
0040
3BE0
0940
3940
2140
1FE0
ENDCHAR
STARTCHAR uniAC7F
ENCODING 44159
SWIDTH 960 0
DWIDTH 12 0
BBX 12 11 0 -1
BITMAP
7E40
0240
05C0
1840
6040
0040
3880
0FE0
3A40
2240
1980
ENDCHAR
STARTCHAR uniAC80
ENCODING 44160
SWIDTH 960 0
DWIDTH 12 0
BBX 12 11 0 -1
BITMAP
7E40
0240
03C0
0440
1840
6040
0000
3FC0
2040
2040
1FC0
ENDCHAR
STARTCHAR uniAC81
ENCODING 44161
SWIDTH 960 0
DWIDTH 12 0
BBX 12 11 0 -1
BITMAP
7E40
0240
03C0
0440
1840
6040
0000
2040
3FC0
2040
1FC0
ENDCHAR
STARTCHAR uniAC82
ENCODING 44162
SWIDTH 960 0
DWIDTH 12 0
BBX 12 11 0 -1
BITMAP
7E40
0240
03C0
0440
1840
6040
0000
2480
3C80
2540
1E20
ENDCHAR
STARTCHAR uniAC83
ENCODING 44163
SWIDTH 960 0
DWIDTH 12 0
BBX 12 11 0 -1
BITMAP
7E40
0240
03C0
0440
1840
6040
0000
0200
0500
0880
3060
ENDCHAR
STARTCHAR uniAC84
ENCODING 44164
SWIDTH 960 0
DWIDTH 12 0
BBX 12 11 0 -1
BITMAP
7E40
0240
03C0
0440
1840
6040
0000
0880
0880
1540
2220
ENDCHAR
STARTCHAR uniAC85
ENCODING 44165
SWIDTH 960 0
DWIDTH 12 0
BBX 12 11 0 -1
BITMAP
7E40
0240
03C0
0440
1840
6040
0000
1F80
2040
2040
1F80
ENDCHAR
STARTCHAR uniAC86
ENCODING 44166
SWIDTH 960 0
DWIDTH 12 0
BBX 12 11 0 -1
BITMAP
7E40
0240
03C0
0440
1840
6040
0000
3FE0
0100
0680
3860
ENDCHAR
STARTCHAR uniAC87
ENCODING 44167
SWIDTH 960 0
DWIDTH 12 0
BBX 12 11 0 -1
BITMAP
7E40
0240
05C0
1840
6040
0040
0100
3FE0
0100
0680
3860
ENDCHAR
STARTCHAR uniAC88
ENCODING 44168
SWIDTH 960 0
DWIDTH 12 0
BBX 12 11 0 -1
BITMAP
7E40
0240
05C0
1840
6040
0040
3FC0
2000
3FC0
2000
1FC0
ENDCHAR
STARTCHAR uniAC89
ENCODING 44169
SWIDTH 960 0
DWIDTH 12 0
BBX 12 11 0 -1
BITMAP
7E40
0240
05C0
1840
6040
0040
3FC0
2000
3FC0
2000
1FC0
ENDCHAR
STARTCHAR uniAC8A
ENCODING 44170
SWIDTH 960 0
DWIDTH 12 0
BBX 12 11 0 -1
BITMAP
7E40
0240
03C0
0440
1840
6040
0000
3FE0
0880
0880
3FE0
ENDCHAR
STARTCHAR uniAC8B
ENCODING 44171
SWIDTH 960 0
DWIDTH 12 0
BBX 12 11 0 -1
BITMAP
7E40
0240
05C0
1840
6040
0040
0700
0000
7FE0
1040
0F80
ENDCHAR
STARTCHAR uniAC8C
ENCODING 44172
SWIDTH 960 0
DWIDTH 12 0
BBX 12 11 0 -1
BITMAP
7CA0
04A0
04A0
04A0
07A0
08A0
08A0
10A0
60A0
00A0
00A0
ENDCHAR
STARTCHAR uniAC8D
ENCODING 44173
SWIDTH 960 0
DWIDTH 12 0
BBX 12 11 0 -1
BITMAP
7CA0
04A0
07A0
04A0
18A0
60A0
0000
1FE0
0020
0020
0020
ENDCHAR
STARTCHAR uniAC8E
ENCODING 44174
SWIDTH 960 0
DWIDTH 12 0
BBX 12 11 0 -1
BITMAP
7CA0
04A0
07A0
04A0
18A0
60A0
0000
1FE0
0220
0220
0220
ENDCHAR
STARTCHAR uniAC8F
ENCODING 44175
SWIDTH 960 0
DWIDTH 12 0
BBX 12 11 0 -1
BITMAP
7CA0
04A0
07A0
04A0
18A0
60A0
0000
3C80
0480
0540
0220
ENDCHAR
STARTCHAR uniAC90
ENCODING 44176
SWIDTH 960 0
DWIDTH 12 0
BBX 12 11 0 -1
BITMAP
7CA0
04A0
07A0
04A0
18A0
60A0
0000
2000
2000
2000
1FE0
ENDCHAR
STARTCHAR uniAC91
ENCODING 44177
SWIDTH 960 0
DWIDTH 12 0
BBX 12 11 0 -1
BITMAP
7CA0
04A0
07A0
04A0
18A0
60A0
0000
23E0
2080
2140
1E30
ENDCHAR
STARTCHAR uniAC92
ENCODING 44178
SWIDTH 960 0
DWIDTH 12 0
BBX 12 11 0 -1
BITMAP
7CA0
04A0
07A0
04A0
18A0
60A0
0080
23F0
2120
2120
1CC0
ENDCHAR
STARTCHAR uniAC93
ENCODING 44179
SWIDTH 960 0
DWIDTH 12 0
BBX 12 11 0 -1
BITMAP
7CA0
04A0
07A0
04A0
18A0
60A0
0000
3FE0
2000
2000
1FE0
ENDCHAR
STARTCHAR uniAC94
ENCODING 44180
SWIDTH 960 0
DWIDTH 12 0
BBX 12 11 0 -1
BITMAP
7CA0
04A0
05A0
18A0
60A0
00A0
3FE0
0020
3FE0
2000
1FE0
ENDCHAR
STARTCHAR uniAC95
ENCODING 44181
SWIDTH 960 0
DWIDTH 12 0
BBX 12 11 0 -1
BITMAP
7CA0
04A0
05A0
18A0
60A0
00A0
3DE0
0420
3C20
2020
1E20
ENDCHAR
STARTCHAR uniAC96
ENCODING 44182
SWIDTH 960 0
DWIDTH 12 0
BBX 12 11 0 -1
BITMAP
7CA0
04A0
05A0
18A0
60A0
00A0
3DE0
0520
3D20
2120
1FE0
ENDCHAR
STARTCHAR uniAC97
ENCODING 44183
SWIDTH 960 0
DWIDTH 12 0
BBX 12 11 0 -1
BITMAP
7CA0
04A0
05A0
18A0
60A0
00A0
3D20
0520
3DE0
2120
1FE0
ENDCHAR
STARTCHAR uniAC98
ENCODING 44184
SWIDTH 960 0
DWIDTH 12 0
BBX 12 11 0 -1
BITMAP
7CA0
04A0
05A0
18A0
60A0
00A0
3C80
0480
3D40
2220
1C10
ENDCHAR
STARTCHAR uniAC99
ENCODING 44185
SWIDTH 960 0
DWIDTH 12 0
BBX 12 11 0 -1
BITMAP
7CA0
04A0
05A0
18A0
60A0
00A0
3DE0
0500
3DE0
2100
1FE0
ENDCHAR
STARTCHAR uniAC9A
ENCODING 44186
SWIDTH 960 0
DWIDTH 12 0
BBX 12 11 0 -1
BITMAP
7CA0
04A0
05A0
18A0
60A0
00A0
3BE0
0940
3940
2140
1FE0
ENDCHAR
STARTCHAR uniAC9B
ENCODING 44187
SWIDTH 960 0
DWIDTH 12 0
BBX 12 11 0 -1
BITMAP
7CA0
04A0
05A0
18A0
60A0
00A0
3880
0FE0
3A40
2240
1980
ENDCHAR
STARTCHAR uniAC9C
ENCODING 44188
SWIDTH 960 0
DWIDTH 12 0
BBX 12 11 0 -1
BITMAP
7CA0
04A0
07A0
04A0
18A0
60A0
0000
3FE0
2020
2020
1FE0
ENDCHAR
STARTCHAR uniAC9D
ENCODING 44189
SWIDTH 960 0
DWIDTH 12 0
BBX 12 11 0 -1
BITMAP
7CA0
04A0
07A0
04A0
18A0
60A0
0000
2020
3FE0
2020
1FE0
ENDCHAR
STARTCHAR uniAC9E
ENCODING 44190
SWIDTH 960 0
DWIDTH 12 0
BBX 12 11 0 -1
BITMAP
7CA0
04A0
07A0
04A0
18A0
60A0
0000
2480
3D40
2620
1C10
ENDCHAR
STARTCHAR uniAC9F
ENCODING 44191
SWIDTH 960 0
DWIDTH 12 0
BBX 12 11 0 -1
BITMAP
7CA0
04A0
07A0
04A0
18A0
60A0
0000
0080
0080
0340
1C30
ENDCHAR
STARTCHAR uniACA0
ENCODING 44192
SWIDTH 960 0
DWIDTH 12 0
BBX 12 11 0 -1
BITMAP
7CA0
04A0
07A0
04A0
18A0
60A0
0000
0840
0840
14A0
2310
ENDCHAR
STARTCHAR uniACA1
ENCODING 44193
SWIDTH 960 0
DWIDTH 12 0
BBX 12 11 0 -1
BITMAP
7CA0
04A0
07A0
04A0
18A0
60A0
0000
1FC0
2020
2020
1FC0
ENDCHAR
STARTCHAR uniACA2
ENCODING 44194
SWIDTH 960 0
DWIDTH 12 0
BBX 12 11 0 -1
BITMAP
7CA0
04A0
07A0
04A0
18A0
60A0
0000
3FE0
0100
0680
3860
ENDCHAR
STARTCHAR uniACA3
ENCODING 44195
SWIDTH 960 0
DWIDTH 12 0
BBX 12 11 0 -1
BITMAP
7CA0
04A0
05A0
18A0
60A0
00A0
0080
3FE0
0100
0680
3860
ENDCHAR
STARTCHAR uniACA4
ENCODING 44196
SWIDTH 960 0
DWIDTH 12 0
BBX 12 11 0 -1
BITMAP
7CA0
04A0
05A0
18A0
60A0
00A0
3FE0
2000
3FE0
2000
1FE0
ENDCHAR
STARTCHAR uniACA5
ENCODING 44197
SWIDTH 960 0
DWIDTH 12 0
BBX 12 11 0 -1
BITMAP
7CA0
04A0
05A0
18A0
60A0
00A0
3FE0
2000
3FE0
2000
1FE0
ENDCHAR
STARTCHAR uniACA6
ENCODING 44198
SWIDTH 960 0
DWIDTH 12 0
BBX 12 11 0 -1
BITMAP
7CA0
04A0
07A0
04A0
18A0
60A0
0000
3FE0
0880
0880
3FE0
ENDCHAR
STARTCHAR uniACA7
ENCODING 44199
SWIDTH 960 0
DWIDTH 12 0
BBX 12 11 0 -1
BITMAP
7CA0
04A0
05A0
18A0
60A0
00A0
0700
0000
3FE0
1040
0F80
ENDCHAR
STARTCHAR uniACA8
ENCODING 44200
SWIDTH 960 0
DWIDTH 12 0
BBX 12 11 0 -1
BITMAP
7E40
0240
03C0
0240
0240
05C0
0440
0840
7040
0040
0040
ENDCHAR
STARTCHAR uniACA9
ENCODING 44201
SWIDTH 960 0
DWIDTH 12 0
BBX 12 11 0 -1
BITMAP
7E40
03C0
0240
05C0
1840
6040
0000
3FC0
0040
0040
0040
ENDCHAR
STARTCHAR uniACAA
ENCODING 44202
SWIDTH 960 0
DWIDTH 12 0
BBX 12 11 0 -1
BITMAP
7E40
03C0
0240
05C0
1840
6040
0000
3FC0
0440
0440
0440
ENDCHAR
STARTCHAR uniACAB
ENCODING 44203
SWIDTH 960 0
DWIDTH 12 0
BBX 12 11 0 -1
BITMAP
7E40
03C0
0240
05C0
1840
6040
0000
3C80
0480
0540
0220
ENDCHAR
STARTCHAR uniACAC
ENCODING 44204
SWIDTH 960 0
DWIDTH 12 0
BBX 12 11 0 -1
BITMAP
7E40
03C0
0240
05C0
1840
6040
0000
2000
2000
2000
1FC0
ENDCHAR
STARTCHAR uniACAD
ENCODING 44205
SWIDTH 960 0
DWIDTH 12 0
BBX 12 11 0 -1
BITMAP
7E40
03C0
0240
05C0
1840
6040
0000
27C0
2100
2280
1C60
ENDCHAR
STARTCHAR uniACAE
ENCODING 44206
SWIDTH 960 0
DWIDTH 12 0
BBX 12 11 0 -1
BITMAP
7E40
03C0
0240
05C0
1840
6040
0100
27E0
2240
2240
1D80
ENDCHAR
STARTCHAR uniACAF
ENCODING 44207
SWIDTH 960 0
DWIDTH 12 0
BBX 12 11 0 -1
BITMAP
7E40
03C0
0240
05C0
1840
6040
0000
3FC0
2000
2000
1FC0
ENDCHAR
STARTCHAR uniACB0
ENCODING 44208
SWIDTH 960 0
DWIDTH 12 0
BBX 12 11 0 -1
BITMAP
7E40
03C0
0440
19C0
6040
0040
3FC0
0040
3FC0
2000
1FC0
ENDCHAR
STARTCHAR uniACB1
ENCODING 44209
SWIDTH 960 0
DWIDTH 12 0
BBX 12 11 0 -1
BITMAP
7E40
03C0
0440
19C0
6040
0040
3FC0
0440
3C40
2040
1C40
ENDCHAR
STARTCHAR uniACB2
ENCODING 44210
SWIDTH 960 0
DWIDTH 12 0
BBX 12 11 0 -1
BITMAP
7E40
03C0
0440
19C0
6040
0040
3DC0
0540
3D40
2140
1FC0
ENDCHAR
STARTCHAR uniACB3
ENCODING 44211
SWIDTH 960 0
DWIDTH 12 0
BBX 12 11 0 -1
BITMAP
7E40
03C0
0440
19C0
6040
0040
3D40
0540
3DC0
2140
1FC0
ENDCHAR
STARTCHAR uniACB4
ENCODING 44212
SWIDTH 960 0
DWIDTH 12 0
BBX 12 11 0 -1
BITMAP
7E40
03C0
0440
19C0
6040
0040
3C80
0480
3D40
2220
1C10
ENDCHAR
STARTCHAR uniACB5
ENCODING 44213
SWIDTH 960 0
DWIDTH 12 0
BBX 12 11 0 -1
BITMAP
7E40
03C0
0440
19C0
6040
0040
3DE0
0500
3DC0
2100
1FE0
ENDCHAR
STARTCHAR uniACB6
ENCODING 44214
SWIDTH 960 0
DWIDTH 12 0
BBX 12 11 0 -1
BITMAP
7E40
03C0
0440
19C0
6040
0040
3BE0
0940
3940
2140
1FE0
ENDCHAR
STARTCHAR uniACB7
ENCODING 44215
SWIDTH 960 0
DWIDTH 12 0
BBX 12 11 0 -1
BITMAP
7E40
03C0
0440
19C0
6040
0040
3880
0FE0
3A40
2240
1980
ENDCHAR
STARTCHAR uniACB8
ENCODING 44216
SWIDTH 960 0
DWIDTH 12 0
BBX 12 11 0 -1
BITMAP
7E40
03C0
0240
05C0
1840
6040
0000
3FC0
2040
2040
1FC0
ENDCHAR
STARTCHAR uniACB9
ENCODING 44217
SWIDTH 960 0
DWIDTH 12 0
BBX 12 11 0 -1
BITMAP
7E40
03C0
0240
05C0
1840
6040
0000
2040
3FC0
2040
1FC0
ENDCHAR
STARTCHAR uniACBA
ENCODING 44218
SWIDTH 960 0
DWIDTH 12 0
BBX 12 11 0 -1
BITMAP
7E40
03C0
0240
05C0
1840
6040
0000
2480
3C80
2540
1E20
ENDCHAR
STARTCHAR uniACBB
ENCODING 44219
SWIDTH 960 0
DWIDTH 12 0
BBX 12 11 0 -1
BITMAP
7E40
03C0
0240
05C0
1840
6040
0000
0200
0500
0880
3060
ENDCHAR
STARTCHAR uniACBC
ENCODING 44220
SWIDTH 960 0
DWIDTH 12 0
BBX 12 11 0 -1
BITMAP
7E40
03C0
0240
05C0
1840
6040
0000
0880
0880
1540
2220
ENDCHAR
STARTCHAR uniACBD
ENCODING 44221
SWIDTH 960 0
DWIDTH 12 0
BBX 12 11 0 -1
BITMAP
7E40
03C0
0240
05C0
1840
6040
0000
1F80
2040
2040
1F80
ENDCHAR
STARTCHAR uniACBE
ENCODING 44222
SWIDTH 960 0
DWIDTH 12 0
BBX 12 11 0 -1
BITMAP
7E40
03C0
0240
05C0
1840
6040
0000
3FE0
0100
0680
3860
ENDCHAR
STARTCHAR uniACBF
ENCODING 44223
SWIDTH 960 0
DWIDTH 12 0
BBX 12 11 0 -1
BITMAP
7E40
03C0
0440
19C0
6040
0040
0100
3FE0
0100
0680
3860
ENDCHAR
STARTCHAR uniACC0
ENCODING 44224
SWIDTH 960 0
DWIDTH 12 0
BBX 12 11 0 -1
BITMAP
7E40
03C0
0440
19C0
6040
0040
3FC0
2000
3FC0
2000
1FC0
ENDCHAR
STARTCHAR uniACC1
ENCODING 44225
SWIDTH 960 0
DWIDTH 12 0
BBX 12 11 0 -1
BITMAP
7E40
03C0
0440
19C0
6040
0040
3FC0
2000
3FC0
2000
1FC0
ENDCHAR
STARTCHAR uniACC2
ENCODING 44226
SWIDTH 960 0
DWIDTH 12 0
BBX 12 11 0 -1
BITMAP
7E40
03C0
0240
05C0
1840
6040
0000
3FE0
0880
0880
3FE0
ENDCHAR
STARTCHAR uniACC3
ENCODING 44227
SWIDTH 960 0
DWIDTH 12 0
BBX 12 11 0 -1
BITMAP
7E40
03C0
0440
19C0
6040
0040
0700
0000
7FE0
1040
0F80
ENDCHAR
STARTCHAR uniACC4
ENCODING 44228
SWIDTH 960 0
DWIDTH 12 0
BBX 12 11 0 -1
BITMAP
7CA0
04A0
07A0
04A0
04A0
0BA0
08A0
10A0
60A0
00A0
00A0
ENDCHAR
STARTCHAR uniACC5
ENCODING 44229
SWIDTH 960 0
DWIDTH 12 0
BBX 12 11 0 -1
BITMAP
7CA0
07A0
04A0
07A0
18A0
60A0
0000
1FE0
0020
0020
0020
ENDCHAR
STARTCHAR uniACC6
ENCODING 44230
SWIDTH 960 0
DWIDTH 12 0
BBX 12 11 0 -1
BITMAP
7CA0
07A0
04A0
07A0
18A0
60A0
0000
1FE0
0220
0220
0220
ENDCHAR
STARTCHAR uniACC7
ENCODING 44231
SWIDTH 960 0
DWIDTH 12 0
BBX 12 11 0 -1
BITMAP
7CA0
07A0
04A0
07A0
18A0
60A0
0000
3C80
0480
0540
0220
ENDCHAR
STARTCHAR uniACC8
ENCODING 44232
SWIDTH 960 0
DWIDTH 12 0
BBX 12 11 0 -1
BITMAP
7CA0
07A0
04A0
07A0
18A0
60A0
0000
2000
2000
2000
1FE0
ENDCHAR
STARTCHAR uniACC9
ENCODING 44233
SWIDTH 960 0
DWIDTH 12 0
BBX 12 11 0 -1
BITMAP
7CA0
07A0
04A0
07A0
18A0
60A0
0000
23E0
2080
2140
1E30
ENDCHAR
STARTCHAR uniACCA
ENCODING 44234
SWIDTH 960 0
DWIDTH 12 0
BBX 12 11 0 -1
BITMAP
7CA0
07A0
04A0
07A0
18A0
60A0
0080
23F0
2120
2120
1CC0
ENDCHAR
STARTCHAR uniACCB
ENCODING 44235
SWIDTH 960 0
DWIDTH 12 0
BBX 12 11 0 -1
BITMAP
7CA0
07A0
04A0
07A0
18A0
60A0
0000
3FE0
2000
2000
1FE0
ENDCHAR
STARTCHAR uniACCC
ENCODING 44236
SWIDTH 960 0
DWIDTH 12 0
BBX 12 11 0 -1
BITMAP
7CA0
05A0
04A0
19A0
60A0
00A0
3FE0
0020
3FE0
2000
1FE0
ENDCHAR
STARTCHAR uniACCD
ENCODING 44237
SWIDTH 960 0
DWIDTH 12 0
BBX 12 11 0 -1
BITMAP
7CA0
05A0
04A0
19A0
60A0
00A0
3DE0
0420
3C20
2020
1E20
ENDCHAR
STARTCHAR uniACCE
ENCODING 44238
SWIDTH 960 0
DWIDTH 12 0
BBX 12 11 0 -1
BITMAP
7CA0
05A0
04A0
19A0
60A0
00A0
3DE0
0520
3D20
2120
1FE0
ENDCHAR
STARTCHAR uniACCF
ENCODING 44239
SWIDTH 960 0
DWIDTH 12 0
BBX 12 11 0 -1
BITMAP
7CA0
05A0
04A0
19A0
60A0
00A0
3D20
0520
3DE0
2120
1FE0
ENDCHAR
STARTCHAR uniACD0
ENCODING 44240
SWIDTH 960 0
DWIDTH 12 0
BBX 12 11 0 -1
BITMAP
7CA0
05A0
04A0
19A0
60A0
00A0
3C80
0480
3D40
2220
1C10
ENDCHAR
STARTCHAR uniACD1
ENCODING 44241
SWIDTH 960 0
DWIDTH 12 0
BBX 12 11 0 -1
BITMAP
7CA0
05A0
04A0
19A0
60A0
00A0
3DE0
0500
3DE0
2100
1FE0
ENDCHAR
STARTCHAR uniACD2
ENCODING 44242
SWIDTH 960 0
DWIDTH 12 0
BBX 12 11 0 -1
BITMAP
7CA0
05A0
04A0
19A0
60A0
00A0
3BE0
0940
3940
2140
1FE0
ENDCHAR
STARTCHAR uniACD3
ENCODING 44243
SWIDTH 960 0
DWIDTH 12 0
BBX 12 11 0 -1
BITMAP
7CA0
05A0
04A0
19A0
60A0
00A0
3880
0FE0
3A40
2240
1980
ENDCHAR
STARTCHAR uniACD4
ENCODING 44244
SWIDTH 960 0
DWIDTH 12 0
BBX 12 11 0 -1
BITMAP
7CA0
07A0
04A0
07A0
18A0
60A0
0000
3FE0
2020
2020
1FE0
ENDCHAR
STARTCHAR uniACD5
ENCODING 44245
SWIDTH 960 0
DWIDTH 12 0
BBX 12 11 0 -1
BITMAP
7CA0
07A0
04A0
07A0
18A0
60A0
0000
2020
3FE0
2020
1FE0
ENDCHAR
STARTCHAR uniACD6
ENCODING 44246
SWIDTH 960 0
DWIDTH 12 0
BBX 12 11 0 -1
BITMAP
7CA0
07A0
04A0
07A0
18A0
60A0
0000
2480
3D40
2620
1C10
ENDCHAR
STARTCHAR uniACD7
ENCODING 44247
SWIDTH 960 0
DWIDTH 12 0
BBX 12 11 0 -1
BITMAP
7CA0
07A0
04A0
07A0
18A0
60A0
0000
0080
0080
0340
1C30
ENDCHAR
STARTCHAR uniACD8
ENCODING 44248
SWIDTH 960 0
DWIDTH 12 0
BBX 12 11 0 -1
BITMAP
7CA0
07A0
04A0
07A0
18A0
60A0
0000
0840
0840
14A0
2310
ENDCHAR
STARTCHAR uniACD9
ENCODING 44249
SWIDTH 960 0
DWIDTH 12 0
BBX 12 11 0 -1
BITMAP
7CA0
07A0
04A0
07A0
18A0
60A0
0000
1FC0
2020
2020
1FC0
ENDCHAR
STARTCHAR uniACDA
ENCODING 44250
SWIDTH 960 0
DWIDTH 12 0
BBX 12 11 0 -1
BITMAP
7CA0
07A0
04A0
07A0
18A0
60A0
0000
3FE0
0100
0680
3860
ENDCHAR
STARTCHAR uniACDB
ENCODING 44251
SWIDTH 960 0
DWIDTH 12 0
BBX 12 11 0 -1
BITMAP
7CA0
05A0
04A0
19A0
60A0
00A0
0080
3FE0
0100
0680
3860
ENDCHAR
STARTCHAR uniACDC
ENCODING 44252
SWIDTH 960 0
DWIDTH 12 0
BBX 12 11 0 -1
BITMAP
7CA0
05A0
04A0
19A0
60A0
00A0
3FE0
2000
3FE0
2000
1FE0
ENDCHAR
STARTCHAR uniACDD
ENCODING 44253
SWIDTH 960 0
DWIDTH 12 0
BBX 12 11 0 -1
BITMAP
7CA0
05A0
04A0
19A0
60A0
00A0
3FE0
2000
3FE0
2000
1FE0
ENDCHAR
STARTCHAR uniACDE
ENCODING 44254
SWIDTH 960 0
DWIDTH 12 0
BBX 12 11 0 -1
BITMAP
7CA0
07A0
04A0
07A0
18A0
60A0
0000
3FE0
0880
0880
3FE0
ENDCHAR
STARTCHAR uniACDF
ENCODING 44255
SWIDTH 960 0
DWIDTH 12 0
BBX 12 11 0 -1
BITMAP
7CA0
05A0
04A0
19A0
60A0
00A0
0700
0000
3FE0
1040
0F80
ENDCHAR
STARTCHAR uniACE0
ENCODING 44256
SWIDTH 960 0
DWIDTH 12 0
BBX 12 11 0 -1
BITMAP
7FC0
0040
0040
0040
0040
0840
0840
0840
0800
FFE0
0000
ENDCHAR
STARTCHAR uniACE1
ENCODING 44257
SWIDTH 960 0
DWIDTH 12 0
BBX 12 11 0 -1
BITMAP
7FC0
0040
0040
0840
0840
FFE0
0000
7FC0
0040
0040
0040
ENDCHAR
STARTCHAR uniACE2
ENCODING 44258
SWIDTH 960 0
DWIDTH 12 0
BBX 12 11 0 -1
BITMAP
7FC0
0040
0040
0840
0840
FFE0
0000
7FC0
0440
0440
0440
ENDCHAR
STARTCHAR uniACE3
ENCODING 44259
SWIDTH 960 0
DWIDTH 12 0
BBX 12 11 0 -1
BITMAP
7FC0
0040
0040
0840
0840
FFE0
0000
7880
0880
0940
0A20
ENDCHAR
STARTCHAR uniACE4
ENCODING 44260
SWIDTH 960 0
DWIDTH 12 0
BBX 12 11 0 -1
BITMAP
7FC0
0040
0040
0040
0440
FFE0
0000
4000
4000
4000
3FC0
ENDCHAR
STARTCHAR uniACE5
ENCODING 44261
SWIDTH 960 0
DWIDTH 12 0
BBX 12 11 0 -1
BITMAP
7FC0
0040
0040
0840
0840
FFE0
0000
47C0
4100
4280
3C40
ENDCHAR
STARTCHAR uniACE6
ENCODING 44262
SWIDTH 960 0
DWIDTH 12 0
BBX 12 11 0 -1
BITMAP
7FC0
0040
0040
0840
0840
FFE0
0100
47E0
4240
4240
3980
ENDCHAR
STARTCHAR uniACE7
ENCODING 44263
SWIDTH 960 0
DWIDTH 12 0
BBX 12 11 0 -1
BITMAP
7FC0
0040
0040
0840
0840
FFE0
0000
7FC0
4000
4000
3FC0
ENDCHAR
STARTCHAR uniACE8
ENCODING 44264
SWIDTH 960 0
DWIDTH 12 0
BBX 12 11 0 -1
BITMAP
7FC0
0040
0840
0840
FFE0
0000
7FC0
0040
7FC0
4000
3FC0
ENDCHAR
STARTCHAR uniACE9
ENCODING 44265
SWIDTH 960 0
DWIDTH 12 0
BBX 12 11 0 -1
BITMAP
7FC0
0040
0840
0840
FFE0
0000
7BC0
0840
7840
4040
3C40
ENDCHAR
STARTCHAR uniACEA
ENCODING 44266
SWIDTH 960 0
DWIDTH 12 0
BBX 12 11 0 -1
BITMAP
7FC0
0040
0840
0840
FFE0
0000
7BC0
0A40
7A40
4240
3FC0
ENDCHAR
STARTCHAR uniACEB
ENCODING 44267
SWIDTH 960 0
DWIDTH 12 0
BBX 12 11 0 -1
BITMAP
7FC0
0040
0840
0840
FFE0
0000
7A40
0A40
7BC0
4240
3FC0
ENDCHAR
STARTCHAR uniACEC
ENCODING 44268
SWIDTH 960 0
DWIDTH 12 0
BBX 12 11 0 -1
BITMAP
7FC0
0040
0840
0840
FFE0
0000
7900
0900
7A80
4440
3820
ENDCHAR
STARTCHAR uniACED
ENCODING 44269
SWIDTH 960 0
DWIDTH 12 0
BBX 12 11 0 -1
BITMAP
7FC0
0040
0840
0840
FFE0
0000
7BC0
0A00
7B80
4200
3FC0
ENDCHAR
STARTCHAR uniACEE
ENCODING 44270
SWIDTH 960 0
DWIDTH 12 0
BBX 12 11 0 -1
BITMAP
7FC0
0040
0840
0840
FFE0
0000
77C0
1280
7280
4280
3FC0
ENDCHAR
STARTCHAR uniACEF
ENCODING 44271
SWIDTH 960 0
DWIDTH 12 0
BBX 12 11 0 -1
BITMAP
7FC0
0040
0840
0840
FFE0
0000
7880
0FE0
7A40
4240
3980
ENDCHAR
STARTCHAR uniACF0
ENCODING 44272
SWIDTH 960 0
DWIDTH 12 0
BBX 12 11 0 -1
BITMAP
7FC0
0040
0040
0840
0840
FFE0
0000
7FC0
4040
4040
3FC0
ENDCHAR
STARTCHAR uniACF1
ENCODING 44273
SWIDTH 960 0
DWIDTH 12 0
BBX 12 11 0 -1
BITMAP
7FC0
0040
0040
0840
0840
FFE0
0000
4040
7FC0
4040
3FC0
ENDCHAR
STARTCHAR uniACF2
ENCODING 44274
SWIDTH 960 0
DWIDTH 12 0
BBX 12 11 0 -1
BITMAP
7FC0
0040
0040
0840
0840
FFE0
0000
4900
7A80
4C40
3820
ENDCHAR
STARTCHAR uniACF3
ENCODING 44275
SWIDTH 960 0
DWIDTH 12 0
BBX 12 11 0 -1
BITMAP
7FC0
0040
0040
0840
0840
FFE0
0000
0400
0A00
1100
60C0
ENDCHAR
STARTCHAR uniACF4
ENCODING 44276
SWIDTH 960 0
DWIDTH 12 0
BBX 12 11 0 -1
BITMAP
7FC0
0040
0040
0840
0840
FFE0
0000
1100
1100
2A80
4440
ENDCHAR
STARTCHAR uniACF5
ENCODING 44277
SWIDTH 960 0
DWIDTH 12 0
BBX 12 11 0 -1
BITMAP
7FC0
0040
0040
0840
0840
FFE0
0000
3F80
4040
4040
3F80
ENDCHAR
STARTCHAR uniACF6
ENCODING 44278
SWIDTH 960 0
DWIDTH 12 0
BBX 12 11 0 -1
BITMAP
7FC0
0040
0040
0840
0840
FFE0
0000
7FC0
0400
0A00
71C0
ENDCHAR
STARTCHAR uniACF7
ENCODING 44279
SWIDTH 960 0
DWIDTH 12 0
BBX 12 11 0 -1
BITMAP
7FC0
0040
0840
0840
FFE0
0000
0200
7FC0
0400
1B00
60C0
ENDCHAR
STARTCHAR uniACF8
ENCODING 44280
SWIDTH 960 0
DWIDTH 12 0
BBX 12 11 0 -1
BITMAP
7FC0
0040
0840
0840
FFE0
0000
7FC0
4000
7F80
4000
3FC0
ENDCHAR
STARTCHAR uniACF9
ENCODING 44281
SWIDTH 960 0
DWIDTH 12 0
BBX 12 11 0 -1
BITMAP
7FC0
0040
0840
0840
FFE0
0000
7FC0
4000
7F80
4000
3FC0
ENDCHAR
STARTCHAR uniACFA
ENCODING 44282
SWIDTH 960 0
DWIDTH 12 0
BBX 12 11 0 -1
BITMAP
7FC0
0040
0040
0840
0840
FFE0
0000
7FC0
1100
1100
7FC0
ENDCHAR
STARTCHAR uniACFB
ENCODING 44283
SWIDTH 960 0
DWIDTH 12 0
BBX 12 11 0 -1
BITMAP
7FC0
0040
0840
0840
FFE0
0000
0E00
0000
7FC0
2080
1F00
ENDCHAR
STARTCHAR uniACFC
ENCODING 44284
SWIDTH 960 0
DWIDTH 12 0
BBX 12 11 0 -1
BITMAP
7F40
0140
0140
0140
1170
1140
1140
1040
7F40
0040
0040
ENDCHAR
STARTCHAR uniACFD
ENCODING 44285
SWIDTH 960 0
DWIDTH 12 0
BBX 12 11 0 -1
BITMAP
7E40
0240
0240
1270
1240
7F40
0000
3FC0
0040
0040
0040
ENDCHAR
STARTCHAR uniACFE
ENCODING 44286
SWIDTH 960 0
DWIDTH 12 0
BBX 12 11 0 -1
BITMAP
7E40
0240
0240
1270
1240
7F40
0000
3FC0
0440
0440
0440
ENDCHAR
STARTCHAR uniACFF
ENCODING 44287
SWIDTH 960 0
DWIDTH 12 0
BBX 12 11 0 -1
BITMAP
7E40
0240
0240
1270
1240
7F40
0000
3C80
0480
0540
0220
ENDCHAR
STARTCHAR uniAD00
ENCODING 44288
SWIDTH 960 0
DWIDTH 12 0
BBX 12 11 0 -1
BITMAP
7E40
0240
0240
0270
0A40
7F40
0000
2000
2000
2000
1FC0
ENDCHAR
STARTCHAR uniAD01
ENCODING 44289
SWIDTH 960 0
DWIDTH 12 0
BBX 12 11 0 -1
BITMAP
7E40
0240
0240
1270
1240
7F40
0000
27C0
2100
2280
1C60
ENDCHAR
STARTCHAR uniAD02
ENCODING 44290
SWIDTH 960 0
DWIDTH 12 0
BBX 12 11 0 -1
BITMAP
7E40
0240
0240
1270
1240
7F40
0100
27E0
2240
2240
1980
ENDCHAR
STARTCHAR uniAD03
ENCODING 44291
SWIDTH 960 0
DWIDTH 12 0
BBX 12 11 0 -1
BITMAP
7E40
0240
0240
1270
1240
7F40
0000
3FC0
2000
2000
1FC0
ENDCHAR
STARTCHAR uniAD04
ENCODING 44292
SWIDTH 960 0
DWIDTH 12 0
BBX 12 11 0 -1
BITMAP
7E40
0240
1240
1270
7FC0
0000
3FC0
0040
3FC0
2000
1FC0
ENDCHAR
STARTCHAR uniAD05
ENCODING 44293
SWIDTH 960 0
DWIDTH 12 0
BBX 12 11 0 -1
BITMAP
7E40
0240
1240
1270
7FC0
0000
3FC0
0440
3C40
2040
1C40
ENDCHAR
STARTCHAR uniAD06
ENCODING 44294
SWIDTH 960 0
DWIDTH 12 0
BBX 12 11 0 -1
BITMAP
7E40
0240
1240
1270
7FC0
0000
3DC0
0540
3D40
2140
1FC0
ENDCHAR
STARTCHAR uniAD07
ENCODING 44295
SWIDTH 960 0
DWIDTH 12 0
BBX 12 11 0 -1
BITMAP
7E40
0240
1240
1270
7FC0
0000
3A40
0A40
3BC0
2240
1FC0
ENDCHAR
STARTCHAR uniAD08
ENCODING 44296
SWIDTH 960 0
DWIDTH 12 0
BBX 12 11 0 -1
BITMAP
7E40
0240
1240
1270
7FC0
0000
3C80
0480
3D40
2220
1C10
ENDCHAR
STARTCHAR uniAD09
ENCODING 44297
SWIDTH 960 0
DWIDTH 12 0
BBX 12 11 0 -1
BITMAP
7E40
0240
1240
1270
7FC0
0000
3DE0
0500
3DC0
2100
1FE0
ENDCHAR
STARTCHAR uniAD0A
ENCODING 44298
SWIDTH 960 0
DWIDTH 12 0
BBX 12 11 0 -1
BITMAP
7E40
0240
1240
1270
7FC0
0000
3BE0
0940
3940
2140
1FE0
ENDCHAR
STARTCHAR uniAD0B
ENCODING 44299
SWIDTH 960 0
DWIDTH 12 0
BBX 12 11 0 -1
BITMAP
7E40
0240
1240
1270
7FC0
0000
3880
0FE0
3A40
2240
1980
ENDCHAR
STARTCHAR uniAD0C
ENCODING 44300
SWIDTH 960 0
DWIDTH 12 0
BBX 12 11 0 -1
BITMAP
7E40
0240
0240
1270
1240
7F40
0000
3FC0
2040
2040
1FC0
ENDCHAR
STARTCHAR uniAD0D
ENCODING 44301
SWIDTH 960 0
DWIDTH 12 0
BBX 12 11 0 -1
BITMAP
7E40
0240
0240
1270
1240
7F40
0000
2040
3FC0
2040
1FC0
ENDCHAR
STARTCHAR uniAD0E
ENCODING 44302
SWIDTH 960 0
DWIDTH 12 0
BBX 12 11 0 -1
BITMAP
7E40
0240
0240
1270
1240
7F40
0000
2480
3D40
2620
1C10
ENDCHAR
STARTCHAR uniAD0F
ENCODING 44303
SWIDTH 960 0
DWIDTH 12 0
BBX 12 11 0 -1
BITMAP
7E40
0240
0240
1270
1240
7F40
0000
0200
0500
0880
3060
ENDCHAR
STARTCHAR uniAD10
ENCODING 44304
SWIDTH 960 0
DWIDTH 12 0
BBX 12 11 0 -1
BITMAP
7E40
0240
0240
1270
1240
7F40
0000
0880
0880
1540
2220
ENDCHAR
STARTCHAR uniAD11
ENCODING 44305
SWIDTH 960 0
DWIDTH 12 0
BBX 12 11 0 -1
BITMAP
7E40
0240
0240
1270
1240
7F40
0000
1F80
2040
2040
1F80
ENDCHAR
STARTCHAR uniAD12
ENCODING 44306
SWIDTH 960 0
DWIDTH 12 0
BBX 12 11 0 -1
BITMAP
7E40
0240
0240
1270
1240
7F40
0000
3FE0
0100
0680
3860
ENDCHAR
STARTCHAR uniAD13
ENCODING 44307
SWIDTH 960 0
DWIDTH 12 0
BBX 12 11 0 -1
BITMAP
7E40
0240
1240
1270
7FC0
0000
0100
3FE0
0100
0680
3860
ENDCHAR
STARTCHAR uniAD14
ENCODING 44308
SWIDTH 960 0
DWIDTH 12 0
BBX 12 11 0 -1
BITMAP
7E40
0240
1240
1270
7FC0
0000
3FC0
2000
3FC0
2000
1FC0
ENDCHAR
STARTCHAR uniAD15
ENCODING 44309
SWIDTH 960 0
DWIDTH 12 0
BBX 12 11 0 -1
BITMAP
7E40
0240
1240
1270
7FC0
0000
3FC0
2000
3FC0
2000
1FC0
ENDCHAR
STARTCHAR uniAD16
ENCODING 44310
SWIDTH 960 0
DWIDTH 12 0
BBX 12 11 0 -1
BITMAP
7E40
0240
0240
1270
1240
7F40
0000
3FE0
0880
0880
3FE0
ENDCHAR
STARTCHAR uniAD17
ENCODING 44311
SWIDTH 960 0
DWIDTH 12 0
BBX 12 11 0 -1
BITMAP
7E40
0240
1240
1270
7FC0
0000
0700
0000
7FE0
1040
0F80
ENDCHAR
STARTCHAR uniAD18
ENCODING 44312
SWIDTH 960 0
DWIDTH 12 0
BBX 12 11 0 -1
BITMAP
7EA0
02A0
02A0
02A0
22E0
22A0
22A0
20A0
7EA0
00A0
00A0
ENDCHAR
STARTCHAR uniAD19
ENCODING 44313
SWIDTH 960 0
DWIDTH 12 0
BBX 12 11 0 -1
BITMAP
7CA0
04A0
04E0
24A0
20A0
7EA0
00A0
1FE0
0020
0020
0020
ENDCHAR
STARTCHAR uniAD1A
ENCODING 44314
SWIDTH 960 0
DWIDTH 12 0
BBX 12 11 0 -1
BITMAP
7CA0
04A0
04E0
24A0
20A0
7EA0
00A0
1FE0
0220
0220
0220
ENDCHAR
STARTCHAR uniAD1B
ENCODING 44315
SWIDTH 960 0
DWIDTH 12 0
BBX 12 11 0 -1
BITMAP
7CA0
04A0
04E0
24A0
20A0
7EA0
00A0
3C80
0480
0540
0220
ENDCHAR
STARTCHAR uniAD1C
ENCODING 44316
SWIDTH 960 0
DWIDTH 12 0
BBX 12 11 0 -1
BITMAP
7CA0
04A0
04E0
04A0
10A0
7EA0
00A0
2000
2000
2000
1FE0
ENDCHAR
STARTCHAR uniAD1D
ENCODING 44317
SWIDTH 960 0
DWIDTH 12 0
BBX 12 11 0 -1
BITMAP
7CA0
04A0
04E0
24A0
20A0
7EA0
00A0
23E0
2080
2140
1E30
ENDCHAR
STARTCHAR uniAD1E
ENCODING 44318
SWIDTH 960 0
DWIDTH 12 0
BBX 12 11 0 -1
BITMAP
7CA0
04A0
04E0
24A0
20A0
7EA0
00A0
23F0
2120
2120
1CC0
ENDCHAR
STARTCHAR uniAD1F
ENCODING 44319
SWIDTH 960 0
DWIDTH 12 0
BBX 12 11 0 -1
BITMAP
7CA0
04A0
04E0
24A0
20A0
7EA0
00A0
3FE0
2000
2000
1FE0
ENDCHAR
STARTCHAR uniAD20
ENCODING 44320
SWIDTH 960 0
DWIDTH 12 0
BBX 12 11 0 -1
BITMAP
7CA0
04A0
24E0
20A0
7EA0
0000
3FE0
0020
3FE0
2000
1FE0
ENDCHAR
STARTCHAR uniAD21
ENCODING 44321
SWIDTH 960 0
DWIDTH 12 0
BBX 12 11 0 -1
BITMAP
7CA0
04A0
24E0
20A0
7EA0
0000
3DE0
0420
3C20
2020
1E20
ENDCHAR
STARTCHAR uniAD22
ENCODING 44322
SWIDTH 960 0
DWIDTH 12 0
BBX 12 11 0 -1
BITMAP
7CA0
04A0
24E0
20A0
7EA0
0000
3DE0
0520
3D20
2120
1FE0
ENDCHAR
STARTCHAR uniAD23
ENCODING 44323
SWIDTH 960 0
DWIDTH 12 0
BBX 12 11 0 -1
BITMAP
7CA0
04A0
24E0
20A0
7EA0
0000
3D20
0520
3DE0
2120
1FE0
ENDCHAR
STARTCHAR uniAD24
ENCODING 44324
SWIDTH 960 0
DWIDTH 12 0
BBX 12 11 0 -1
BITMAP
7CA0
04A0
24E0
20A0
7EA0
0000
3C80
0480
3D40
2220
1C10
ENDCHAR
STARTCHAR uniAD25
ENCODING 44325
SWIDTH 960 0
DWIDTH 12 0
BBX 12 11 0 -1
BITMAP
7CA0
04A0
24E0
20A0
7EA0
0000
3DE0
0500
3DE0
2100
1FE0
ENDCHAR
STARTCHAR uniAD26
ENCODING 44326
SWIDTH 960 0
DWIDTH 12 0
BBX 12 11 0 -1
BITMAP
7CA0
04A0
24E0
20A0
7EA0
0000
3BE0
0940
3940
2140
1FE0
ENDCHAR
STARTCHAR uniAD27
ENCODING 44327
SWIDTH 960 0
DWIDTH 12 0
BBX 12 11 0 -1
BITMAP
7CA0
04A0
24E0
20A0
7EA0
0000
3880
0FE0
3A40
2240
1980
ENDCHAR
STARTCHAR uniAD28
ENCODING 44328
SWIDTH 960 0
DWIDTH 12 0
BBX 12 11 0 -1
BITMAP
7CA0
04A0
04E0
24A0
20A0
7EA0
00A0
3FE0
2020
2020
1FE0
ENDCHAR
STARTCHAR uniAD29
ENCODING 44329
SWIDTH 960 0
DWIDTH 12 0
BBX 12 11 0 -1
BITMAP
7CA0
04A0
04E0
24A0
20A0
7EA0
00A0
2020
3FE0
2020
1FE0
ENDCHAR
STARTCHAR uniAD2A
ENCODING 44330
SWIDTH 960 0
DWIDTH 12 0
BBX 12 11 0 -1
BITMAP
7CA0
04A0
04E0
24A0
20A0
7EA0
00A0
2480
3D40
2620
1C10
ENDCHAR
STARTCHAR uniAD2B
ENCODING 44331
SWIDTH 960 0
DWIDTH 12 0
BBX 12 11 0 -1
BITMAP
7CA0
04A0
04E0
24A0
20A0
7EA0
00A0
0100
0100
0680
3860
ENDCHAR
STARTCHAR uniAD2C
ENCODING 44332
SWIDTH 960 0
DWIDTH 12 0
BBX 12 11 0 -1
BITMAP
7CA0
04A0
04E0
24A0
20A0
7EA0
00A0
0880
0880
1540
2220
ENDCHAR
STARTCHAR uniAD2D
ENCODING 44333
SWIDTH 960 0
DWIDTH 12 0
BBX 12 11 0 -1
BITMAP
7CA0
04A0
04E0
24A0
20A0
7EA0
00A0
1FC0
2020
2020
1FC0
ENDCHAR
STARTCHAR uniAD2E
ENCODING 44334
SWIDTH 960 0
DWIDTH 12 0
BBX 12 11 0 -1
BITMAP
7CA0
04A0
04E0
24A0
20A0
7EA0
00A0
3FE0
0100
0680
3860
ENDCHAR
STARTCHAR uniAD2F
ENCODING 44335
SWIDTH 960 0
DWIDTH 12 0
BBX 12 11 0 -1
BITMAP
7CA0
04A0
24E0
20A0
7EA0
0000
0080
3FE0
0100
0680
3860
ENDCHAR
STARTCHAR uniAD30
ENCODING 44336
SWIDTH 960 0
DWIDTH 12 0
BBX 12 11 0 -1
BITMAP
7CA0
04A0
24E0
20A0
7EA0
0000
3FE0
2000
3FE0
2000
1FE0
ENDCHAR
STARTCHAR uniAD31
ENCODING 44337
SWIDTH 960 0
DWIDTH 12 0
BBX 12 11 0 -1
BITMAP
7CA0
04A0
24E0
20A0
7EA0
0000
3FE0
2000
3FE0
2000
1FE0
ENDCHAR
STARTCHAR uniAD32
ENCODING 44338
SWIDTH 960 0
DWIDTH 12 0
BBX 12 11 0 -1
BITMAP
7CA0
04A0
04E0
24A0
20A0
7EA0
00A0
3FE0
0880
0880
3FE0
ENDCHAR
STARTCHAR uniAD33
ENCODING 44339
SWIDTH 960 0
DWIDTH 12 0
BBX 12 11 0 -1
BITMAP
7CA0
04A0
24E0
20A0
7EA0
0000
0700
0000
3FE0
1040
0F80
ENDCHAR
STARTCHAR uniAD34
ENCODING 44340
SWIDTH 960 0
DWIDTH 12 0
BBX 12 11 0 -1
BITMAP
7F40
0140
0140
0140
1140
1140
1140
1040
7F40
0040
0040
ENDCHAR
STARTCHAR uniAD35
ENCODING 44341
SWIDTH 960 0
DWIDTH 12 0
BBX 12 11 0 -1
BITMAP
7E40
0240
0240
1240
1240
7F40
0040
3FC0
0040
0040
0040
ENDCHAR
STARTCHAR uniAD36
ENCODING 44342
SWIDTH 960 0
DWIDTH 12 0
BBX 12 11 0 -1
BITMAP
7E40
0240
0240
1240
1240
7F40
0040
3FC0
0440
0440
0440
ENDCHAR
STARTCHAR uniAD37
ENCODING 44343
SWIDTH 960 0
DWIDTH 12 0
BBX 12 11 0 -1
BITMAP
7E40
0240
0240
1240
1240
7F40
0040
3C80
0480
0540
0220
ENDCHAR
STARTCHAR uniAD38
ENCODING 44344
SWIDTH 960 0
DWIDTH 12 0
BBX 12 11 0 -1
BITMAP
7E40
0240
0240
0240
0A40
7F40
0040
2000
2000
2000
1FC0
ENDCHAR
STARTCHAR uniAD39
ENCODING 44345
SWIDTH 960 0
DWIDTH 12 0
BBX 12 11 0 -1
BITMAP
7E40
0240
0240
1240
1240
7F40
0040
27C0
2100
2280
1C60
ENDCHAR
STARTCHAR uniAD3A
ENCODING 44346
SWIDTH 960 0
DWIDTH 12 0
BBX 12 11 0 -1
BITMAP
7E40
0240
0240
1240
1240
7F40
0140
27E0
2240
2240
1980
ENDCHAR
STARTCHAR uniAD3B
ENCODING 44347
SWIDTH 960 0
DWIDTH 12 0
BBX 12 11 0 -1
BITMAP
7E40
0240
0240
1240
1240
7F40
0040
3FC0
2000
2000
1FC0
ENDCHAR
STARTCHAR uniAD3C
ENCODING 44348
SWIDTH 960 0
DWIDTH 12 0
BBX 12 11 0 -1
BITMAP
7E40
0240
1240
1240
7F40
0040
3FC0
0040
3FC0
2000
1FC0
ENDCHAR
STARTCHAR uniAD3D
ENCODING 44349
SWIDTH 960 0
DWIDTH 12 0
BBX 12 11 0 -1
BITMAP
7E40
0240
1240
1240
7F40
0040
3FC0
0440
3C40
2040
1C40
ENDCHAR
STARTCHAR uniAD3E
ENCODING 44350
SWIDTH 960 0
DWIDTH 12 0
BBX 12 11 0 -1
BITMAP
7E40
0240
1240
1240
7F40
0040
3DC0
0540
3D40
2140
1FC0
ENDCHAR
STARTCHAR uniAD3F
ENCODING 44351
SWIDTH 960 0
DWIDTH 12 0
BBX 12 11 0 -1
BITMAP
7E40
0240
1240
1240
7F40
0040
3A40
0A40
3BC0
2240
1FC0
ENDCHAR
STARTCHAR uniAD40
ENCODING 44352
SWIDTH 960 0
DWIDTH 12 0
BBX 12 11 0 -1
BITMAP
7E40
0240
1240
1240
7F40
0040
3C80
0480
3D40
2220
1C10
ENDCHAR
STARTCHAR uniAD41
ENCODING 44353
SWIDTH 960 0
DWIDTH 12 0
BBX 12 11 0 -1
BITMAP
7E40
0240
1240
1240
7F40
0040
3DE0
0500
3DC0
2100
1FE0
ENDCHAR
STARTCHAR uniAD42
ENCODING 44354
SWIDTH 960 0
DWIDTH 12 0
BBX 12 11 0 -1
BITMAP
7E40
0240
1240
1240
7F40
0040
3BE0
0940
3940
2140
1FE0
ENDCHAR
STARTCHAR uniAD43
ENCODING 44355
SWIDTH 960 0
DWIDTH 12 0
BBX 12 11 0 -1
BITMAP
7E40
0240
1240
1240
7F40
0040
3880
0FE0
3A40
2240
1980
ENDCHAR
STARTCHAR uniAD44
ENCODING 44356
SWIDTH 960 0
DWIDTH 12 0
BBX 12 11 0 -1
BITMAP
7E40
0240
0240
1240
1240
7F40
0040
3FC0
2040
2040
1FC0
ENDCHAR
STARTCHAR uniAD45
ENCODING 44357
SWIDTH 960 0
DWIDTH 12 0
BBX 12 11 0 -1
BITMAP
7E40
0240
0240
1240
1240
7F40
0040
2040
3FC0
2040
1FC0
ENDCHAR
STARTCHAR uniAD46
ENCODING 44358
SWIDTH 960 0
DWIDTH 12 0
BBX 12 11 0 -1
BITMAP
7E40
0240
0240
1240
1240
7F40
0040
2480
3D40
2620
1C10
ENDCHAR
STARTCHAR uniAD47
ENCODING 44359
SWIDTH 960 0
DWIDTH 12 0
BBX 12 11 0 -1
BITMAP
7E40
0240
0240
1240
1240
7F40
0040
0200
0500
0880
3060
ENDCHAR
STARTCHAR uniAD48
ENCODING 44360
SWIDTH 960 0
DWIDTH 12 0
BBX 12 11 0 -1
BITMAP
7E40
0240
0240
1240
1240
7F40
0040
0880
0880
1540
2220
ENDCHAR
STARTCHAR uniAD49
ENCODING 44361
SWIDTH 960 0
DWIDTH 12 0
BBX 12 11 0 -1
BITMAP
7E40
0240
0240
1240
1240
7F40
0040
1F80
2040
2040
1F80
ENDCHAR
STARTCHAR uniAD4A
ENCODING 44362
SWIDTH 960 0
DWIDTH 12 0
BBX 12 11 0 -1
BITMAP
7E40
0240
0240
1240
1240
7F40
0040
3FE0
0100
0680
3860
ENDCHAR
STARTCHAR uniAD4B
ENCODING 44363
SWIDTH 960 0
DWIDTH 12 0
BBX 12 11 0 -1
BITMAP
7E40
0240
1240
1240
7F40
0040
0100
3FE0
0100
0680
3860
ENDCHAR
STARTCHAR uniAD4C
ENCODING 44364
SWIDTH 960 0
DWIDTH 12 0
BBX 12 11 0 -1
BITMAP
7E40
0240
1240
1240
7F40
0040
3FC0
2000
3FC0
2000
1FC0
ENDCHAR
STARTCHAR uniAD4D
ENCODING 44365
SWIDTH 960 0
DWIDTH 12 0
BBX 12 11 0 -1
BITMAP
7E40
0240
1240
1240
7F40
0040
3FC0
2000
3FC0
2000
1FC0
ENDCHAR
STARTCHAR uniAD4E
ENCODING 44366
SWIDTH 960 0
DWIDTH 12 0
BBX 12 11 0 -1
BITMAP
7E40
0240
0240
1240
1240
7F40
0040
3FE0
0880
0880
3FE0
ENDCHAR
STARTCHAR uniAD4F
ENCODING 44367
SWIDTH 960 0
DWIDTH 12 0
BBX 12 11 0 -1
BITMAP
7E40
0240
1240
1240
7F40
0040
0700
0000
7FE0
1040
0F80
ENDCHAR
STARTCHAR uniAD50
ENCODING 44368
SWIDTH 960 0
DWIDTH 12 0
BBX 12 11 0 -1
BITMAP
7FC0
0040
0040
0040
2240
2240
2240
2240
2200
FFE0
0000
ENDCHAR
STARTCHAR uniAD51
ENCODING 44369
SWIDTH 960 0
DWIDTH 12 0
BBX 12 11 0 -1
BITMAP
7FC0
0040
0040
2240
2240
FFE0
0000
7FC0
0040
0040
0040
ENDCHAR
STARTCHAR uniAD52
ENCODING 44370
SWIDTH 960 0
DWIDTH 12 0
BBX 12 11 0 -1
BITMAP
7FC0
0040
0040
2240
2240
FFE0
0000
7FC0
0440
0440
0440
ENDCHAR
STARTCHAR uniAD53
ENCODING 44371
SWIDTH 960 0
DWIDTH 12 0
BBX 12 11 0 -1
BITMAP
7FC0
0040
0040
2240
2240
FFE0
0000
7880
0880
0940
0A20
ENDCHAR
STARTCHAR uniAD54
ENCODING 44372
SWIDTH 960 0
DWIDTH 12 0
BBX 12 11 0 -1
BITMAP
7FC0
0040
0040
0040
1140
FFE0
0000
4000
4000
4000
3FC0
ENDCHAR
STARTCHAR uniAD55
ENCODING 44373
SWIDTH 960 0
DWIDTH 12 0
BBX 12 11 0 -1
BITMAP
7FC0
0040
0040
2240
2240
FFE0
0000
47C0
4100
4280
3C40
ENDCHAR
STARTCHAR uniAD56
ENCODING 44374
SWIDTH 960 0
DWIDTH 12 0
BBX 12 11 0 -1
BITMAP
7FC0
0040
0040
2240
2240
FFE0
0100
47E0
4240
4240
3980
ENDCHAR
STARTCHAR uniAD57
ENCODING 44375
SWIDTH 960 0
DWIDTH 12 0
BBX 12 11 0 -1
BITMAP
7FC0
0040
0040
2240
2240
FFE0
0000
7FC0
4000
4000
3FC0
ENDCHAR
STARTCHAR uniAD58
ENCODING 44376
SWIDTH 960 0
DWIDTH 12 0
BBX 12 11 0 -1
BITMAP
7FC0
0040
2240
2240
FFE0
0000
7FC0
0040
7FC0
4000
3FC0
ENDCHAR
STARTCHAR uniAD59
ENCODING 44377
SWIDTH 960 0
DWIDTH 12 0
BBX 12 11 0 -1
BITMAP
7FC0
0040
2240
2240
FFE0
0000
7BC0
0840
7840
4040
3C40
ENDCHAR
STARTCHAR uniAD5A
ENCODING 44378
SWIDTH 960 0
DWIDTH 12 0
BBX 12 11 0 -1
BITMAP
7FC0
0040
2240
2240
FFE0
0000
7BC0
0A40
7A40
4240
3FC0
ENDCHAR
STARTCHAR uniAD5B
ENCODING 44379
SWIDTH 960 0
DWIDTH 12 0
BBX 12 11 0 -1
BITMAP
7FC0
0040
2240
2240
FFE0
0000
7A40
0A40
7BC0
4240
3FC0
ENDCHAR
STARTCHAR uniAD5C
ENCODING 44380
SWIDTH 960 0
DWIDTH 12 0
BBX 12 11 0 -1
BITMAP
7FC0
0040
2240
2240
FFE0
0000
7900
0900
7A80
4440
3820
ENDCHAR
STARTCHAR uniAD5D
ENCODING 44381
SWIDTH 960 0
DWIDTH 12 0
BBX 12 11 0 -1
BITMAP
7FC0
0040
2240
2240
FFE0
0000
7BC0
0A00
7B80
4200
3FC0
ENDCHAR
STARTCHAR uniAD5E
ENCODING 44382
SWIDTH 960 0
DWIDTH 12 0
BBX 12 11 0 -1
BITMAP
7FC0
0040
2240
2240
FFE0
0000
77C0
1280
7280
4280
3FC0
ENDCHAR
STARTCHAR uniAD5F
ENCODING 44383
SWIDTH 960 0
DWIDTH 12 0
BBX 12 11 0 -1
BITMAP
7FC0
0040
2240
2240
FFE0
0000
7880
0FE0
7A40
4240
3980
ENDCHAR
STARTCHAR uniAD60
ENCODING 44384
SWIDTH 960 0
DWIDTH 12 0
BBX 12 11 0 -1
BITMAP
7FC0
0040
0040
2240
2240
FFE0
0000
7FC0
4040
4040
3FC0
ENDCHAR
STARTCHAR uniAD61
ENCODING 44385
SWIDTH 960 0
DWIDTH 12 0
BBX 12 11 0 -1
BITMAP
7FC0
0040
0040
2240
2240
FFE0
0000
4040
7FC0
4040
3FC0
ENDCHAR
STARTCHAR uniAD62
ENCODING 44386
SWIDTH 960 0
DWIDTH 12 0
BBX 12 11 0 -1
BITMAP
7FC0
0040
0040
2240
2240
FFE0
0000
4900
7A80
4C40
3820
ENDCHAR
STARTCHAR uniAD63
ENCODING 44387
SWIDTH 960 0
DWIDTH 12 0
BBX 12 11 0 -1
BITMAP
7FC0
0040
0040
2240
2240
FFE0
0000
0400
0A00
1100
60C0
ENDCHAR
STARTCHAR uniAD64
ENCODING 44388
SWIDTH 960 0
DWIDTH 12 0
BBX 12 11 0 -1
BITMAP
7FC0
0040
0040
2240
2240
FFE0
0000
1100
1100
2A80
4440
ENDCHAR
STARTCHAR uniAD65
ENCODING 44389
SWIDTH 960 0
DWIDTH 12 0
BBX 12 11 0 -1
BITMAP
7FC0
0040
0040
2240
2240
FFE0
0000
3F80
4040
4040
3F80
ENDCHAR
STARTCHAR uniAD66
ENCODING 44390
SWIDTH 960 0
DWIDTH 12 0
BBX 12 11 0 -1
BITMAP
7FC0
0040
0040
2240
2240
FFE0
0000
7FC0
0400
0A00
71C0
ENDCHAR
STARTCHAR uniAD67
ENCODING 44391
SWIDTH 960 0
DWIDTH 12 0
BBX 12 11 0 -1
BITMAP
7FC0
0040
2240
2240
FFE0
0000
0200
7FC0
0400
1B00
60C0
ENDCHAR
STARTCHAR uniAD68
ENCODING 44392
SWIDTH 960 0
DWIDTH 12 0
BBX 12 11 0 -1
BITMAP
7FC0
0040
2240
2240
FFE0
0000
7FC0
4000
7F80
4000
3FC0
ENDCHAR
STARTCHAR uniAD69
ENCODING 44393
SWIDTH 960 0
DWIDTH 12 0
BBX 12 11 0 -1
BITMAP
7FC0
0040
2240
2240
FFE0
0000
7FC0
4000
7F80
4000
3FC0
ENDCHAR
STARTCHAR uniAD6A
ENCODING 44394
SWIDTH 960 0
DWIDTH 12 0
BBX 12 11 0 -1
BITMAP
7FC0
0040
0040
2240
2240
FFE0
0000
7FC0
1100
1100
7FC0
ENDCHAR
STARTCHAR uniAD6B
ENCODING 44395
SWIDTH 960 0
DWIDTH 12 0
BBX 12 11 0 -1
BITMAP
7FC0
0040
2240
2240
FFE0
0000
0E00
0000
7FC0
2080
1F00
ENDCHAR
STARTCHAR uniAD6C
ENCODING 44396
SWIDTH 960 0
DWIDTH 12 0
BBX 12 11 0 -1
BITMAP
7FC0
0040
0040
0040
0040
0040
FFE0
0400
0400
0400
0400
ENDCHAR
STARTCHAR uniAD6D
ENCODING 44397
SWIDTH 960 0
DWIDTH 12 0
BBX 12 11 0 -1
BITMAP
7FC0
0040
0040
0040
0000
FFE0
0400
7FC0
0040
0040
0040
ENDCHAR
STARTCHAR uniAD6E
ENCODING 44398
SWIDTH 960 0
DWIDTH 12 0
BBX 12 11 0 -1
BITMAP
7FC0
0040
0040
0040
0000
FFE0
0400
7FC0
0440
0440
0440
ENDCHAR
STARTCHAR uniAD6F
ENCODING 44399
SWIDTH 960 0
DWIDTH 12 0
BBX 12 11 0 -1
BITMAP
7FC0
0040
0040
0040
0000
FFE0
0400
7880
0880
0940
0A20
ENDCHAR
STARTCHAR uniAD70
ENCODING 44400
SWIDTH 960 0
DWIDTH 12 0
BBX 12 11 0 -1
BITMAP
7FC0
0040
0040
0040
0000
FFE0
0400
4400
4000
4000
3FC0
ENDCHAR
STARTCHAR uniAD71
ENCODING 44401
SWIDTH 960 0
DWIDTH 12 0
BBX 12 11 0 -1
BITMAP
7FC0
0040
0040
0040
0000
FFE0
0400
47C0
4100
4280
3C40
ENDCHAR
STARTCHAR uniAD72
ENCODING 44402
SWIDTH 960 0
DWIDTH 12 0
BBX 12 11 0 -1
BITMAP
7FC0
0040
0040
0040
0000
FFE0
0400
47E0
4240
4240
3980
ENDCHAR
STARTCHAR uniAD73
ENCODING 44403
SWIDTH 960 0
DWIDTH 12 0
BBX 12 11 0 -1
BITMAP
7FC0
0040
0040
0040
0000
FFE0
0400
7FC0
4000
4000
3FC0
ENDCHAR
STARTCHAR uniAD74
ENCODING 44404
SWIDTH 960 0
DWIDTH 12 0
BBX 12 11 0 -1
BITMAP
7FC0
0040
0040
0040
FFE0
0400
7FC0
0040
7FC0
4000
3FC0
ENDCHAR
STARTCHAR uniAD75
ENCODING 44405
SWIDTH 960 0
DWIDTH 12 0
BBX 12 11 0 -1
BITMAP
7FC0
0040
0040
0040
FFE0
0400
7BC0
0840
7840
4040
3C40
ENDCHAR
STARTCHAR uniAD76
ENCODING 44406
SWIDTH 960 0
DWIDTH 12 0
BBX 12 11 0 -1
BITMAP
7FC0
0040
0040
0040
FFE0
0400
7BC0
0A40
7A40
4240
3FC0
ENDCHAR
STARTCHAR uniAD77
ENCODING 44407
SWIDTH 960 0
DWIDTH 12 0
BBX 12 11 0 -1
BITMAP
7FC0
0040
0040
0040
FFE0
0400
7A40
0A40
7BC0
4240
3FC0
ENDCHAR
STARTCHAR uniAD78
ENCODING 44408
SWIDTH 960 0
DWIDTH 12 0
BBX 12 11 0 -1
BITMAP
7FC0
0040
0040
0040
FFE0
0400
7900
0900
7A80
4440
3820
ENDCHAR
STARTCHAR uniAD79
ENCODING 44409
SWIDTH 960 0
DWIDTH 12 0
BBX 12 11 0 -1
BITMAP
7FC0
0040
0040
0040
FFE0
0400
7BC0
0A00
7B80
4200
3FC0
ENDCHAR
STARTCHAR uniAD7A
ENCODING 44410
SWIDTH 960 0
DWIDTH 12 0
BBX 12 11 0 -1
BITMAP
7FC0
0040
0040
0040
FFE0
0400
77C0
1280
7280
4280
3FC0
ENDCHAR
STARTCHAR uniAD7B
ENCODING 44411
SWIDTH 960 0
DWIDTH 12 0
BBX 12 11 0 -1
BITMAP
7FC0
0040
0040
0040
FFE0
0400
7880
0FE0
7A40
4240
3980
ENDCHAR
STARTCHAR uniAD7C
ENCODING 44412
SWIDTH 960 0
DWIDTH 12 0
BBX 12 11 0 -1
BITMAP
7FC0
0040
0040
0040
0000
FFE0
0400
7FC0
4040
4040
3FC0
ENDCHAR
STARTCHAR uniAD7D
ENCODING 44413
SWIDTH 960 0
DWIDTH 12 0
BBX 12 11 0 -1
BITMAP
7FC0
0040
0040
0040
0000
FFE0
0400
4040
7FC0
4040
3FC0
ENDCHAR
STARTCHAR uniAD7E
ENCODING 44414
SWIDTH 960 0
DWIDTH 12 0
BBX 12 11 0 -1
BITMAP
7FC0
0040
0040
0040
0000
FFE0
0400
4900
7A80
4C40
3820
ENDCHAR
STARTCHAR uniAD7F
ENCODING 44415
SWIDTH 960 0
DWIDTH 12 0
BBX 12 11 0 -1
BITMAP
7FC0
0040
0040
0040
0000
FFE0
0400
0400
0A00
1100
60C0
ENDCHAR
STARTCHAR uniAD80
ENCODING 44416
SWIDTH 960 0
DWIDTH 12 0
BBX 12 11 0 -1
BITMAP
7FC0
0040
0040
0040
0000
FFE0
0400
1100
1100
2A80
4440
ENDCHAR
STARTCHAR uniAD81
ENCODING 44417
SWIDTH 960 0
DWIDTH 12 0
BBX 12 11 0 -1
BITMAP
7FC0
0040
0040
0040
0000
FFE0
0400
3F80
4040
4040
3F80
ENDCHAR
STARTCHAR uniAD82
ENCODING 44418
SWIDTH 960 0
DWIDTH 12 0
BBX 12 11 0 -1
BITMAP
7FC0
0040
0040
0040
0000
FFE0
0400
7FC0
0400
0A00
71C0
ENDCHAR
STARTCHAR uniAD83
ENCODING 44419
SWIDTH 960 0
DWIDTH 12 0
BBX 12 11 0 -1
BITMAP
7FC0
0040
0040
0040
FFE0
0400
0200
7FC0
0400
1B00
60C0
ENDCHAR
STARTCHAR uniAD84
ENCODING 44420
SWIDTH 960 0
DWIDTH 12 0
BBX 12 11 0 -1
BITMAP
7FC0
0040
0040
0040
FFE0
0400
7FC0
4000
7F80
4000
3FC0
ENDCHAR
STARTCHAR uniAD85
ENCODING 44421
SWIDTH 960 0
DWIDTH 12 0
BBX 12 11 0 -1
BITMAP
7FC0
0040
0040
0040
FFE0
0400
7FC0
4000
7F80
4000
3FC0
ENDCHAR
STARTCHAR uniAD86
ENCODING 44422
SWIDTH 960 0
DWIDTH 12 0
BBX 12 11 0 -1
BITMAP
7FC0
0040
0040
0040
0000
FFE0
0400
7FC0
1100
1100
7FC0
ENDCHAR
STARTCHAR uniAD87
ENCODING 44423
SWIDTH 960 0
DWIDTH 12 0
BBX 12 11 0 -1
BITMAP
7FC0
0040
0040
0040
FFE0
0400
0E00
0000
FFE0
2080
1F00
ENDCHAR
STARTCHAR uniAD88
ENCODING 44424
SWIDTH 960 0
DWIDTH 12 0
BBX 12 11 0 -1
BITMAP
7E40
0240
0240
0240
0240
0040
7F40
0840
0BC0
0840
0840
ENDCHAR
STARTCHAR uniAD89
ENCODING 44425
SWIDTH 960 0
DWIDTH 12 0
BBX 12 11 0 -1
BITMAP
7E40
0240
02C0
0240
0040
7F40
0840
3FC0
0040
0040
0040
ENDCHAR
STARTCHAR uniAD8A
ENCODING 44426
SWIDTH 960 0
DWIDTH 12 0
BBX 12 11 0 -1
BITMAP
7E40
0240
02C0
0240
0040
7F40
0840
3FC0
0440
0440
0440
ENDCHAR
STARTCHAR uniAD8B
ENCODING 44427
SWIDTH 960 0
DWIDTH 12 0
BBX 12 11 0 -1
BITMAP
7E40
0240
02C0
0240
0040
7F40
0840
3C80
0480
0540
0220
ENDCHAR
STARTCHAR uniAD8C
ENCODING 44428
SWIDTH 960 0
DWIDTH 12 0
BBX 12 11 0 -1
BITMAP
7E40
0240
02C0
0240
0040
7F40
0840
2040
2000
2000
1FC0
ENDCHAR
STARTCHAR uniAD8D
ENCODING 44429
SWIDTH 960 0
DWIDTH 12 0
BBX 12 11 0 -1
BITMAP
7E40
0240
02C0
0240
0040
7F40
0840
27C0
2100
2280
1C60
ENDCHAR
STARTCHAR uniAD8E
ENCODING 44430
SWIDTH 960 0
DWIDTH 12 0
BBX 12 11 0 -1
BITMAP
7E40
0240
02C0
0240
0040
7F40
0940
27E0
2240
2240
1980
ENDCHAR
STARTCHAR uniAD8F
ENCODING 44431
SWIDTH 960 0
DWIDTH 12 0
BBX 12 11 0 -1
BITMAP
7E40
0240
02C0
0240
0040
7F40
0840
3FC0
2000
2000
1FC0
ENDCHAR
STARTCHAR uniAD90
ENCODING 44432
SWIDTH 960 0
DWIDTH 12 0
BBX 12 11 0 -1
BITMAP
7E40
0240
02C0
0240
7F40
0840
3FC0
0040
3FC0
2000
1FC0
ENDCHAR
STARTCHAR uniAD91
ENCODING 44433
SWIDTH 960 0
DWIDTH 12 0
BBX 12 11 0 -1
BITMAP
7E40
0240
02C0
0240
7F40
0840
3FC0
0440
3C40
2040
1C40
ENDCHAR
STARTCHAR uniAD92
ENCODING 44434
SWIDTH 960 0
DWIDTH 12 0
BBX 12 11 0 -1
BITMAP
7E40
0240
02C0
0240
7F40
0840
3DC0
0540
3D40
2140
1FC0
ENDCHAR
STARTCHAR uniAD93
ENCODING 44435
SWIDTH 960 0
DWIDTH 12 0
BBX 12 11 0 -1
BITMAP
7E40
0240
02C0
0240
7F40
0840
3A40
0A40
3BC0
2240
1FC0
ENDCHAR
STARTCHAR uniAD94
ENCODING 44436
SWIDTH 960 0
DWIDTH 12 0
BBX 12 11 0 -1
BITMAP
7E40
0240
02C0
0240
7F40
0840
3C80
0480
3D40
2220
1C10
ENDCHAR
STARTCHAR uniAD95
ENCODING 44437
SWIDTH 960 0
DWIDTH 12 0
BBX 12 11 0 -1
BITMAP
7E40
0240
02C0
0240
7F40
0840
3DE0
0500
3DC0
2100
1FE0
ENDCHAR
STARTCHAR uniAD96
ENCODING 44438
SWIDTH 960 0
DWIDTH 12 0
BBX 12 11 0 -1
BITMAP
7E40
0240
02C0
0240
7F40
0840
3BE0
0940
3940
2140
1FE0
ENDCHAR
STARTCHAR uniAD97
ENCODING 44439
SWIDTH 960 0
DWIDTH 12 0
BBX 12 11 0 -1
BITMAP
7E40
0240
02C0
0240
7F40
0840
3880
0FE0
3A40
2240
1980
ENDCHAR
STARTCHAR uniAD98
ENCODING 44440
SWIDTH 960 0
DWIDTH 12 0
BBX 12 11 0 -1
BITMAP
7E40
0240
02C0
0240
0040
7F40
0840
3FC0
2040
2040
1FC0
ENDCHAR
STARTCHAR uniAD99
ENCODING 44441
SWIDTH 960 0
DWIDTH 12 0
BBX 12 11 0 -1
BITMAP
7E40
0240
02C0
0240
0040
7F40
0840
2040
3FC0
2040
1FC0
ENDCHAR
STARTCHAR uniAD9A
ENCODING 44442
SWIDTH 960 0
DWIDTH 12 0
BBX 12 11 0 -1
BITMAP
7E40
0240
02C0
0240
0040
7F40
0840
2480
3D40
2620
1C10
ENDCHAR
STARTCHAR uniAD9B
ENCODING 44443
SWIDTH 960 0
DWIDTH 12 0
BBX 12 11 0 -1
BITMAP
7E40
0240
02C0
0240
0040
7F40
0840
0200
0500
0880
3060
ENDCHAR
STARTCHAR uniAD9C
ENCODING 44444
SWIDTH 960 0
DWIDTH 12 0
BBX 12 11 0 -1
BITMAP
7E40
0240
02C0
0240
0040
7F40
0840
0880
0880
1540
2220
ENDCHAR
STARTCHAR uniAD9D
ENCODING 44445
SWIDTH 960 0
DWIDTH 12 0
BBX 12 11 0 -1
BITMAP
7E40
0240
02C0
0240
0040
7F40
0840
1F80
2040
2040
1F80
ENDCHAR
STARTCHAR uniAD9E
ENCODING 44446
SWIDTH 960 0
DWIDTH 12 0
BBX 12 11 0 -1
BITMAP
7E40
0240
02C0
0240
0040
7F40
0840
3FE0
0100
0680
3860
ENDCHAR
STARTCHAR uniAD9F
ENCODING 44447
SWIDTH 960 0
DWIDTH 12 0
BBX 12 11 0 -1
BITMAP
7E40
0240
02C0
0240
7F40
0840
0100
3FE0
0100
0680
3860
ENDCHAR
STARTCHAR uniADA0
ENCODING 44448
SWIDTH 960 0
DWIDTH 12 0
BBX 12 11 0 -1
BITMAP
7E40
0240
02C0
0240
7F40
0840
3FC0
2000
3FC0
2000
1FC0
ENDCHAR
STARTCHAR uniADA1
ENCODING 44449
SWIDTH 960 0
DWIDTH 12 0
BBX 12 11 0 -1
BITMAP
7E40
0240
02C0
0240
7F40
0840
3FC0
2000
3FC0
2000
1FC0
ENDCHAR
STARTCHAR uniADA2
ENCODING 44450
SWIDTH 960 0
DWIDTH 12 0
BBX 12 11 0 -1
BITMAP
7E40
0240
02C0
0240
0040
7F40
0840
3FE0
0880
0880
3FE0
ENDCHAR
STARTCHAR uniADA3
ENCODING 44451
SWIDTH 960 0
DWIDTH 12 0
BBX 12 11 0 -1
BITMAP
7E40
0240
02C0
0240
7F40
0840
0700
0000
7FE0
1040
0F80
ENDCHAR
STARTCHAR uniADA4
ENCODING 44452
SWIDTH 960 0
DWIDTH 12 0
BBX 12 11 0 -1
BITMAP
7EA0
02A0
02A0
02A0
02A0
00A0
7EA0
10A0
13A0
10A0
10A0
ENDCHAR
STARTCHAR uniADA5
ENCODING 44453
SWIDTH 960 0
DWIDTH 12 0
BBX 12 11 0 -1
BITMAP
7CA0
04A0
05A0
04A0
00A0
7EA0
10A0
1FE0
0020
0020
0020
ENDCHAR
STARTCHAR uniADA6
ENCODING 44454
SWIDTH 960 0
DWIDTH 12 0
BBX 12 11 0 -1
BITMAP
7CA0
04A0
05A0
04A0
00A0
7EA0
10A0
1FE0
0220
0220
0220
ENDCHAR
STARTCHAR uniADA7
ENCODING 44455
SWIDTH 960 0
DWIDTH 12 0
BBX 12 11 0 -1
BITMAP
7CA0
04A0
05A0
04A0
00A0
7EA0
10A0
3C80
0480
0540
0220
ENDCHAR
STARTCHAR uniADA8
ENCODING 44456
SWIDTH 960 0
DWIDTH 12 0
BBX 12 11 0 -1
BITMAP
7CA0
04A0
05A0
04A0
00A0
7EA0
10A0
2020
2000
2000
1FE0
ENDCHAR
STARTCHAR uniADA9
ENCODING 44457
SWIDTH 960 0
DWIDTH 12 0
BBX 12 11 0 -1
BITMAP
7CA0
04A0
05A0
04A0
00A0
7EA0
10A0
23E0
2080
2140
1E30
ENDCHAR
STARTCHAR uniADAA
ENCODING 44458
SWIDTH 960 0
DWIDTH 12 0
BBX 12 11 0 -1
BITMAP
7CA0
04A0
05A0
04A0
00A0
7EA0
10A0
23F0
2120
2120
1CC0
ENDCHAR
STARTCHAR uniADAB
ENCODING 44459
SWIDTH 960 0
DWIDTH 12 0
BBX 12 11 0 -1
BITMAP
7CA0
04A0
05A0
04A0
00A0
7EA0
10A0
3FE0
2000
2000
1FE0
ENDCHAR
STARTCHAR uniADAC
ENCODING 44460
SWIDTH 960 0
DWIDTH 12 0
BBX 12 11 0 -1
BITMAP
7CA0
04A0
05A0
00A0
00A0
7EA0
3FE0
0020
3FE0
2000
1FE0
ENDCHAR
STARTCHAR uniADAD
ENCODING 44461
SWIDTH 960 0
DWIDTH 12 0
BBX 12 11 0 -1
BITMAP
7CA0
04A0
05A0
00A0
00A0
7EA0
3DE0
0420
3C20
2020
1E20
ENDCHAR
STARTCHAR uniADAE
ENCODING 44462
SWIDTH 960 0
DWIDTH 12 0
BBX 12 11 0 -1
BITMAP
7CA0
04A0
05A0
00A0
00A0
7EA0
3DE0
0520
3D20
2120
1FE0
ENDCHAR
STARTCHAR uniADAF
ENCODING 44463
SWIDTH 960 0
DWIDTH 12 0
BBX 12 11 0 -1
BITMAP
7CA0
04A0
05A0
00A0
00A0
7EA0
3DA0
0520
3DE0
2120
1FE0
ENDCHAR
STARTCHAR uniADB0
ENCODING 44464
SWIDTH 960 0
DWIDTH 12 0
BBX 12 11 0 -1
BITMAP
7CA0
04A0
05A0
00A0
00A0
7EA0
3CA0
0480
3D40
2220
1C10
ENDCHAR
STARTCHAR uniADB1
ENCODING 44465
SWIDTH 960 0
DWIDTH 12 0
BBX 12 11 0 -1
BITMAP
7CA0
04A0
05A0
00A0
00A0
7EA0
3DE0
0500
3DE0
2100
1FE0
ENDCHAR
STARTCHAR uniADB2
ENCODING 44466
SWIDTH 960 0
DWIDTH 12 0
BBX 12 11 0 -1
BITMAP
7CA0
04A0
05A0
00A0
00A0
7EA0
3BE0
0940
3940
2140
1FE0
ENDCHAR
STARTCHAR uniADB3
ENCODING 44467
SWIDTH 960 0
DWIDTH 12 0
BBX 12 11 0 -1
BITMAP
7CA0
04A0
05A0
00A0
00A0
7EA0
38A0
0FE0
3A40
2240
1980
ENDCHAR
STARTCHAR uniADB4
ENCODING 44468
SWIDTH 960 0
DWIDTH 12 0
BBX 12 11 0 -1
BITMAP
7CA0
04A0
05A0
04A0
00A0
7EA0
10A0
3FE0
2020
2020
1FE0
ENDCHAR
STARTCHAR uniADB5
ENCODING 44469
SWIDTH 960 0
DWIDTH 12 0
BBX 12 11 0 -1
BITMAP
7CA0
04A0
05A0
04A0
00A0
7EA0
10A0
2020
3FE0
2020
1FE0
ENDCHAR
STARTCHAR uniADB6
ENCODING 44470
SWIDTH 960 0
DWIDTH 12 0
BBX 12 11 0 -1
BITMAP
7CA0
04A0
05A0
04A0
00A0
7EA0
10A0
2480
3D40
2620
1C10
ENDCHAR
STARTCHAR uniADB7
ENCODING 44471
SWIDTH 960 0
DWIDTH 12 0
BBX 12 11 0 -1
BITMAP
7CA0
04A0
05A0
04A0
00A0
7EA0
10A0
0100
0100
0680
3860
ENDCHAR
STARTCHAR uniADB8
ENCODING 44472
SWIDTH 960 0
DWIDTH 12 0
BBX 12 11 0 -1
BITMAP
7CA0
04A0
05A0
04A0
00A0
7EA0
10A0
0880
0880
1540
2220
ENDCHAR
STARTCHAR uniADB9
ENCODING 44473
SWIDTH 960 0
DWIDTH 12 0
BBX 12 11 0 -1
BITMAP
7CA0
04A0
05A0
04A0
00A0
7EA0
10A0
1FC0
2020
2020
1FC0
ENDCHAR
STARTCHAR uniADBA
ENCODING 44474
SWIDTH 960 0
DWIDTH 12 0
BBX 12 11 0 -1
BITMAP
7CA0
04A0
05A0
04A0
00A0
7EA0
10A0
3FE0
0100
0680
3860
ENDCHAR
STARTCHAR uniADBB
ENCODING 44475
SWIDTH 960 0
DWIDTH 12 0
BBX 12 11 0 -1
BITMAP
7CA0
04A0
05A0
00A0
00A0
7EA0
10A0
3FE0
0100
0680
3860
ENDCHAR
STARTCHAR uniADBC
ENCODING 44476
SWIDTH 960 0
DWIDTH 12 0
BBX 12 11 0 -1
BITMAP
7CA0
04A0
05A0
00A0
00A0
7EA0
3FE0
2000
3FE0
2000
1FE0
ENDCHAR
STARTCHAR uniADBD
ENCODING 44477
SWIDTH 960 0
DWIDTH 12 0
BBX 12 11 0 -1
BITMAP
7CA0
04A0
05A0
00A0
00A0
7EA0
3FE0
2000
3FE0
2000
1FE0
ENDCHAR
STARTCHAR uniADBE
ENCODING 44478
SWIDTH 960 0
DWIDTH 12 0
BBX 12 11 0 -1
BITMAP
7CA0
04A0
05A0
04A0
00A0
7EA0
10A0
3FE0
0880
0880
3FE0
ENDCHAR
STARTCHAR uniADBF
ENCODING 44479
SWIDTH 960 0
DWIDTH 12 0
BBX 12 11 0 -1
BITMAP
7CA0
04A0
05A0
00A0
00A0
7EA0
17A0
0000
3FE0
1040
0F80
ENDCHAR
STARTCHAR uniADC0
ENCODING 44480
SWIDTH 960 0
DWIDTH 12 0
BBX 12 11 0 -1
BITMAP
7E40
0240
0240
0240
0240
0040
7F40
0840
0840
0840
0840
ENDCHAR
STARTCHAR uniADC1
ENCODING 44481
SWIDTH 960 0
DWIDTH 12 0
BBX 12 11 0 -1
BITMAP
7E40
0240
0240
0240
0040
7FC0
0840
3FC0
0040
0040
0040
ENDCHAR
STARTCHAR uniADC2
ENCODING 44482
SWIDTH 960 0
DWIDTH 12 0
BBX 12 11 0 -1
BITMAP
7E40
0240
0240
0240
0040
7FC0
0840
3FC0
0440
0440
0440
ENDCHAR
STARTCHAR uniADC3
ENCODING 44483
SWIDTH 960 0
DWIDTH 12 0
BBX 12 11 0 -1
BITMAP
7E40
0240
0240
0240
0040
7FC0
0840
3C80
0480
0540
0220
ENDCHAR
STARTCHAR uniADC4
ENCODING 44484
SWIDTH 960 0
DWIDTH 12 0
BBX 12 11 0 -1
BITMAP
7E40
0240
0240
0240
0040
7FC0
0840
2000
2000
2000
1FC0
ENDCHAR
STARTCHAR uniADC5
ENCODING 44485
SWIDTH 960 0
DWIDTH 12 0
BBX 12 11 0 -1
BITMAP
7E40
0240
0240
0240
0040
7FC0
0840
27C0
2100
2280
1C60
ENDCHAR
STARTCHAR uniADC6
ENCODING 44486
SWIDTH 960 0
DWIDTH 12 0
BBX 12 11 0 -1
BITMAP
7E40
0240
0240
0240
0040
7FC0
0940
27E0
2240
2240
1980
ENDCHAR
STARTCHAR uniADC7
ENCODING 44487
SWIDTH 960 0
DWIDTH 12 0
BBX 12 11 0 -1
BITMAP
7E40
0240
0240
0240
0040
7FC0
0840
3FC0
2000
2000
1FC0
ENDCHAR
STARTCHAR uniADC8
ENCODING 44488
SWIDTH 960 0
DWIDTH 12 0
BBX 12 11 0 -1
BITMAP
7E40
0240
0240
0240
0040
7FC0
3FC0
0040
3FC0
2000
1FC0
ENDCHAR
STARTCHAR uniADC9
ENCODING 44489
SWIDTH 960 0
DWIDTH 12 0
BBX 12 11 0 -1
BITMAP
7E40
0240
0240
0240
0040
7FC0
3FC0
0440
3C40
2040
1C40
ENDCHAR
STARTCHAR uniADCA
ENCODING 44490
SWIDTH 960 0
DWIDTH 12 0
BBX 12 11 0 -1
BITMAP
7E40
0240
0240
0240
0040
7FC0
3DC0
0540
3D40
2140
1FC0
ENDCHAR
STARTCHAR uniADCB
ENCODING 44491
SWIDTH 960 0
DWIDTH 12 0
BBX 12 11 0 -1
BITMAP
7E40
0240
0240
0240
0040
7FC0
3A40
0A40
3BC0
2240
1FC0
ENDCHAR
STARTCHAR uniADCC
ENCODING 44492
SWIDTH 960 0
DWIDTH 12 0
BBX 12 11 0 -1
BITMAP
7E40
0240
0240
0240
0040
7FC0
3CC0
0480
3D40
2220
1C10
ENDCHAR
STARTCHAR uniADCD
ENCODING 44493
SWIDTH 960 0
DWIDTH 12 0
BBX 12 11 0 -1
BITMAP
7E40
0240
0240
0240
0040
7FC0
3DE0
0500
3DC0
2100
1FE0
ENDCHAR
STARTCHAR uniADCE
ENCODING 44494
SWIDTH 960 0
DWIDTH 12 0
BBX 12 11 0 -1
BITMAP
7E40
0240
0240
0240
0040
7FC0
3BE0
0940
3940
2140
1FE0
ENDCHAR
STARTCHAR uniADCF
ENCODING 44495
SWIDTH 960 0
DWIDTH 12 0
BBX 12 11 0 -1
BITMAP
7E40
0240
0240
0240
0040
7FC0
38C0
0FE0
3A40
2240
1980
ENDCHAR
STARTCHAR uniADD0
ENCODING 44496
SWIDTH 960 0
DWIDTH 12 0
BBX 12 11 0 -1
BITMAP
7E40
0240
0240
0240
0040
7FC0
0840
3FC0
2040
2040
1FC0
ENDCHAR
STARTCHAR uniADD1
ENCODING 44497
SWIDTH 960 0
DWIDTH 12 0
BBX 12 11 0 -1
BITMAP
7E40
0240
0240
0240
0040
7FC0
0840
2040
3FC0
2040
1FC0
ENDCHAR
STARTCHAR uniADD2
ENCODING 44498
SWIDTH 960 0
DWIDTH 12 0
BBX 12 11 0 -1
BITMAP
7E40
0240
0240
0240
0040
7FC0
0840
2480
3D40
2620
1C10
ENDCHAR
STARTCHAR uniADD3
ENCODING 44499
SWIDTH 960 0
DWIDTH 12 0
BBX 12 11 0 -1
BITMAP
7E40
0240
0240
0240
0040
7FC0
0840
0200
0500
0880
3060
ENDCHAR
STARTCHAR uniADD4
ENCODING 44500
SWIDTH 960 0
DWIDTH 12 0
BBX 12 11 0 -1
BITMAP
7E40
0240
0240
0240
0040
7FC0
0840
0880
0880
1540
2220
ENDCHAR
STARTCHAR uniADD5
ENCODING 44501
SWIDTH 960 0
DWIDTH 12 0
BBX 12 11 0 -1
BITMAP
7E40
0240
0240
0240
0040
7FC0
0840
1F80
2040
2040
1F80
ENDCHAR
STARTCHAR uniADD6
ENCODING 44502
SWIDTH 960 0
DWIDTH 12 0
BBX 12 11 0 -1
BITMAP
7E40
0240
0240
0240
0040
7FC0
0840
3FE0
0100
0680
3860
ENDCHAR
STARTCHAR uniADD7
ENCODING 44503
SWIDTH 960 0
DWIDTH 12 0
BBX 12 11 0 -1
BITMAP
7E40
0240
0240
0240
0040
7FC0
0940
3FE0
0100
0680
3860
ENDCHAR
STARTCHAR uniADD8
ENCODING 44504
SWIDTH 960 0
DWIDTH 12 0
BBX 12 11 0 -1
BITMAP
7E40
0240
0240
0240
0040
7FC0
3FC0
2000
3FC0
2000
1FC0
ENDCHAR
STARTCHAR uniADD9
ENCODING 44505
SWIDTH 960 0
DWIDTH 12 0
BBX 12 11 0 -1
BITMAP
7E40
0240
0240
0240
0040
7FC0
3FC0
2000
3FC0
2000
1FC0
ENDCHAR
STARTCHAR uniADDA
ENCODING 44506
SWIDTH 960 0
DWIDTH 12 0
BBX 12 11 0 -1
BITMAP
7E40
0240
0240
0240
0040
7FC0
0840
3FE0
0880
0880
3FE0
ENDCHAR
STARTCHAR uniADDB
ENCODING 44507
SWIDTH 960 0
DWIDTH 12 0
BBX 12 11 0 -1
BITMAP
7E40
0240
0240
0240
0040
7FC0
0F40
0000
7FE0
1040
0F80
ENDCHAR
STARTCHAR uniADDC
ENCODING 44508
SWIDTH 960 0
DWIDTH 12 0
BBX 12 11 0 -1
BITMAP
7FC0
0040
0040
0040
0040
0040
FFE0
1100
1100
1100
1100
ENDCHAR
STARTCHAR uniADDD
ENCODING 44509
SWIDTH 960 0
DWIDTH 12 0
BBX 12 11 0 -1
BITMAP
7FC0
0040
0040
0040
0000
FFE0
1100
7FC0
0040
0040
0040
ENDCHAR
STARTCHAR uniADDE
ENCODING 44510
SWIDTH 960 0
DWIDTH 12 0
BBX 12 11 0 -1
BITMAP
7FC0
0040
0040
0040
0000
FFE0
1100
7FC0
0440
0440
0440
ENDCHAR
STARTCHAR uniADDF
ENCODING 44511
SWIDTH 960 0
DWIDTH 12 0
BBX 12 11 0 -1
BITMAP
7FC0
0040
0040
0040
0000
FFE0
1100
7880
0880
0940
0A20
ENDCHAR
STARTCHAR uniADE0
ENCODING 44512
SWIDTH 960 0
DWIDTH 12 0
BBX 12 11 0 -1
BITMAP
7FC0
0040
0040
0040
0000
FFE0
1100
5100
4000
4000
3FC0
ENDCHAR
STARTCHAR uniADE1
ENCODING 44513
SWIDTH 960 0
DWIDTH 12 0
BBX 12 11 0 -1
BITMAP
7FC0
0040
0040
0040
0000
FFE0
1100
47C0
4100
4280
3C40
ENDCHAR
STARTCHAR uniADE2
ENCODING 44514
SWIDTH 960 0
DWIDTH 12 0
BBX 12 11 0 -1
BITMAP
7FC0
0040
0040
0040
0000
FFE0
1100
47E0
4240
4240
3980
ENDCHAR
STARTCHAR uniADE3
ENCODING 44515
SWIDTH 960 0
DWIDTH 12 0
BBX 12 11 0 -1
BITMAP
7FC0
0040
0040
0040
0000
FFE0
1100
7FC0
4000
4000
3FC0
ENDCHAR
STARTCHAR uniADE4
ENCODING 44516
SWIDTH 960 0
DWIDTH 12 0
BBX 12 11 0 -1
BITMAP
7FC0
0040
0040
0040
FFE0
1100
7FC0
0040
7FC0
4000
3FC0
ENDCHAR
STARTCHAR uniADE5
ENCODING 44517
SWIDTH 960 0
DWIDTH 12 0
BBX 12 11 0 -1
BITMAP
7FC0
0040
0040
0040
FFE0
1100
7BC0
0840
7840
4040
3C40
ENDCHAR
STARTCHAR uniADE6
ENCODING 44518
SWIDTH 960 0
DWIDTH 12 0
BBX 12 11 0 -1
BITMAP
7FC0
0040
0040
0040
FFE0
1100
7BC0
0A40
7A40
4240
3FC0
ENDCHAR
STARTCHAR uniADE7
ENCODING 44519
SWIDTH 960 0
DWIDTH 12 0
BBX 12 11 0 -1
BITMAP
7FC0
0040
0040
0040
FFE0
1100
7A40
0A40
7BC0
4240
3FC0
ENDCHAR
STARTCHAR uniADE8
ENCODING 44520
SWIDTH 960 0
DWIDTH 12 0
BBX 12 11 0 -1
BITMAP
7FC0
0040
0040
0040
FFE0
1100
7900
0900
7A80
4440
3820
ENDCHAR
STARTCHAR uniADE9
ENCODING 44521
SWIDTH 960 0
DWIDTH 12 0
BBX 12 11 0 -1
BITMAP
7FC0
0040
0040
0040
FFE0
1100
7BC0
0A00
7B80
4200
3FC0
ENDCHAR
STARTCHAR uniADEA
ENCODING 44522
SWIDTH 960 0
DWIDTH 12 0
BBX 12 11 0 -1
BITMAP
7FC0
0040
0040
0040
FFE0
1100
77C0
1280
7280
4280
3FC0
ENDCHAR
STARTCHAR uniADEB
ENCODING 44523
SWIDTH 960 0
DWIDTH 12 0
BBX 12 11 0 -1
BITMAP
7FC0
0040
0040
0040
FFE0
1100
7880
0FE0
7A40
4240
3980
ENDCHAR
STARTCHAR uniADEC
ENCODING 44524
SWIDTH 960 0
DWIDTH 12 0
BBX 12 11 0 -1
BITMAP
7FC0
0040
0040
0040
0000
FFE0
1100
7FC0
4040
4040
3FC0
ENDCHAR
STARTCHAR uniADED
ENCODING 44525
SWIDTH 960 0
DWIDTH 12 0
BBX 12 11 0 -1
BITMAP
7FC0
0040
0040
0040
0000
FFE0
1100
4040
7FC0
4040
3FC0
ENDCHAR
STARTCHAR uniADEE
ENCODING 44526
SWIDTH 960 0
DWIDTH 12 0
BBX 12 11 0 -1
BITMAP
7FC0
0040
0040
0040
0000
FFE0
1100
4900
7A80
4C40
3820
ENDCHAR
STARTCHAR uniADEF
ENCODING 44527
SWIDTH 960 0
DWIDTH 12 0
BBX 12 11 0 -1
BITMAP
7FC0
0040
0040
0040
0000
FFE0
1100
0400
0A00
1100
60C0
ENDCHAR
STARTCHAR uniADF0
ENCODING 44528
SWIDTH 960 0
DWIDTH 12 0
BBX 12 11 0 -1
BITMAP
7FC0
0040
0040
0040
0000
FFE0
1100
1100
1100
2A80
4440
ENDCHAR
STARTCHAR uniADF1
ENCODING 44529
SWIDTH 960 0
DWIDTH 12 0
BBX 12 11 0 -1
BITMAP
7FC0
0040
0040
0040
0000
FFE0
1100
3F80
4040
4040
3F80
ENDCHAR
STARTCHAR uniADF2
ENCODING 44530
SWIDTH 960 0
DWIDTH 12 0
BBX 12 11 0 -1
BITMAP
7FC0
0040
0040
0040
0000
FFE0
1100
7FC0
0400
0A00
71C0
ENDCHAR
STARTCHAR uniADF3
ENCODING 44531
SWIDTH 960 0
DWIDTH 12 0
BBX 12 11 0 -1
BITMAP
7FC0
0040
0040
0040
FFE0
1100
0200
7FC0
0400
1B00
60C0
ENDCHAR
STARTCHAR uniADF4
ENCODING 44532
SWIDTH 960 0
DWIDTH 12 0
BBX 12 11 0 -1
BITMAP
7FC0
0040
0040
0040
FFE0
1100
7FC0
4000
7F80
4000
3FC0
ENDCHAR
STARTCHAR uniADF5
ENCODING 44533
SWIDTH 960 0
DWIDTH 12 0
BBX 12 11 0 -1
BITMAP
7FC0
0040
0040
0040
FFE0
1100
7FC0
4000
7F80
4000
3FC0
ENDCHAR
STARTCHAR uniADF6
ENCODING 44534
SWIDTH 960 0
DWIDTH 12 0
BBX 12 11 0 -1
BITMAP
7FC0
0040
0040
0040
0000
FFE0
1100
7FC0
1100
1100
7FC0
ENDCHAR
STARTCHAR uniADF7
ENCODING 44535
SWIDTH 960 0
DWIDTH 12 0
BBX 12 11 0 -1
BITMAP
7FC0
0040
0040
0040
FFE0
1100
0E00
0000
FFE0
2080
1F00
ENDCHAR
STARTCHAR uniADF8
ENCODING 44536
SWIDTH 960 0
DWIDTH 12 0
BBX 12 11 0 -1
BITMAP
7FC0
0040
0040
0040
0040
0040
0040
0040
0000
FFE0
0000
ENDCHAR
STARTCHAR uniADF9
ENCODING 44537
SWIDTH 960 0
DWIDTH 12 0
BBX 12 11 0 -1
BITMAP
7FC0
0040
0040
0040
0040
FFE0
0000
7FC0
0040
0040
0040
ENDCHAR
STARTCHAR uniADFA
ENCODING 44538
SWIDTH 960 0
DWIDTH 12 0
BBX 12 11 0 -1
BITMAP
7FC0
0040
0040
0040
0040
FFE0
0000
7FC0
0440
0440
0440
ENDCHAR
STARTCHAR uniADFB
ENCODING 44539
SWIDTH 960 0
DWIDTH 12 0
BBX 12 11 0 -1
BITMAP
7FC0
0040
0040
0040
0040
FFE0
0000
7880
0880
0940
0A20
ENDCHAR
STARTCHAR uniADFC
ENCODING 44540
SWIDTH 960 0
DWIDTH 12 0
BBX 12 11 0 -1
BITMAP
7FC0
0040
0040
0040
0040
FFE0
0000
4000
4000
4000
3FC0
ENDCHAR
STARTCHAR uniADFD
ENCODING 44541
SWIDTH 960 0
DWIDTH 12 0
BBX 12 11 0 -1
BITMAP
7FC0
0040
0040
0040
0040
FFE0
0000
47C0
4100
4280
3C40
ENDCHAR
STARTCHAR uniADFE
ENCODING 44542
SWIDTH 960 0
DWIDTH 12 0
BBX 12 11 0 -1
BITMAP
7FC0
0040
0040
0040
0040
FFE0
0100
47E0
4240
4240
3980
ENDCHAR
STARTCHAR uniADFF
ENCODING 44543
SWIDTH 960 0
DWIDTH 12 0
BBX 12 11 0 -1
BITMAP
7FC0
0040
0040
0040
0040
FFE0
0000
7FC0
4000
4000
3FC0
ENDCHAR
STARTCHAR uniAE00
ENCODING 44544
SWIDTH 960 0
DWIDTH 12 0
BBX 12 11 0 -1
BITMAP
7FC0
0040
0040
0040
FFE0
0000
7FC0
0040
7FC0
4000
3FC0
ENDCHAR
STARTCHAR uniAE01
ENCODING 44545
SWIDTH 960 0
DWIDTH 12 0
BBX 12 11 0 -1
BITMAP
7FC0
0040
0040
0040
FFE0
0000
7BC0
0840
7840
4040
3C40
ENDCHAR
STARTCHAR uniAE02
ENCODING 44546
SWIDTH 960 0
DWIDTH 12 0
BBX 12 11 0 -1
BITMAP
7FC0
0040
0040
0040
FFE0
0000
7BC0
0A40
7A40
4240
3FC0
ENDCHAR
STARTCHAR uniAE03
ENCODING 44547
SWIDTH 960 0
DWIDTH 12 0
BBX 12 11 0 -1
BITMAP
7FC0
0040
0040
0040
FFE0
0000
7A40
0A40
7BC0
4240
3FC0
ENDCHAR
STARTCHAR uniAE04
ENCODING 44548
SWIDTH 960 0
DWIDTH 12 0
BBX 12 11 0 -1
BITMAP
7FC0
0040
0040
0040
FFE0
0000
7900
0900
7A80
4440
3820
ENDCHAR
STARTCHAR uniAE05
ENCODING 44549
SWIDTH 960 0
DWIDTH 12 0
BBX 12 11 0 -1
BITMAP
7FC0
0040
0040
0040
FFE0
0000
7BC0
0A00
7B80
4200
3FC0
ENDCHAR
STARTCHAR uniAE06
ENCODING 44550
SWIDTH 960 0
DWIDTH 12 0
BBX 12 11 0 -1
BITMAP
7FC0
0040
0040
0040
FFE0
0000
77C0
1280
7280
4280
3FC0
ENDCHAR
STARTCHAR uniAE07
ENCODING 44551
SWIDTH 960 0
DWIDTH 12 0
BBX 12 11 0 -1
BITMAP
7FC0
0040
0040
0040
FFE0
0000
7880
0FE0
7A40
4240
3980
ENDCHAR
STARTCHAR uniAE08
ENCODING 44552
SWIDTH 960 0
DWIDTH 12 0
BBX 12 11 0 -1
BITMAP
7FC0
0040
0040
0040
0040
FFE0
0000
7FC0
4040
4040
3FC0
ENDCHAR
STARTCHAR uniAE09
ENCODING 44553
SWIDTH 960 0
DWIDTH 12 0
BBX 12 11 0 -1
BITMAP
7FC0
0040
0040
0040
0040
FFE0
0000
4040
7FC0
4040
3FC0
ENDCHAR
STARTCHAR uniAE0A
ENCODING 44554
SWIDTH 960 0
DWIDTH 12 0
BBX 12 11 0 -1
BITMAP
7FC0
0040
0040
0040
0040
FFE0
0000
4900
7A80
4C40
3820
ENDCHAR
STARTCHAR uniAE0B
ENCODING 44555
SWIDTH 960 0
DWIDTH 12 0
BBX 12 11 0 -1
BITMAP
7FC0
0040
0040
0040
0040
FFE0
0000
0400
0A00
1100
60C0
ENDCHAR
STARTCHAR uniAE0C
ENCODING 44556
SWIDTH 960 0
DWIDTH 12 0
BBX 12 11 0 -1
BITMAP
7FC0
0040
0040
0040
0040
FFE0
0000
1100
1100
2A80
4440
ENDCHAR
STARTCHAR uniAE0D
ENCODING 44557
SWIDTH 960 0
DWIDTH 12 0
BBX 12 11 0 -1
BITMAP
7FC0
0040
0040
0040
0040
FFE0
0000
3F80
4040
4040
3F80
ENDCHAR
STARTCHAR uniAE0E
ENCODING 44558
SWIDTH 960 0
DWIDTH 12 0
BBX 12 11 0 -1
BITMAP
7FC0
0040
0040
0040
0040
FFE0
0000
7FC0
0400
0A00
71C0
ENDCHAR
STARTCHAR uniAE0F
ENCODING 44559
SWIDTH 960 0
DWIDTH 12 0
BBX 12 11 0 -1
BITMAP
7FC0
0040
0040
0040
FFE0
0000
0200
7FC0
0400
1B00
60C0
ENDCHAR
STARTCHAR uniAE10
ENCODING 44560
SWIDTH 960 0
DWIDTH 12 0
BBX 12 11 0 -1
BITMAP
7FC0
0040
0040
0040
FFE0
0000
7FC0
4000
7F80
4000
3FC0
ENDCHAR
STARTCHAR uniAE11
ENCODING 44561
SWIDTH 960 0
DWIDTH 12 0
BBX 12 11 0 -1
BITMAP
7FC0
0040
0040
0040
FFE0
0000
7FC0
4000
7F80
4000
3FC0
ENDCHAR
STARTCHAR uniAE12
ENCODING 44562
SWIDTH 960 0
DWIDTH 12 0
BBX 12 11 0 -1
BITMAP
7FC0
0040
0040
0040
0040
FFE0
0000
7FC0
1100
1100
7FC0
ENDCHAR
STARTCHAR uniAE13
ENCODING 44563
SWIDTH 960 0
DWIDTH 12 0
BBX 12 11 0 -1
BITMAP
7FC0
0040
0040
0040
FFE0
0000
0E00
0000
7FC0
2080
1F00
ENDCHAR
STARTCHAR uniAE14
ENCODING 44564
SWIDTH 960 0
DWIDTH 12 0
BBX 12 11 0 -1
BITMAP
7F40
0140
0140
0140
0140
0140
0140
0040
7FC0
0040
0040
ENDCHAR
STARTCHAR uniAE15
ENCODING 44565
SWIDTH 960 0
DWIDTH 12 0
BBX 12 11 0 -1
BITMAP
7E40
0240
0240
0240
0240
7FC0
0040
3FC0
0040
0040
0040
ENDCHAR
STARTCHAR uniAE16
ENCODING 44566
SWIDTH 960 0
DWIDTH 12 0
BBX 12 11 0 -1
BITMAP
7E40
0240
0240
0240
0240
7FC0
0040
3FC0
0440
0440
0440
ENDCHAR
STARTCHAR uniAE17
ENCODING 44567
SWIDTH 960 0
DWIDTH 12 0
BBX 12 11 0 -1
BITMAP
7E40
0240
0240
0240
0240
7FC0
0040
3C80
0480
0540
0220
ENDCHAR
STARTCHAR uniAE18
ENCODING 44568
SWIDTH 960 0
DWIDTH 12 0
BBX 12 11 0 -1
BITMAP
7E40
0240
0240
0240
0240
7FC0
0040
2000
2000
2000
1FC0
ENDCHAR
STARTCHAR uniAE19
ENCODING 44569
SWIDTH 960 0
DWIDTH 12 0
BBX 12 11 0 -1
BITMAP
7E40
0240
0240
0240
0240
7FC0
0040
27C0
2100
2280
1C60
ENDCHAR
STARTCHAR uniAE1A
ENCODING 44570
SWIDTH 960 0
DWIDTH 12 0
BBX 12 11 0 -1
BITMAP
7E40
0240
0240
0240
0240
7FC0
0140
27E0
2240
2240
1980
ENDCHAR
STARTCHAR uniAE1B
ENCODING 44571
SWIDTH 960 0
DWIDTH 12 0
BBX 12 11 0 -1
BITMAP
7E40
0240
0240
0240
0240
7FC0
0040
3FC0
2000
2000
1FC0
ENDCHAR
STARTCHAR uniAE1C
ENCODING 44572
SWIDTH 960 0
DWIDTH 12 0
BBX 12 11 0 -1
BITMAP
7E40
0240
0240
0240
7FC0
0040
3FC0
0040
3FC0
2000
1FC0
ENDCHAR
STARTCHAR uniAE1D
ENCODING 44573
SWIDTH 960 0
DWIDTH 12 0
BBX 12 11 0 -1
BITMAP
7E40
0240
0240
0240
7FC0
0040
3FC0
0440
3C40
2040
1C40
ENDCHAR
STARTCHAR uniAE1E
ENCODING 44574
SWIDTH 960 0
DWIDTH 12 0
BBX 12 11 0 -1
BITMAP
7E40
0240
0240
0240
7FC0
0040
3DC0
0540
3D40
2140
1FC0
ENDCHAR
STARTCHAR uniAE1F
ENCODING 44575
SWIDTH 960 0
DWIDTH 12 0
BBX 12 11 0 -1
BITMAP
7E40
0240
0240
0240
7FC0
0040
3A40
0A40
3BC0
2240
1FC0
ENDCHAR
STARTCHAR uniAE20
ENCODING 44576
SWIDTH 960 0
DWIDTH 12 0
BBX 12 11 0 -1
BITMAP
7E40
0240
0240
0240
7FC0
0040
3C80
0480
3D40
2220
1C10
ENDCHAR
STARTCHAR uniAE21
ENCODING 44577
SWIDTH 960 0
DWIDTH 12 0
BBX 12 11 0 -1
BITMAP
7E40
0240
0240
0240
7FC0
0040
3DE0
0500
3DC0
2100
1FE0
ENDCHAR
STARTCHAR uniAE22
ENCODING 44578
SWIDTH 960 0
DWIDTH 12 0
BBX 12 11 0 -1
BITMAP
7E40
0240
0240
0240
7FC0
0040
3BE0
0940
3940
2140
1FE0
ENDCHAR
STARTCHAR uniAE23
ENCODING 44579
SWIDTH 960 0
DWIDTH 12 0
BBX 12 11 0 -1
BITMAP
7E40
0240
0240
0240
7FC0
0040
3880
0FE0
3A40
2240
1980
ENDCHAR
STARTCHAR uniAE24
ENCODING 44580
SWIDTH 960 0
DWIDTH 12 0
BBX 12 11 0 -1
BITMAP
7E40
0240
0240
0240
0240
7FC0
0040
3FC0
2040
2040
1FC0
ENDCHAR
STARTCHAR uniAE25
ENCODING 44581
SWIDTH 960 0
DWIDTH 12 0
BBX 12 11 0 -1
BITMAP
7E40
0240
0240
0240
0240
7FC0
0040
2040
3FC0
2040
1FC0
ENDCHAR
STARTCHAR uniAE26
ENCODING 44582
SWIDTH 960 0
DWIDTH 12 0
BBX 12 11 0 -1
BITMAP
7E40
0240
0240
0240
0240
7FC0
0040
2480
3D40
2620
1C10
ENDCHAR
STARTCHAR uniAE27
ENCODING 44583
SWIDTH 960 0
DWIDTH 12 0
BBX 12 11 0 -1
BITMAP
7E40
0240
0240
0240
0240
7FC0
0040
0200
0500
0880
3060
ENDCHAR
STARTCHAR uniAE28
ENCODING 44584
SWIDTH 960 0
DWIDTH 12 0
BBX 12 11 0 -1
BITMAP
7E40
0240
0240
0240
0240
7FC0
0040
0880
0880
1540
2220
ENDCHAR
STARTCHAR uniAE29
ENCODING 44585
SWIDTH 960 0
DWIDTH 12 0
BBX 12 11 0 -1
BITMAP
7E40
0240
0240
0240
0240
7FC0
0040
1F80
2040
2040
1F80
ENDCHAR
STARTCHAR uniAE2A
ENCODING 44586
SWIDTH 960 0
DWIDTH 12 0
BBX 12 11 0 -1
BITMAP
7E40
0240
0240
0240
0240
7FC0
0040
3FE0
0100
0680
3860
ENDCHAR
STARTCHAR uniAE2B
ENCODING 44587
SWIDTH 960 0
DWIDTH 12 0
BBX 12 11 0 -1
BITMAP
7E40
0240
0240
0240
7FC0
0040
0100
3FE0
0100
0680
3860
ENDCHAR
STARTCHAR uniAE2C
ENCODING 44588
SWIDTH 960 0
DWIDTH 12 0
BBX 12 11 0 -1
BITMAP
7E40
0240
0240
0240
7FC0
0040
3FC0
2000
3FC0
2000
1FC0
ENDCHAR
STARTCHAR uniAE2D
ENCODING 44589
SWIDTH 960 0
DWIDTH 12 0
BBX 12 11 0 -1
BITMAP
7E40
0240
0240
0240
7FC0
0040
3FC0
2000
3FC0
2000
1FC0
ENDCHAR
STARTCHAR uniAE2E
ENCODING 44590
SWIDTH 960 0
DWIDTH 12 0
BBX 12 11 0 -1
BITMAP
7E40
0240
0240
0240
0240
7FC0
0040
3FE0
0880
0880
3FE0
ENDCHAR
STARTCHAR uniAE2F
ENCODING 44591
SWIDTH 960 0
DWIDTH 12 0
BBX 12 11 0 -1
BITMAP
7E40
0240
0240
0240
7FC0
0040
0700
0000
7FE0
1040
0F80
ENDCHAR
STARTCHAR uniAE30
ENCODING 44592
SWIDTH 960 0
DWIDTH 12 0
BBX 12 11 0 -1
BITMAP
7E40
0240
0240
0240
0240
0440
0440
0840
7040
0040
0040
ENDCHAR
STARTCHAR uniAE31
ENCODING 44593
SWIDTH 960 0
DWIDTH 12 0
BBX 12 11 0 -1
BITMAP
7E40
0240
0240
0440
1840
6040
0000
3FC0
0040
0040
0040
ENDCHAR
STARTCHAR uniAE32
ENCODING 44594
SWIDTH 960 0
DWIDTH 12 0
BBX 12 11 0 -1
BITMAP
7E40
0240
0240
0440
1840
6040
0000
3FC0
0440
0440
0440
ENDCHAR
STARTCHAR uniAE33
ENCODING 44595
SWIDTH 960 0
DWIDTH 12 0
BBX 12 11 0 -1
BITMAP
7E40
0240
0240
0440
1840
6040
0000
3C80
0480
0540
0220
ENDCHAR
STARTCHAR uniAE34
ENCODING 44596
SWIDTH 960 0
DWIDTH 12 0
BBX 12 11 0 -1
BITMAP
7E40
0240
0240
0440
1840
6040
0040
2000
2000
2000
1FC0
ENDCHAR
STARTCHAR uniAE35
ENCODING 44597
SWIDTH 960 0
DWIDTH 12 0
BBX 12 11 0 -1
BITMAP
7E40
0240
0240
0440
1840
6040
0000
27C0
2100
2280
1C60
ENDCHAR
STARTCHAR uniAE36
ENCODING 44598
SWIDTH 960 0
DWIDTH 12 0
BBX 12 11 0 -1
BITMAP
7E40
0240
0240
0440
1840
6040
0100
27E0
2240
2240
1D80
ENDCHAR
STARTCHAR uniAE37
ENCODING 44599
SWIDTH 960 0
DWIDTH 12 0
BBX 12 11 0 -1
BITMAP
7E40
0240
0240
0440
1840
6040
0000
3FC0
2000
2000
1FC0
ENDCHAR
STARTCHAR uniAE38
ENCODING 44600
SWIDTH 960 0
DWIDTH 12 0
BBX 12 11 0 -1
BITMAP
7E40
0240
0440
1840
6040
0040
3FC0
0040
3FC0
2000
1FC0
ENDCHAR
STARTCHAR uniAE39
ENCODING 44601
SWIDTH 960 0
DWIDTH 12 0
BBX 12 11 0 -1
BITMAP
7E40
0240
0440
1840
6040
0040
3FC0
0440
3C40
2040
1C40
ENDCHAR
STARTCHAR uniAE3A
ENCODING 44602
SWIDTH 960 0
DWIDTH 12 0
BBX 12 11 0 -1
BITMAP
7E40
0240
0440
1840
6040
0040
3DC0
0540
3D40
2140
1FC0
ENDCHAR
STARTCHAR uniAE3B
ENCODING 44603
SWIDTH 960 0
DWIDTH 12 0
BBX 12 11 0 -1
BITMAP
7E40
0240
0440
1840
6040
0040
3A40
0A40
3BC0
2240
1FC0
ENDCHAR
STARTCHAR uniAE3C
ENCODING 44604
SWIDTH 960 0
DWIDTH 12 0
BBX 12 11 0 -1
BITMAP
7E40
0240
0440
1840
6040
0040
3C80
0480
3D40
2220
1C10
ENDCHAR
STARTCHAR uniAE3D
ENCODING 44605
SWIDTH 960 0
DWIDTH 12 0
BBX 12 11 0 -1
BITMAP
7E40
0240
0440
1840
6040
0040
3BC0
0A00
3BC0
2200
1FC0
ENDCHAR
STARTCHAR uniAE3E
ENCODING 44606
SWIDTH 960 0
DWIDTH 12 0
BBX 12 11 0 -1
BITMAP
7E40
0240
0440
1840
6040
0040
3BE0
0940
3940
2140
1FE0
ENDCHAR
STARTCHAR uniAE3F
ENCODING 44607
SWIDTH 960 0
DWIDTH 12 0
BBX 12 11 0 -1
BITMAP
7E40
0240
0440
1840
6040
0040
7880
0FE0
7A40
4240
3980
ENDCHAR
STARTCHAR uniAE40
ENCODING 44608
SWIDTH 960 0
DWIDTH 12 0
BBX 12 11 0 -1
BITMAP
7E40
0240
0240
0440
1840
6040
0000
3FC0
2040
2040
1FC0
ENDCHAR
STARTCHAR uniAE41
ENCODING 44609
SWIDTH 960 0
DWIDTH 12 0
BBX 12 11 0 -1
BITMAP
7E40
0240
0240
0440
1840
6040
0000
2040
3FC0
2040
1FC0
ENDCHAR
STARTCHAR uniAE42
ENCODING 44610
SWIDTH 960 0
DWIDTH 12 0
BBX 12 11 0 -1
BITMAP
7E40
0240
0240
0440
1840
6040
0000
2480
3C80
2540
1E20
ENDCHAR
STARTCHAR uniAE43
ENCODING 44611
SWIDTH 960 0
DWIDTH 12 0
BBX 12 11 0 -1
BITMAP
7E40
0240
0240
0440
1840
6040
0000
0100
0280
0C40
3020
ENDCHAR
STARTCHAR uniAE44
ENCODING 44612
SWIDTH 960 0
DWIDTH 12 0
BBX 12 11 0 -1
BITMAP
7E40
0240
0240
0440
1840
6040
0000
0880
0880
1540
2220
ENDCHAR
STARTCHAR uniAE45
ENCODING 44613
SWIDTH 960 0
DWIDTH 12 0
BBX 12 11 0 -1
BITMAP
7E40
0240
0240
0440
1840
6040
0000
1F80
2040
2040
1F80
ENDCHAR
STARTCHAR uniAE46
ENCODING 44614
SWIDTH 960 0
DWIDTH 12 0
BBX 12 11 0 -1
BITMAP
7E40
0240
0240
0440
1840
6040
0000
3FE0
0100
0680
3860
ENDCHAR
STARTCHAR uniAE47
ENCODING 44615
SWIDTH 960 0
DWIDTH 12 0
BBX 12 11 0 -1
BITMAP
7E40
0240
0440
1840
6040
0040
0100
3FE0
0100
0680
3860
ENDCHAR
STARTCHAR uniAE48
ENCODING 44616
SWIDTH 960 0
DWIDTH 12 0
BBX 12 11 0 -1
BITMAP
7E40
0240
0440
1840
6040
0040
3FC0
2000
3FC0
2000
1FC0
ENDCHAR
STARTCHAR uniAE49
ENCODING 44617
SWIDTH 960 0
DWIDTH 12 0
BBX 12 11 0 -1
BITMAP
7E40
0240
0440
1840
6040
0040
3FC0
2000
3FC0
2000
1FC0
ENDCHAR
STARTCHAR uniAE4A
ENCODING 44618
SWIDTH 960 0
DWIDTH 12 0
BBX 12 11 0 -1
BITMAP
7E40
0240
0240
0440
1840
6040
0000
3FE0
0880
0880
3FE0
ENDCHAR
STARTCHAR uniAE4B
ENCODING 44619
SWIDTH 960 0
DWIDTH 12 0
BBX 12 11 0 -1
BITMAP
7E40
0240
0440
1840
6040
0040
0700
0000
7FE0
1040
0F80
ENDCHAR
STARTCHAR uniAE4C
ENCODING 44620
SWIDTH 960 0
DWIDTH 12 0
BBX 12 11 0 -1
BITMAP
7740
1140
1140
1140
1170
1140
2140
2240
4240
0440
0040
ENDCHAR
STARTCHAR uniAE4D
ENCODING 44621
SWIDTH 960 0
DWIDTH 12 0
BBX 12 11 0 -1
BITMAP
7E40
1240
1270
1240
2240
4440
0000
3FC0
0040
0040
0040
ENDCHAR
STARTCHAR uniAE4E
ENCODING 44622
SWIDTH 960 0
DWIDTH 12 0
BBX 12 11 0 -1
BITMAP
7E40
1240
1270
1240
2240
4440
0000
3FC0
0440
0440
0440
ENDCHAR
STARTCHAR uniAE4F
ENCODING 44623
SWIDTH 960 0
DWIDTH 12 0
BBX 12 11 0 -1
BITMAP
7E40
1240
1270
1240
2240
4440
0000
3C80
0480
0540
0220
ENDCHAR
STARTCHAR uniAE50
ENCODING 44624
SWIDTH 960 0
DWIDTH 12 0
BBX 12 11 0 -1
BITMAP
7E40
1240
1240
1270
2240
4440
0040
2000
2000
2000
1FC0
ENDCHAR
STARTCHAR uniAE51
ENCODING 44625
SWIDTH 960 0
DWIDTH 12 0
BBX 12 11 0 -1
BITMAP
7E40
1240
1270
1240
2240
4440
0000
27C0
2100
2280
1C60
ENDCHAR
STARTCHAR uniAE52
ENCODING 44626
SWIDTH 960 0
DWIDTH 12 0
BBX 12 11 0 -1
BITMAP
7E40
1240
1270
1240
2240
4440
0100
27E0
2240
2240
1D80
ENDCHAR
STARTCHAR uniAE53
ENCODING 44627
SWIDTH 960 0
DWIDTH 12 0
BBX 12 11 0 -1
BITMAP
7E40
1240
1270
1240
2240
4440
0000
3FC0
2000
2000
1FC0
ENDCHAR
STARTCHAR uniAE54
ENCODING 44628
SWIDTH 960 0
DWIDTH 12 0
BBX 12 11 0 -1
BITMAP
7E40
1240
1270
2240
4440
0040
3FC0
0040
3FC0
2000
1FC0
ENDCHAR
STARTCHAR uniAE55
ENCODING 44629
SWIDTH 960 0
DWIDTH 12 0
BBX 12 11 0 -1
BITMAP
7E40
1240
1270
2240
4440
0040
3FC0
0440
3C40
2040
1C40
ENDCHAR
STARTCHAR uniAE56
ENCODING 44630
SWIDTH 960 0
DWIDTH 12 0
BBX 12 11 0 -1
BITMAP
7E40
1240
1270
2240
4440
0040
3DC0
0540
3D40
2140
1FC0
ENDCHAR
STARTCHAR uniAE57
ENCODING 44631
SWIDTH 960 0
DWIDTH 12 0
BBX 12 11 0 -1
BITMAP
7E40
1240
1270
2240
4440
0040
3A40
0A40
3BC0
2240
1FC0
ENDCHAR
STARTCHAR uniAE58
ENCODING 44632
SWIDTH 960 0
DWIDTH 12 0
BBX 12 11 0 -1
BITMAP
7E40
1240
1270
2240
4440
0040
3C80
0480
3D40
2220
1C10
ENDCHAR
STARTCHAR uniAE59
ENCODING 44633
SWIDTH 960 0
DWIDTH 12 0
BBX 12 11 0 -1
BITMAP
7E40
1240
1270
2240
4440
0040
3BC0
0A00
3BC0
2200
1FC0
ENDCHAR
STARTCHAR uniAE5A
ENCODING 44634
SWIDTH 960 0
DWIDTH 12 0
BBX 12 11 0 -1
BITMAP
7E40
1240
1270
2240
4440
0040
3BE0
0940
3940
2140
1FE0
ENDCHAR
STARTCHAR uniAE5B
ENCODING 44635
SWIDTH 960 0
DWIDTH 12 0
BBX 12 11 0 -1
BITMAP
7E40
1240
1270
2240
4440
0040
7880
0FE0
7A40
4240
3980
ENDCHAR
STARTCHAR uniAE5C
ENCODING 44636
SWIDTH 960 0
DWIDTH 12 0
BBX 12 11 0 -1
BITMAP
7E40
1240
1270
1240
2240
4440
0000
3FC0
2040
2040
1FC0
ENDCHAR
STARTCHAR uniAE5D
ENCODING 44637
SWIDTH 960 0
DWIDTH 12 0
BBX 12 11 0 -1
BITMAP
7E40
1240
1270
1240
2240
4440
0000
2040
3FC0
2040
1FC0
ENDCHAR
STARTCHAR uniAE5E
ENCODING 44638
SWIDTH 960 0
DWIDTH 12 0
BBX 12 11 0 -1
BITMAP
7E40
1240
1270
1240
2240
4440
0000
2480
3C80
2540
1E20
ENDCHAR
STARTCHAR uniAE5F
ENCODING 44639
SWIDTH 960 0
DWIDTH 12 0
BBX 12 11 0 -1
BITMAP
7E40
1240
1270
1240
2240
4440
0000
0100
0280
0C40
3020
ENDCHAR
STARTCHAR uniAE60
ENCODING 44640
SWIDTH 960 0
DWIDTH 12 0
BBX 12 11 0 -1
BITMAP
7E40
1240
1270
1240
2240
4440
0000
0880
0880
1540
2220
ENDCHAR
STARTCHAR uniAE61
ENCODING 44641
SWIDTH 960 0
DWIDTH 12 0
BBX 12 11 0 -1
BITMAP
7E40
1240
1270
1240
2240
4440
0000
1F80
2040
2040
1F80
ENDCHAR
STARTCHAR uniAE62
ENCODING 44642
SWIDTH 960 0
DWIDTH 12 0
BBX 12 11 0 -1
BITMAP
7E40
1240
1270
1240
2240
4440
0000
3FE0
0100
0680
3860
ENDCHAR
STARTCHAR uniAE63
ENCODING 44643
SWIDTH 960 0
DWIDTH 12 0
BBX 12 11 0 -1
BITMAP
7E40
1240
1270
2240
4440
0040
0100
3FE0
0100
0680
3860
ENDCHAR
STARTCHAR uniAE64
ENCODING 44644
SWIDTH 960 0
DWIDTH 12 0
BBX 12 11 0 -1
BITMAP
7E40
1240
1270
2240
4440
0040
3FC0
2000
3FC0
2000
1FC0
ENDCHAR
STARTCHAR uniAE65
ENCODING 44645
SWIDTH 960 0
DWIDTH 12 0
BBX 12 11 0 -1
BITMAP
7E40
1240
1270
2240
4440
0040
3FC0
2000
3FC0
2000
1FC0
ENDCHAR
STARTCHAR uniAE66
ENCODING 44646
SWIDTH 960 0
DWIDTH 12 0
BBX 12 11 0 -1
BITMAP
7E40
1240
1270
1240
2240
4440
0000
3FE0
0880
0880
3FE0
ENDCHAR
STARTCHAR uniAE67
ENCODING 44647
SWIDTH 960 0
DWIDTH 12 0
BBX 12 11 0 -1
BITMAP
7E40
1240
1270
2240
4440
0040
0700
0000
7FE0
1040
0F80
ENDCHAR
STARTCHAR uniAE68
ENCODING 44648
SWIDTH 960 0
DWIDTH 12 0
BBX 12 11 0 -1
BITMAP
FD20
2520
2520
2520
2520
25E0
4520
4920
8920
1120
0120
ENDCHAR
STARTCHAR uniAE69
ENCODING 44649
SWIDTH 960 0
DWIDTH 12 0
BBX 12 11 0 -1
BITMAP
7F20
1320
13E0
2520
4920
1120
0000
1FE0
0020
0020
0020
ENDCHAR
STARTCHAR uniAE6A
ENCODING 44650
SWIDTH 960 0
DWIDTH 12 0
BBX 12 11 0 -1
BITMAP
7F20
1320
13E0
2520
4920
1120
0000
1FE0
0220
0220
0220
ENDCHAR
STARTCHAR uniAE6B
ENCODING 44651
SWIDTH 960 0
DWIDTH 12 0
BBX 12 11 0 -1
BITMAP
7F20
1320
13E0
2520
4920
1120
0000
3C80
0480
0540
0220
ENDCHAR
STARTCHAR uniAE6C
ENCODING 44652
SWIDTH 960 0
DWIDTH 12 0
BBX 12 11 0 -1
BITMAP
7F20
1320
13E0
2520
4920
1120
0020
2000
2000
2000
1FE0
ENDCHAR
STARTCHAR uniAE6D
ENCODING 44653
SWIDTH 960 0
DWIDTH 12 0
BBX 12 11 0 -1
BITMAP
7F20
1320
13E0
2520
4920
1120
0000
23E0
2080
2140
1E30
ENDCHAR
STARTCHAR uniAE6E
ENCODING 44654
SWIDTH 960 0
DWIDTH 12 0
BBX 12 11 0 -1
BITMAP
7F20
1320
13E0
2520
4920
1120
0080
23F0
2120
2120
1CC0
ENDCHAR
STARTCHAR uniAE6F
ENCODING 44655
SWIDTH 960 0
DWIDTH 12 0
BBX 12 11 0 -1
BITMAP
7F20
1320
13E0
2520
4920
1120
0000
3FE0
2000
2000
1FE0
ENDCHAR
STARTCHAR uniAE70
ENCODING 44656
SWIDTH 960 0
DWIDTH 12 0
BBX 12 11 0 -1
BITMAP
7F20
1320
13E0
2520
4920
0120
3FE0
0020
3FE0
2000
1FE0
ENDCHAR
STARTCHAR uniAE71
ENCODING 44657
SWIDTH 960 0
DWIDTH 12 0
BBX 12 11 0 -1
BITMAP
7F20
1320
13E0
2520
4920
0120
3DE0
0420
3C20
2020
1E20
ENDCHAR
STARTCHAR uniAE72
ENCODING 44658
SWIDTH 960 0
DWIDTH 12 0
BBX 12 11 0 -1
BITMAP
7F20
1320
13E0
2520
4920
0120
3DE0
0520
3D20
2120
1FE0
ENDCHAR
STARTCHAR uniAE73
ENCODING 44659
SWIDTH 960 0
DWIDTH 12 0
BBX 12 11 0 -1
BITMAP
7F20
1320
13E0
2520
4920
0120
3D20
0520
3DE0
2120
1FE0
ENDCHAR
STARTCHAR uniAE74
ENCODING 44660
SWIDTH 960 0
DWIDTH 12 0
BBX 12 11 0 -1
BITMAP
7F20
1320
13E0
2520
4920
0120
3C80
0480
3D40
2220
1C10
ENDCHAR
STARTCHAR uniAE75
ENCODING 44661
SWIDTH 960 0
DWIDTH 12 0
BBX 12 11 0 -1
BITMAP
7F20
1320
13E0
2520
4920
0120
3DE0
0500
3DE0
2100
1FE0
ENDCHAR
STARTCHAR uniAE76
ENCODING 44662
SWIDTH 960 0
DWIDTH 12 0
BBX 12 11 0 -1
BITMAP
7F20
1320
13E0
2520
4920
0120
3BE0
0940
3940
2140
1FE0
ENDCHAR
STARTCHAR uniAE77
ENCODING 44663
SWIDTH 960 0
DWIDTH 12 0
BBX 12 11 0 -1
BITMAP
7F20
1320
13E0
2520
4920
0120
3880
0FE0
3A40
2240
1980
ENDCHAR
STARTCHAR uniAE78
ENCODING 44664
SWIDTH 960 0
DWIDTH 12 0
BBX 12 11 0 -1
BITMAP
7F20
1320
13E0
2520
4920
1120
0000
3FE0
2020
2020
1FE0
ENDCHAR
STARTCHAR uniAE79
ENCODING 44665
SWIDTH 960 0
DWIDTH 12 0
BBX 12 11 0 -1
BITMAP
7F20
1320
13E0
2520
4920
1120
0000
2020
3FE0
2020
1FE0
ENDCHAR
STARTCHAR uniAE7A
ENCODING 44666
SWIDTH 960 0
DWIDTH 12 0
BBX 12 11 0 -1
BITMAP
7F20
1320
13E0
2520
4920
1120
0000
2480
3D40
2620
1C10
ENDCHAR
STARTCHAR uniAE7B
ENCODING 44667
SWIDTH 960 0
DWIDTH 12 0
BBX 12 11 0 -1
BITMAP
7F20
1320
13E0
2520
4920
1120
0000
0080
0080
0340
1C30
ENDCHAR
STARTCHAR uniAE7C
ENCODING 44668
SWIDTH 960 0
DWIDTH 12 0
BBX 12 11 0 -1
BITMAP
7F20
1320
13E0
2520
4920
1120
0000
0840
0840
14A0
2310
ENDCHAR
STARTCHAR uniAE7D
ENCODING 44669
SWIDTH 960 0
DWIDTH 12 0
BBX 12 11 0 -1
BITMAP
7F20
1320
13E0
2520
4920
1120
0000
1FC0
2020
2020
1FC0
ENDCHAR
STARTCHAR uniAE7E
ENCODING 44670
SWIDTH 960 0
DWIDTH 12 0
BBX 12 11 0 -1
BITMAP
7F20
1320
13E0
2520
4920
1120
0000
3FE0
0100
0680
3860
ENDCHAR
STARTCHAR uniAE7F
ENCODING 44671
SWIDTH 960 0
DWIDTH 12 0
BBX 12 11 0 -1
BITMAP
7F20
1320
13E0
2520
4920
0120
0080
3FE0
0100
0680
3860
ENDCHAR
STARTCHAR uniAE80
ENCODING 44672
SWIDTH 960 0
DWIDTH 12 0
BBX 12 11 0 -1
BITMAP
7F20
1320
13E0
2520
4920
0120
3FE0
2000
3FE0
2000
1FE0
ENDCHAR
STARTCHAR uniAE81
ENCODING 44673
SWIDTH 960 0
DWIDTH 12 0
BBX 12 11 0 -1
BITMAP
7F20
1320
13E0
2520
4920
0120
3FE0
2000
3FE0
2000
1FE0
ENDCHAR
STARTCHAR uniAE82
ENCODING 44674
SWIDTH 960 0
DWIDTH 12 0
BBX 12 11 0 -1
BITMAP
7F20
1320
13E0
2520
4920
1120
0000
3FE0
0880
0880
3FE0
ENDCHAR
STARTCHAR uniAE83
ENCODING 44675
SWIDTH 960 0
DWIDTH 12 0
BBX 12 11 0 -1
BITMAP
7F20
1320
13E0
2520
4920
0120
0700
0000
3FE0
1040
0F80
ENDCHAR
STARTCHAR uniAE84
ENCODING 44676
SWIDTH 960 0
DWIDTH 12 0
BBX 12 11 0 -1
BITMAP
7740
1140
1170
1140
1140
1140
2170
2240
4240
0440
0040
ENDCHAR
STARTCHAR uniAE85
ENCODING 44677
SWIDTH 960 0
DWIDTH 12 0
BBX 12 11 0 -1
BITMAP
7E40
1270
1240
1270
2240
4440
0000
3FC0
0040
0040
0040
ENDCHAR
STARTCHAR uniAE86
ENCODING 44678
SWIDTH 960 0
DWIDTH 12 0
BBX 12 11 0 -1
BITMAP
7E40
1270
1240
1270
2240
4440
0000
3FC0
0440
0440
0440
ENDCHAR
STARTCHAR uniAE87
ENCODING 44679
SWIDTH 960 0
DWIDTH 12 0
BBX 12 11 0 -1
BITMAP
7E40
1270
1240
1270
2240
4440
0000
3C80
0480
0540
0220
ENDCHAR
STARTCHAR uniAE88
ENCODING 44680
SWIDTH 960 0
DWIDTH 12 0
BBX 12 11 0 -1
BITMAP
7E40
1270
1240
1270
2240
4440
0040
2000
2000
2000
1FC0
ENDCHAR
STARTCHAR uniAE89
ENCODING 44681
SWIDTH 960 0
DWIDTH 12 0
BBX 12 11 0 -1
BITMAP
7E40
1270
1240
1270
2240
4440
0000
27C0
2100
2280
1C60
ENDCHAR
STARTCHAR uniAE8A
ENCODING 44682
SWIDTH 960 0
DWIDTH 12 0
BBX 12 11 0 -1
BITMAP
7E40
1270
1240
1270
2240
4440
0100
27E0
2240
2240
1D80
ENDCHAR
STARTCHAR uniAE8B
ENCODING 44683
SWIDTH 960 0
DWIDTH 12 0
BBX 12 11 0 -1
BITMAP
7E40
1270
1240
1270
2240
4440
0000
3FC0
2000
2000
1FC0
ENDCHAR
STARTCHAR uniAE8C
ENCODING 44684
SWIDTH 960 0
DWIDTH 12 0
BBX 12 11 0 -1
BITMAP
7E40
1270
1240
2270
4440
0040
3FC0
0040
3FC0
2000
1FC0
ENDCHAR
STARTCHAR uniAE8D
ENCODING 44685
SWIDTH 960 0
DWIDTH 12 0
BBX 12 11 0 -1
BITMAP
7E40
1270
1240
2270
4440
0040
3FC0
0440
3C40
2040
1C40
ENDCHAR
STARTCHAR uniAE8E
ENCODING 44686
SWIDTH 960 0
DWIDTH 12 0
BBX 12 11 0 -1
BITMAP
7E40
1270
1240
2270
4440
0040
3DC0
0540
3D40
2140
1FC0
ENDCHAR
STARTCHAR uniAE8F
ENCODING 44687
SWIDTH 960 0
DWIDTH 12 0
BBX 12 11 0 -1
BITMAP
7E40
1270
1240
2270
4440
0040
3A40
0A40
3BC0
2240
1FC0
ENDCHAR
STARTCHAR uniAE90
ENCODING 44688
SWIDTH 960 0
DWIDTH 12 0
BBX 12 11 0 -1
BITMAP
7E40
1270
1240
2270
4440
0040
3C80
0480
3D40
2220
1C10
ENDCHAR
STARTCHAR uniAE91
ENCODING 44689
SWIDTH 960 0
DWIDTH 12 0
BBX 12 11 0 -1
BITMAP
7E40
1270
1240
2270
4440
0040
3BC0
0A00
3BC0
2200
1FC0
ENDCHAR
STARTCHAR uniAE92
ENCODING 44690
SWIDTH 960 0
DWIDTH 12 0
BBX 12 11 0 -1
BITMAP
7E40
1270
1240
2270
4440
0040
3BE0
0940
3940
2140
1FE0
ENDCHAR
STARTCHAR uniAE93
ENCODING 44691
SWIDTH 960 0
DWIDTH 12 0
BBX 12 11 0 -1
BITMAP
7E40
1270
1240
2270
4440
0040
7880
0FE0
7A40
4240
3980
ENDCHAR
STARTCHAR uniAE94
ENCODING 44692
SWIDTH 960 0
DWIDTH 12 0
BBX 12 11 0 -1
BITMAP
7E40
1270
1240
1270
2240
4440
0000
3FC0
2040
2040
1FC0
ENDCHAR
STARTCHAR uniAE95
ENCODING 44693
SWIDTH 960 0
DWIDTH 12 0
BBX 12 11 0 -1
BITMAP
7E40
1270
1240
1270
2240
4440
0000
2040
3FC0
2040
1FC0
ENDCHAR
STARTCHAR uniAE96
ENCODING 44694
SWIDTH 960 0
DWIDTH 12 0
BBX 12 11 0 -1
BITMAP
7E40
1270
1240
1270
2240
4440
0000
2480
3C80
2540
1E20
ENDCHAR
STARTCHAR uniAE97
ENCODING 44695
SWIDTH 960 0
DWIDTH 12 0
BBX 12 11 0 -1
BITMAP
7E40
1270
1240
1270
2240
4440
0000
0100
0280
0C40
3020
ENDCHAR
STARTCHAR uniAE98
ENCODING 44696
SWIDTH 960 0
DWIDTH 12 0
BBX 12 11 0 -1
BITMAP
7E40
1270
1240
1270
2240
4440
0000
0880
0880
1540
2220
ENDCHAR
STARTCHAR uniAE99
ENCODING 44697
SWIDTH 960 0
DWIDTH 12 0
BBX 12 11 0 -1
BITMAP
7E40
1270
1240
1270
2240
4440
0000
1F80
2040
2040
1F80
ENDCHAR
STARTCHAR uniAE9A
ENCODING 44698
SWIDTH 960 0
DWIDTH 12 0
BBX 12 11 0 -1
BITMAP
7E40
1270
1240
1270
2240
4440
0000
3FE0
0100
0680
3860
ENDCHAR
STARTCHAR uniAE9B
ENCODING 44699
SWIDTH 960 0
DWIDTH 12 0
BBX 12 11 0 -1
BITMAP
7E40
1270
1240
2270
4440
0040
0100
3FE0
0100
0680
3860
ENDCHAR
STARTCHAR uniAE9C
ENCODING 44700
SWIDTH 960 0
DWIDTH 12 0
BBX 12 11 0 -1
BITMAP
7E40
1270
1240
2270
4440
0040
3FC0
2000
3FC0
2000
1FC0
ENDCHAR
STARTCHAR uniAE9D
ENCODING 44701
SWIDTH 960 0
DWIDTH 12 0
BBX 12 11 0 -1
BITMAP
7E40
1270
1240
2270
4440
0040
3FC0
2000
3FC0
2000
1FC0
ENDCHAR
STARTCHAR uniAE9E
ENCODING 44702
SWIDTH 960 0
DWIDTH 12 0
BBX 12 11 0 -1
BITMAP
7E40
1270
1240
1270
2240
4440
0000
3FE0
0880
0880
3FE0
ENDCHAR
STARTCHAR uniAE9F
ENCODING 44703
SWIDTH 960 0
DWIDTH 12 0
BBX 12 11 0 -1
BITMAP
7E40
1270
1240
2270
4440
0040
0700
0000
7FE0
1040
0F80
ENDCHAR
STARTCHAR uniAEA0
ENCODING 44704
SWIDTH 960 0
DWIDTH 12 0
BBX 12 11 0 -1
BITMAP
FD20
2520
25E0
2520
2520
2520
45E0
4920
8920
1120
0120
ENDCHAR
STARTCHAR uniAEA1
ENCODING 44705
SWIDTH 960 0
DWIDTH 12 0
BBX 12 11 0 -1
BITMAP
7F20
1320
13E0
2520
4920
1120
0000
1FE0
0020
0020
0020
ENDCHAR
STARTCHAR uniAEA2
ENCODING 44706
SWIDTH 960 0
DWIDTH 12 0
BBX 12 11 0 -1
BITMAP
7F20
1320
13E0
2520
4920
1120
0000
1FE0
0220
0220
0220
ENDCHAR
STARTCHAR uniAEA3
ENCODING 44707
SWIDTH 960 0
DWIDTH 12 0
BBX 12 11 0 -1
BITMAP
7F20
1320
13E0
2520
4920
1120
0000
3C80
0480
0540
0220
ENDCHAR
STARTCHAR uniAEA4
ENCODING 44708
SWIDTH 960 0
DWIDTH 12 0
BBX 12 11 0 -1
BITMAP
7F20
1320
13E0
2520
4920
1120
0020
2000
2000
2000
1FE0
ENDCHAR
STARTCHAR uniAEA5
ENCODING 44709
SWIDTH 960 0
DWIDTH 12 0
BBX 12 11 0 -1
BITMAP
7F20
1320
13E0
2520
4920
1120
0000
23E0
2080
2140
1E30
ENDCHAR
STARTCHAR uniAEA6
ENCODING 44710
SWIDTH 960 0
DWIDTH 12 0
BBX 12 11 0 -1
BITMAP
7F20
1320
13E0
2520
4920
1120
0080
23F0
2120
2120
1CC0
ENDCHAR
STARTCHAR uniAEA7
ENCODING 44711
SWIDTH 960 0
DWIDTH 12 0
BBX 12 11 0 -1
BITMAP
7F20
1320
13E0
2520
4920
1120
0000
3FE0
2000
2000
1FE0
ENDCHAR
STARTCHAR uniAEA8
ENCODING 44712
SWIDTH 960 0
DWIDTH 12 0
BBX 12 11 0 -1
BITMAP
7F20
1320
13E0
2520
4920
0120
3FE0
0020
3FE0
2000
1FE0
ENDCHAR
STARTCHAR uniAEA9
ENCODING 44713
SWIDTH 960 0
DWIDTH 12 0
BBX 12 11 0 -1
BITMAP
7F20
1320
13E0
2520
4920
0120
3DE0
0420
3C20
2020
1E20
ENDCHAR
STARTCHAR uniAEAA
ENCODING 44714
SWIDTH 960 0
DWIDTH 12 0
BBX 12 11 0 -1
BITMAP
7F20
1320
13E0
2520
4920
0120
3DE0
0520
3D20
2120
1FE0
ENDCHAR
STARTCHAR uniAEAB
ENCODING 44715
SWIDTH 960 0
DWIDTH 12 0
BBX 12 11 0 -1
BITMAP
7F20
1320
13E0
2520
4920
0120
3D20
0520
3DE0
2120
1FE0
ENDCHAR
STARTCHAR uniAEAC
ENCODING 44716
SWIDTH 960 0
DWIDTH 12 0
BBX 12 11 0 -1
BITMAP
7F20
1320
13E0
2520
4920
0120
3C80
0480
3D40
2220
1C10
ENDCHAR
STARTCHAR uniAEAD
ENCODING 44717
SWIDTH 960 0
DWIDTH 12 0
BBX 12 11 0 -1
BITMAP
7F20
1320
13E0
2520
4920
0120
3DE0
0500
3DE0
2100
1FE0
ENDCHAR
STARTCHAR uniAEAE
ENCODING 44718
SWIDTH 960 0
DWIDTH 12 0
BBX 12 11 0 -1
BITMAP
7F20
1320
13E0
2520
4920
0120
3BE0
0940
3940
2140
1FE0
ENDCHAR
STARTCHAR uniAEAF
ENCODING 44719
SWIDTH 960 0
DWIDTH 12 0
BBX 12 11 0 -1
BITMAP
7F20
1320
13E0
2520
4920
0120
3880
0FE0
3A40
2240
1980
ENDCHAR
STARTCHAR uniAEB0
ENCODING 44720
SWIDTH 960 0
DWIDTH 12 0
BBX 12 11 0 -1
BITMAP
7F20
1320
13E0
2520
4920
1120
0000
3FE0
2020
2020
1FE0
ENDCHAR
STARTCHAR uniAEB1
ENCODING 44721
SWIDTH 960 0
DWIDTH 12 0
BBX 12 11 0 -1
BITMAP
7F20
1320
13E0
2520
4920
1120
0000
2020
3FE0
2020
1FE0
ENDCHAR
STARTCHAR uniAEB2
ENCODING 44722
SWIDTH 960 0
DWIDTH 12 0
BBX 12 11 0 -1
BITMAP
7F20
1320
13E0
2520
4920
1120
0000
2480
3D40
2620
1C10
ENDCHAR
STARTCHAR uniAEB3
ENCODING 44723
SWIDTH 960 0
DWIDTH 12 0
BBX 12 11 0 -1
BITMAP
7F20
1320
13E0
2520
4920
1120
0000
0080
0080
0340
1C30
ENDCHAR
STARTCHAR uniAEB4
ENCODING 44724
SWIDTH 960 0
DWIDTH 12 0
BBX 12 11 0 -1
BITMAP
7F20
1320
13E0
2520
4920
1120
0000
0840
0840
14A0
2310
ENDCHAR
STARTCHAR uniAEB5
ENCODING 44725
SWIDTH 960 0
DWIDTH 12 0
BBX 12 11 0 -1
BITMAP
7F20
1320
13E0
2520
4920
1120
0000
1FC0
2020
2020
1FC0
ENDCHAR
STARTCHAR uniAEB6
ENCODING 44726
SWIDTH 960 0
DWIDTH 12 0
BBX 12 11 0 -1
BITMAP
7F20
1320
13E0
2520
4920
1120
0000
3FE0
0100
0680
3860
ENDCHAR
STARTCHAR uniAEB7
ENCODING 44727
SWIDTH 960 0
DWIDTH 12 0
BBX 12 11 0 -1
BITMAP
7F20
1320
13E0
2520
4920
0120
0080
3FE0
0100
0680
3860
ENDCHAR
STARTCHAR uniAEB8
ENCODING 44728
SWIDTH 960 0
DWIDTH 12 0
BBX 12 11 0 -1
BITMAP
7F20
1320
13E0
2520
4920
0120
3FE0
2000
3FE0
2000
1FE0
ENDCHAR
STARTCHAR uniAEB9
ENCODING 44729
SWIDTH 960 0
DWIDTH 12 0
BBX 12 11 0 -1
BITMAP
7F20
1320
13E0
2520
4920
0120
3FE0
2000
3FE0
2000
1FE0
ENDCHAR
STARTCHAR uniAEBA
ENCODING 44730
SWIDTH 960 0
DWIDTH 12 0
BBX 12 11 0 -1
BITMAP
7F20
1320
13E0
2520
4920
1120
0000
3FE0
0880
0880
3FE0
ENDCHAR
STARTCHAR uniAEBB
ENCODING 44731
SWIDTH 960 0
DWIDTH 12 0
BBX 12 11 0 -1
BITMAP
7F20
1320
13E0
2520
4920
0120
0700
0000
3FE0
1040
0F80
ENDCHAR
STARTCHAR uniAEBC
ENCODING 44732
SWIDTH 960 0
DWIDTH 12 0
BBX 12 11 0 -1
BITMAP
7740
1140
1140
11C0
1140
1140
2140
2240
4240
0440
0040
ENDCHAR
STARTCHAR uniAEBD
ENCODING 44733
SWIDTH 960 0
DWIDTH 12 0
BBX 12 11 0 -1
BITMAP
7E40
1240
13C0
1240
2240
4440
0000
3FC0
0040
0040
0040
ENDCHAR
STARTCHAR uniAEBE
ENCODING 44734
SWIDTH 960 0
DWIDTH 12 0
BBX 12 11 0 -1
BITMAP
7E40
1240
13C0
1240
2240
4440
0000
3FC0
0440
0440
0440
ENDCHAR
STARTCHAR uniAEBF
ENCODING 44735
SWIDTH 960 0
DWIDTH 12 0
BBX 12 11 0 -1
BITMAP
7E40
1240
13C0
1240
2240
4440
0000
3C80
0480
0540
0220
ENDCHAR
STARTCHAR uniAEC0
ENCODING 44736
SWIDTH 960 0
DWIDTH 12 0
BBX 12 11 0 -1
BITMAP
7E40
1240
13C0
1240
2240
4440
0040
2000
2000
2000
1FC0
ENDCHAR
STARTCHAR uniAEC1
ENCODING 44737
SWIDTH 960 0
DWIDTH 12 0
BBX 12 11 0 -1
BITMAP
7E40
1240
13C0
1240
2240
4440
0000
27C0
2100
2280
1C60
ENDCHAR
STARTCHAR uniAEC2
ENCODING 44738
SWIDTH 960 0
DWIDTH 12 0
BBX 12 11 0 -1
BITMAP
7E40
1240
13C0
1240
2240
4440
0100
27E0
2240
2240
1D80
ENDCHAR
STARTCHAR uniAEC3
ENCODING 44739
SWIDTH 960 0
DWIDTH 12 0
BBX 12 11 0 -1
BITMAP
7E40
1240
13C0
1240
2240
4440
0000
3FC0
2000
2000
1FC0
ENDCHAR
STARTCHAR uniAEC4
ENCODING 44740
SWIDTH 960 0
DWIDTH 12 0
BBX 12 11 0 -1
BITMAP
7E40
1240
13C0
2240
4440
0040
3FC0
0040
3FC0
2000
1FC0
ENDCHAR
STARTCHAR uniAEC5
ENCODING 44741
SWIDTH 960 0
DWIDTH 12 0
BBX 12 11 0 -1
BITMAP
7E40
1240
13C0
2240
4440
0040
3FC0
0440
3C40
2040
1C40
ENDCHAR
STARTCHAR uniAEC6
ENCODING 44742
SWIDTH 960 0
DWIDTH 12 0
BBX 12 11 0 -1
BITMAP
7E40
1240
13C0
2240
4440
0040
3DC0
0540
3D40
2140
1FC0
ENDCHAR
STARTCHAR uniAEC7
ENCODING 44743
SWIDTH 960 0
DWIDTH 12 0
BBX 12 11 0 -1
BITMAP
7E40
1240
13C0
2240
4440
0040
3D40
0540
3DC0
2140
1FC0
ENDCHAR
STARTCHAR uniAEC8
ENCODING 44744
SWIDTH 960 0
DWIDTH 12 0
BBX 12 11 0 -1
BITMAP
7E40
1240
13C0
2240
4440
0040
3C80
0480
3D40
2220
1C10
ENDCHAR
STARTCHAR uniAEC9
ENCODING 44745
SWIDTH 960 0
DWIDTH 12 0
BBX 12 11 0 -1
BITMAP
7E40
1240
13C0
2240
4440
0040
3DE0
0500
3DC0
2100
1FE0
ENDCHAR
STARTCHAR uniAECA
ENCODING 44746
SWIDTH 960 0
DWIDTH 12 0
BBX 12 11 0 -1
BITMAP
7E40
1240
13C0
2240
4440
0040
3BE0
0940
3940
2140
1FE0
ENDCHAR
STARTCHAR uniAECB
ENCODING 44747
SWIDTH 960 0
DWIDTH 12 0
BBX 12 11 0 -1
BITMAP
7E40
1240
13C0
2240
4440
0040
3880
0FE0
3A40
2240
1980
ENDCHAR
STARTCHAR uniAECC
ENCODING 44748
SWIDTH 960 0
DWIDTH 12 0
BBX 12 11 0 -1
BITMAP
7E40
1240
13C0
1240
2240
4440
0000
3FC0
2040
2040
1FC0
ENDCHAR
STARTCHAR uniAECD
ENCODING 44749
SWIDTH 960 0
DWIDTH 12 0
BBX 12 11 0 -1
BITMAP
7E40
1240
13C0
1240
2240
4440
0000
2040
3FC0
2040
1FC0
ENDCHAR
STARTCHAR uniAECE
ENCODING 44750
SWIDTH 960 0
DWIDTH 12 0
BBX 12 11 0 -1
BITMAP
7E40
1240
13C0
1240
2240
4440
0000
2480
3C80
2540
1E20
ENDCHAR
STARTCHAR uniAECF
ENCODING 44751
SWIDTH 960 0
DWIDTH 12 0
BBX 12 11 0 -1
BITMAP
7E40
1240
13C0
1240
2240
4440
0000
0200
0500
0880
3060
ENDCHAR
STARTCHAR uniAED0
ENCODING 44752
SWIDTH 960 0
DWIDTH 12 0
BBX 12 11 0 -1
BITMAP
7E40
1240
13C0
1240
2240
4440
0000
0880
0880
1540
2220
ENDCHAR
STARTCHAR uniAED1
ENCODING 44753
SWIDTH 960 0
DWIDTH 12 0
BBX 12 11 0 -1
BITMAP
7E40
1240
13C0
1240
2240
4440
0000
1F80
2040
2040
1F80
ENDCHAR
STARTCHAR uniAED2
ENCODING 44754
SWIDTH 960 0
DWIDTH 12 0
BBX 12 11 0 -1
BITMAP
7E40
1240
13C0
1240
2240
4440
0000
3FE0
0100
0680
3860
ENDCHAR
STARTCHAR uniAED3
ENCODING 44755
SWIDTH 960 0
DWIDTH 12 0
BBX 12 11 0 -1
BITMAP
7E40
1240
13C0
2240
4440
0040
0100
3FE0
0100
0680
3860
ENDCHAR
STARTCHAR uniAED4
ENCODING 44756
SWIDTH 960 0
DWIDTH 12 0
BBX 12 11 0 -1
BITMAP
7E40
1240
13C0
2240
4440
0040
3FC0
2000
3FC0
2000
1FC0
ENDCHAR
STARTCHAR uniAED5
ENCODING 44757
SWIDTH 960 0
DWIDTH 12 0
BBX 12 11 0 -1
BITMAP
7E40
1240
13C0
2240
4440
0040
3FC0
2000
3FC0
2000
1FC0
ENDCHAR
STARTCHAR uniAED6
ENCODING 44758
SWIDTH 960 0
DWIDTH 12 0
BBX 12 11 0 -1
BITMAP
7E40
1240
13C0
1240
2240
4440
0000
3FE0
0880
0880
3FE0
ENDCHAR
STARTCHAR uniAED7
ENCODING 44759
SWIDTH 960 0
DWIDTH 12 0
BBX 12 11 0 -1
BITMAP
7E40
1240
13C0
2240
4440
0040
0700
0000
7FE0
1040
0F80
ENDCHAR
STARTCHAR uniAED8
ENCODING 44760
SWIDTH 960 0
DWIDTH 12 0
BBX 12 11 0 -1
BITMAP
FCA0
24A0
24A0
24A0
27A0
24A0
44A0
48A0
88A0
10A0
00A0
ENDCHAR
STARTCHAR uniAED9
ENCODING 44761
SWIDTH 960 0
DWIDTH 12 0
BBX 12 11 0 -1
BITMAP
7EA0
12A0
13A0
24A0
48A0
10A0
0000
1FE0
0020
0020
0020
ENDCHAR
STARTCHAR uniAEDA
ENCODING 44762
SWIDTH 960 0
DWIDTH 12 0
BBX 12 11 0 -1
BITMAP
7EA0
12A0
13A0
24A0
48A0
10A0
0000
1FE0
0220
0220
0220
ENDCHAR
STARTCHAR uniAEDB
ENCODING 44763
SWIDTH 960 0
DWIDTH 12 0
BBX 12 11 0 -1
BITMAP
7EA0
12A0
13A0
24A0
48A0
10A0
0000
3C80
0480
0540
0220
ENDCHAR
STARTCHAR uniAEDC
ENCODING 44764
SWIDTH 960 0
DWIDTH 12 0
BBX 12 11 0 -1
BITMAP
7EA0
12A0
13A0
24A0
48A0
10A0
0020
2000
2000
2000
1FE0
ENDCHAR
STARTCHAR uniAEDD
ENCODING 44765
SWIDTH 960 0
DWIDTH 12 0
BBX 12 11 0 -1
BITMAP
7EA0
12A0
13A0
24A0
48A0
10A0
0000
23E0
2080
2140
1E30
ENDCHAR
STARTCHAR uniAEDE
ENCODING 44766
SWIDTH 960 0
DWIDTH 12 0
BBX 12 11 0 -1
BITMAP
7EA0
12A0
13A0
24A0
48A0
10A0
0080
23F0
2120
2120
1CC0
ENDCHAR
STARTCHAR uniAEDF
ENCODING 44767
SWIDTH 960 0
DWIDTH 12 0
BBX 12 11 0 -1
BITMAP
7EA0
12A0
13A0
24A0
48A0
10A0
0000
3FE0
2000
2000
1FE0
ENDCHAR
STARTCHAR uniAEE0
ENCODING 44768
SWIDTH 960 0
DWIDTH 12 0
BBX 12 11 0 -1
BITMAP
7EA0
12A0
13A0
24A0
48A0
00A0
3FE0
0020
3FE0
2000
1FE0
ENDCHAR
STARTCHAR uniAEE1
ENCODING 44769
SWIDTH 960 0
DWIDTH 12 0
BBX 12 11 0 -1
BITMAP
7EA0
12A0
13A0
24A0
48A0
00A0
3DE0
0420
3C20
2020
1E20
ENDCHAR
STARTCHAR uniAEE2
ENCODING 44770
SWIDTH 960 0
DWIDTH 12 0
BBX 12 11 0 -1
BITMAP
7EA0
12A0
13A0
24A0
48A0
00A0
3DE0
0520
3D20
2120
1FE0
ENDCHAR
STARTCHAR uniAEE3
ENCODING 44771
SWIDTH 960 0
DWIDTH 12 0
BBX 12 11 0 -1
BITMAP
7EA0
12A0
13A0
24A0
48A0
00A0
3D20
0520
3DE0
2120
1FE0
ENDCHAR
STARTCHAR uniAEE4
ENCODING 44772
SWIDTH 960 0
DWIDTH 12 0
BBX 12 11 0 -1
BITMAP
7EA0
12A0
13A0
24A0
48A0
00A0
3C80
0480
3D40
2220
1C10
ENDCHAR
STARTCHAR uniAEE5
ENCODING 44773
SWIDTH 960 0
DWIDTH 12 0
BBX 12 11 0 -1
BITMAP
7EA0
12A0
13A0
24A0
48A0
00A0
3DE0
0500
3DE0
2100
1FE0
ENDCHAR
STARTCHAR uniAEE6
ENCODING 44774
SWIDTH 960 0
DWIDTH 12 0
BBX 12 11 0 -1
BITMAP
7EA0
12A0
13A0
24A0
48A0
00A0
3BE0
0940
3940
2140
1FE0
ENDCHAR
STARTCHAR uniAEE7
ENCODING 44775
SWIDTH 960 0
DWIDTH 12 0
BBX 12 11 0 -1
BITMAP
7EA0
12A0
13A0
24A0
48A0
00A0
3880
0FE0
3A40
2240
1980
ENDCHAR
STARTCHAR uniAEE8
ENCODING 44776
SWIDTH 960 0
DWIDTH 12 0
BBX 12 11 0 -1
BITMAP
7EA0
12A0
13A0
24A0
48A0
10A0
0000
3FE0
2020
2020
1FE0
ENDCHAR
STARTCHAR uniAEE9
ENCODING 44777
SWIDTH 960 0
DWIDTH 12 0
BBX 12 11 0 -1
BITMAP
7EA0
12A0
13A0
24A0
48A0
10A0
0000
2020
3FE0
2020
1FE0
ENDCHAR
STARTCHAR uniAEEA
ENCODING 44778
SWIDTH 960 0
DWIDTH 12 0
BBX 12 11 0 -1
BITMAP
7EA0
12A0
13A0
24A0
48A0
10A0
0000
2480
3D40
2620
1C10
ENDCHAR
STARTCHAR uniAEEB
ENCODING 44779
SWIDTH 960 0
DWIDTH 12 0
BBX 12 11 0 -1
BITMAP
7EA0
12A0
13A0
24A0
48A0
10A0
0000
0080
0080
0340
1C30
ENDCHAR
STARTCHAR uniAEEC
ENCODING 44780
SWIDTH 960 0
DWIDTH 12 0
BBX 12 11 0 -1
BITMAP
7EA0
12A0
13A0
24A0
48A0
10A0
0000
0840
0840
14A0
2310
ENDCHAR
STARTCHAR uniAEED
ENCODING 44781
SWIDTH 960 0
DWIDTH 12 0
BBX 12 11 0 -1
BITMAP
7EA0
12A0
13A0
24A0
48A0
10A0
0000
1FC0
2020
2020
1FC0
ENDCHAR
STARTCHAR uniAEEE
ENCODING 44782
SWIDTH 960 0
DWIDTH 12 0
BBX 12 11 0 -1
BITMAP
7EA0
12A0
13A0
24A0
48A0
10A0
0000
3FE0
0100
0680
3860
ENDCHAR
STARTCHAR uniAEEF
ENCODING 44783
SWIDTH 960 0
DWIDTH 12 0
BBX 12 11 0 -1
BITMAP
7EA0
12A0
13A0
24A0
48A0
00A0
0080
3FE0
0100
0680
3860
ENDCHAR
STARTCHAR uniAEF0
ENCODING 44784
SWIDTH 960 0
DWIDTH 12 0
BBX 12 11 0 -1
BITMAP
7EA0
12A0
13A0
24A0
48A0
00A0
3FE0
2000
3FE0
2000
1FE0
ENDCHAR
STARTCHAR uniAEF1
ENCODING 44785
SWIDTH 960 0
DWIDTH 12 0
BBX 12 11 0 -1
BITMAP
7EA0
12A0
13A0
24A0
48A0
00A0
3FE0
2000
3FE0
2000
1FE0
ENDCHAR
STARTCHAR uniAEF2
ENCODING 44786
SWIDTH 960 0
DWIDTH 12 0
BBX 12 11 0 -1
BITMAP
7EA0
12A0
13A0
24A0
48A0
10A0
0000
3FE0
0880
0880
3FE0
ENDCHAR
STARTCHAR uniAEF3
ENCODING 44787
SWIDTH 960 0
DWIDTH 12 0
BBX 12 11 0 -1
BITMAP
7EA0
12A0
13A0
24A0
48A0
00A0
0700
0000
3FE0
1040
0F80
ENDCHAR
STARTCHAR uniAEF4
ENCODING 44788
SWIDTH 960 0
DWIDTH 12 0
BBX 12 11 0 -1
BITMAP
7740
1140
11C0
1140
1140
11C0
2140
2240
4240
0440
0040
ENDCHAR
STARTCHAR uniAEF5
ENCODING 44789
SWIDTH 960 0
DWIDTH 12 0
BBX 12 11 0 -1
BITMAP
7E40
13C0
1240
13C0
2240
4440
0000
3FC0
0040
0040
0040
ENDCHAR
STARTCHAR uniAEF6
ENCODING 44790
SWIDTH 960 0
DWIDTH 12 0
BBX 12 11 0 -1
BITMAP
7E40
13C0
1240
13C0
2240
4440
0000
3FC0
0440
0440
0440
ENDCHAR
STARTCHAR uniAEF7
ENCODING 44791
SWIDTH 960 0
DWIDTH 12 0
BBX 12 11 0 -1
BITMAP
7E40
13C0
1240
13C0
2240
4440
0000
3C80
0480
0540
0220
ENDCHAR
STARTCHAR uniAEF8
ENCODING 44792
SWIDTH 960 0
DWIDTH 12 0
BBX 12 11 0 -1
BITMAP
7E40
13C0
1240
13C0
2240
4440
0040
2000
2000
2000
1FC0
ENDCHAR
STARTCHAR uniAEF9
ENCODING 44793
SWIDTH 960 0
DWIDTH 12 0
BBX 12 11 0 -1
BITMAP
7E40
13C0
1240
13C0
2240
4440
0000
27C0
2100
2280
1C60
ENDCHAR
STARTCHAR uniAEFA
ENCODING 44794
SWIDTH 960 0
DWIDTH 12 0
BBX 12 11 0 -1
BITMAP
7E40
13C0
1240
13C0
2240
4440
0100
27E0
2240
2240
1D80
ENDCHAR
STARTCHAR uniAEFB
ENCODING 44795
SWIDTH 960 0
DWIDTH 12 0
BBX 12 11 0 -1
BITMAP
7E40
13C0
1240
13C0
2240
4440
0000
3FC0
2000
2000
1FC0
ENDCHAR
STARTCHAR uniAEFC
ENCODING 44796
SWIDTH 960 0
DWIDTH 12 0
BBX 12 11 0 -1
BITMAP
7E40
13C0
1240
23C0
4440
0040
3FC0
0040
3FC0
2000
1FC0
ENDCHAR
STARTCHAR uniAEFD
ENCODING 44797
SWIDTH 960 0
DWIDTH 12 0
BBX 12 11 0 -1
BITMAP
7E40
13C0
1240
23C0
4440
0040
3FC0
0440
3C40
2040
1C40
ENDCHAR
STARTCHAR uniAEFE
ENCODING 44798
SWIDTH 960 0
DWIDTH 12 0
BBX 12 11 0 -1
BITMAP
7E40
13C0
1240
23C0
4440
0040
3DC0
0540
3D40
2140
1FC0
ENDCHAR
STARTCHAR uniAEFF
ENCODING 44799
SWIDTH 960 0
DWIDTH 12 0
BBX 12 11 0 -1
BITMAP
7E40
13C0
1240
23C0
4440
0040
3D40
0540
3DC0
2140
1FC0
ENDCHAR
STARTCHAR uniAF00
ENCODING 44800
SWIDTH 960 0
DWIDTH 12 0
BBX 12 11 0 -1
BITMAP
7E40
13C0
1240
23C0
4440
0040
3C80
0480
3D40
2220
1C10
ENDCHAR
STARTCHAR uniAF01
ENCODING 44801
SWIDTH 960 0
DWIDTH 12 0
BBX 12 11 0 -1
BITMAP
7E40
13C0
1240
23C0
4440
0040
3DE0
0500
3DC0
2100
1FE0
ENDCHAR
STARTCHAR uniAF02
ENCODING 44802
SWIDTH 960 0
DWIDTH 12 0
BBX 12 11 0 -1
BITMAP
7E40
13C0
1240
23C0
4440
0040
3BE0
0940
3940
2140
1FE0
ENDCHAR
STARTCHAR uniAF03
ENCODING 44803
SWIDTH 960 0
DWIDTH 12 0
BBX 12 11 0 -1
BITMAP
7E40
13C0
1240
23C0
4440
0040
3880
0FE0
3A40
2240
1980
ENDCHAR
STARTCHAR uniAF04
ENCODING 44804
SWIDTH 960 0
DWIDTH 12 0
BBX 12 11 0 -1
BITMAP
7E40
13C0
1240
13C0
2240
4440
0000
3FC0
2040
2040
1FC0
ENDCHAR
STARTCHAR uniAF05
ENCODING 44805
SWIDTH 960 0
DWIDTH 12 0
BBX 12 11 0 -1
BITMAP
7E40
13C0
1240
13C0
2240
4440
0000
2040
3FC0
2040
1FC0
ENDCHAR
STARTCHAR uniAF06
ENCODING 44806
SWIDTH 960 0
DWIDTH 12 0
BBX 12 11 0 -1
BITMAP
7E40
13C0
1240
13C0
2240
4440
0000
2480
3C80
2540
1E20
ENDCHAR
STARTCHAR uniAF07
ENCODING 44807
SWIDTH 960 0
DWIDTH 12 0
BBX 12 11 0 -1
BITMAP
7E40
13C0
1240
13C0
2240
4440
0000
0200
0500
0880
3060
ENDCHAR
STARTCHAR uniAF08
ENCODING 44808
SWIDTH 960 0
DWIDTH 12 0
BBX 12 11 0 -1
BITMAP
7E40
13C0
1240
13C0
2240
4440
0000
0880
0880
1540
2220
ENDCHAR
STARTCHAR uniAF09
ENCODING 44809
SWIDTH 960 0
DWIDTH 12 0
BBX 12 11 0 -1
BITMAP
7E40
13C0
1240
13C0
2240
4440
0000
1F80
2040
2040
1F80
ENDCHAR
STARTCHAR uniAF0A
ENCODING 44810
SWIDTH 960 0
DWIDTH 12 0
BBX 12 11 0 -1
BITMAP
7E40
13C0
1240
13C0
2240
4440
0000
3FE0
0100
0680
3860
ENDCHAR
STARTCHAR uniAF0B
ENCODING 44811
SWIDTH 960 0
DWIDTH 12 0
BBX 12 11 0 -1
BITMAP
7E40
13C0
1240
23C0
4440
0040
0100
3FE0
0100
0680
3860
ENDCHAR
STARTCHAR uniAF0C
ENCODING 44812
SWIDTH 960 0
DWIDTH 12 0
BBX 12 11 0 -1
BITMAP
7E40
13C0
1240
23C0
4440
0040
3FC0
2000
3FC0
2000
1FC0
ENDCHAR
STARTCHAR uniAF0D
ENCODING 44813
SWIDTH 960 0
DWIDTH 12 0
BBX 12 11 0 -1
BITMAP
7E40
13C0
1240
23C0
4440
0040
3FC0
2000
3FC0
2000
1FC0
ENDCHAR
STARTCHAR uniAF0E
ENCODING 44814
SWIDTH 960 0
DWIDTH 12 0
BBX 12 11 0 -1
BITMAP
7E40
13C0
1240
13C0
2240
4440
0000
3FE0
0880
0880
3FE0
ENDCHAR
STARTCHAR uniAF0F
ENCODING 44815
SWIDTH 960 0
DWIDTH 12 0
BBX 12 11 0 -1
BITMAP
7E40
13C0
1240
23C0
4440
0040
0700
0000
7FE0
1040
0F80
ENDCHAR
STARTCHAR uniAF10
ENCODING 44816
SWIDTH 960 0
DWIDTH 12 0
BBX 12 11 0 -1
BITMAP
FCA0
24A0
27A0
24A0
24A0
27A0
44A0
48A0
88A0
10A0
00A0
ENDCHAR
STARTCHAR uniAF11
ENCODING 44817
SWIDTH 960 0
DWIDTH 12 0
BBX 12 11 0 -1
BITMAP
7EA0
13A0
12A0
27A0
48A0
10A0
0000
1FE0
0020
0020
0020
ENDCHAR
STARTCHAR uniAF12
ENCODING 44818
SWIDTH 960 0
DWIDTH 12 0
BBX 12 11 0 -1
BITMAP
7EA0
13A0
12A0
27A0
48A0
10A0
0000
1FE0
0220
0220
0220
ENDCHAR
STARTCHAR uniAF13
ENCODING 44819
SWIDTH 960 0
DWIDTH 12 0
BBX 12 11 0 -1
BITMAP
7EA0
13A0
12A0
27A0
48A0
10A0
0000
3C80
0480
0540
0220
ENDCHAR
STARTCHAR uniAF14
ENCODING 44820
SWIDTH 960 0
DWIDTH 12 0
BBX 12 11 0 -1
BITMAP
7EA0
13A0
12A0
27A0
48A0
10A0
0020
2000
2000
2000
1FE0
ENDCHAR
STARTCHAR uniAF15
ENCODING 44821
SWIDTH 960 0
DWIDTH 12 0
BBX 12 11 0 -1
BITMAP
7EA0
13A0
12A0
27A0
48A0
10A0
0000
23E0
2080
2140
1E30
ENDCHAR
STARTCHAR uniAF16
ENCODING 44822
SWIDTH 960 0
DWIDTH 12 0
BBX 12 11 0 -1
BITMAP
7EA0
13A0
12A0
27A0
48A0
10A0
0080
23F0
2120
2120
1CC0
ENDCHAR
STARTCHAR uniAF17
ENCODING 44823
SWIDTH 960 0
DWIDTH 12 0
BBX 12 11 0 -1
BITMAP
7EA0
13A0
12A0
27A0
48A0
10A0
0000
3FE0
2000
2000
1FE0
ENDCHAR
STARTCHAR uniAF18
ENCODING 44824
SWIDTH 960 0
DWIDTH 12 0
BBX 12 11 0 -1
BITMAP
7EA0
13A0
12A0
27A0
48A0
00A0
3FE0
0020
3FE0
2000
1FE0
ENDCHAR
STARTCHAR uniAF19
ENCODING 44825
SWIDTH 960 0
DWIDTH 12 0
BBX 12 11 0 -1
BITMAP
7EA0
13A0
12A0
27A0
48A0
00A0
3DE0
0420
3C20
2020
1E20
ENDCHAR
STARTCHAR uniAF1A
ENCODING 44826
SWIDTH 960 0
DWIDTH 12 0
BBX 12 11 0 -1
BITMAP
7EA0
13A0
12A0
27A0
48A0
00A0
3DE0
0520
3D20
2120
1FE0
ENDCHAR
STARTCHAR uniAF1B
ENCODING 44827
SWIDTH 960 0
DWIDTH 12 0
BBX 12 11 0 -1
BITMAP
7EA0
13A0
12A0
27A0
48A0
00A0
3D20
0520
3DE0
2120
1FE0
ENDCHAR
STARTCHAR uniAF1C
ENCODING 44828
SWIDTH 960 0
DWIDTH 12 0
BBX 12 11 0 -1
BITMAP
7EA0
13A0
12A0
27A0
48A0
00A0
3C80
0480
3D40
2220
1C10
ENDCHAR
STARTCHAR uniAF1D
ENCODING 44829
SWIDTH 960 0
DWIDTH 12 0
BBX 12 11 0 -1
BITMAP
7EA0
13A0
12A0
27A0
48A0
00A0
3DE0
0500
3DE0
2100
1FE0
ENDCHAR
STARTCHAR uniAF1E
ENCODING 44830
SWIDTH 960 0
DWIDTH 12 0
BBX 12 11 0 -1
BITMAP
7EA0
13A0
12A0
27A0
48A0
00A0
3BE0
0940
3940
2140
1FE0
ENDCHAR
STARTCHAR uniAF1F
ENCODING 44831
SWIDTH 960 0
DWIDTH 12 0
BBX 12 11 0 -1
BITMAP
7EA0
13A0
12A0
27A0
48A0
00A0
3880
0FE0
3A40
2240
1980
ENDCHAR
STARTCHAR uniAF20
ENCODING 44832
SWIDTH 960 0
DWIDTH 12 0
BBX 12 11 0 -1
BITMAP
7EA0
13A0
12A0
27A0
48A0
10A0
0000
3FE0
2020
2020
1FE0
ENDCHAR
STARTCHAR uniAF21
ENCODING 44833
SWIDTH 960 0
DWIDTH 12 0
BBX 12 11 0 -1
BITMAP
7EA0
13A0
12A0
27A0
48A0
10A0
0000
2020
3FE0
2020
1FE0
ENDCHAR
STARTCHAR uniAF22
ENCODING 44834
SWIDTH 960 0
DWIDTH 12 0
BBX 12 11 0 -1
BITMAP
7EA0
13A0
12A0
27A0
48A0
10A0
0000
2480
3D40
2620
1C10
ENDCHAR
STARTCHAR uniAF23
ENCODING 44835
SWIDTH 960 0
DWIDTH 12 0
BBX 12 11 0 -1
BITMAP
7EA0
13A0
12A0
27A0
48A0
10A0
0000
0080
0080
0340
1C30
ENDCHAR
STARTCHAR uniAF24
ENCODING 44836
SWIDTH 960 0
DWIDTH 12 0
BBX 12 11 0 -1
BITMAP
7EA0
13A0
12A0
27A0
48A0
10A0
0000
0840
0840
14A0
2310
ENDCHAR
STARTCHAR uniAF25
ENCODING 44837
SWIDTH 960 0
DWIDTH 12 0
BBX 12 11 0 -1
BITMAP
7EA0
13A0
12A0
27A0
48A0
10A0
0000
1FC0
2020
2020
1FC0
ENDCHAR
STARTCHAR uniAF26
ENCODING 44838
SWIDTH 960 0
DWIDTH 12 0
BBX 12 11 0 -1
BITMAP
7EA0
13A0
12A0
27A0
48A0
10A0
0000
3FE0
0100
0680
3860
ENDCHAR
STARTCHAR uniAF27
ENCODING 44839
SWIDTH 960 0
DWIDTH 12 0
BBX 12 11 0 -1
BITMAP
7EA0
13A0
12A0
27A0
48A0
00A0
0080
3FE0
0100
0680
3860
ENDCHAR
STARTCHAR uniAF28
ENCODING 44840
SWIDTH 960 0
DWIDTH 12 0
BBX 12 11 0 -1
BITMAP
7EA0
13A0
12A0
27A0
48A0
00A0
3FE0
2000
3FE0
2000
1FE0
ENDCHAR
STARTCHAR uniAF29
ENCODING 44841
SWIDTH 960 0
DWIDTH 12 0
BBX 12 11 0 -1
BITMAP
7EA0
13A0
12A0
27A0
48A0
00A0
3FE0
2000
3FE0
2000
1FE0
ENDCHAR
STARTCHAR uniAF2A
ENCODING 44842
SWIDTH 960 0
DWIDTH 12 0
BBX 12 11 0 -1
BITMAP
7EA0
13A0
12A0
27A0
48A0
10A0
0000
3FE0
0880
0880
3FE0
ENDCHAR
STARTCHAR uniAF2B
ENCODING 44843
SWIDTH 960 0
DWIDTH 12 0
BBX 12 11 0 -1
BITMAP
7EA0
13A0
12A0
27A0
48A0
00A0
0700
0000
3FE0
1040
0F80
ENDCHAR
STARTCHAR uniAF2C
ENCODING 44844
SWIDTH 960 0
DWIDTH 12 0
BBX 12 11 0 -1
BITMAP
7BC0
0840
0840
0840
0840
1040
2040
4480
0400
FFE0
0000
ENDCHAR
STARTCHAR uniAF2D
ENCODING 44845
SWIDTH 960 0
DWIDTH 12 0
BBX 12 11 0 -1
BITMAP
7BC0
0840
0840
1040
2440
FFE0
0000
7FC0
0040
0040
0040
ENDCHAR
STARTCHAR uniAF2E
ENCODING 44846
SWIDTH 960 0
DWIDTH 12 0
BBX 12 11 0 -1
BITMAP
7BC0
0840
0840
1040
2440
FFE0
0000
7FC0
0440
0440
0440
ENDCHAR
STARTCHAR uniAF2F
ENCODING 44847
SWIDTH 960 0
DWIDTH 12 0
BBX 12 11 0 -1
BITMAP
7BC0
0840
0840
1040
2440
FFE0
0000
7880
0880
0940
0A20
ENDCHAR
STARTCHAR uniAF30
ENCODING 44848
SWIDTH 960 0
DWIDTH 12 0
BBX 12 11 0 -1
BITMAP
7BC0
0840
0840
1040
2040
0400
FFE0
4000
4000
4000
3FC0
ENDCHAR
STARTCHAR uniAF31
ENCODING 44849
SWIDTH 960 0
DWIDTH 12 0
BBX 12 11 0 -1
BITMAP
7BC0
0840
0840
1040
2440
FFE0
0000
47C0
4100
4280
3C40
ENDCHAR
STARTCHAR uniAF32
ENCODING 44850
SWIDTH 960 0
DWIDTH 12 0
BBX 12 11 0 -1
BITMAP
7BC0
0840
0840
1040
2440
FFE0
0100
47E0
4240
4240
3980
ENDCHAR
STARTCHAR uniAF33
ENCODING 44851
SWIDTH 960 0
DWIDTH 12 0
BBX 12 11 0 -1
BITMAP
7BC0
0840
0840
1040
2440
FFE0
0000
7FC0
4000
4000
3FC0
ENDCHAR
STARTCHAR uniAF34
ENCODING 44852
SWIDTH 960 0
DWIDTH 12 0
BBX 12 11 0 -1
BITMAP
7BC0
0840
1040
2440
FFE0
0000
7FC0
0040
7FC0
4000
3FC0
ENDCHAR
STARTCHAR uniAF35
ENCODING 44853
SWIDTH 960 0
DWIDTH 12 0
BBX 12 11 0 -1
BITMAP
7BC0
0840
1040
2440
FFE0
0000
7BC0
0840
7840
4040
3C40
ENDCHAR
STARTCHAR uniAF36
ENCODING 44854
SWIDTH 960 0
DWIDTH 12 0
BBX 12 11 0 -1
BITMAP
7BC0
0840
1040
2440
FFE0
0000
7BC0
0A40
7A40
4240
3FC0
ENDCHAR
STARTCHAR uniAF37
ENCODING 44855
SWIDTH 960 0
DWIDTH 12 0
BBX 12 11 0 -1
BITMAP
7BC0
0840
1040
2440
FFE0
0000
7A40
0A40
7BC0
4240
3FC0
ENDCHAR
STARTCHAR uniAF38
ENCODING 44856
SWIDTH 960 0
DWIDTH 12 0
BBX 12 11 0 -1
BITMAP
7BC0
0840
1040
2440
FFE0
0000
7900
0900
7A80
4440
3820
ENDCHAR
STARTCHAR uniAF39
ENCODING 44857
SWIDTH 960 0
DWIDTH 12 0
BBX 12 11 0 -1
BITMAP
7BC0
0840
1040
2440
FFE0
0000
7BC0
0A00
7B80
4200
3FC0
ENDCHAR
STARTCHAR uniAF3A
ENCODING 44858
SWIDTH 960 0
DWIDTH 12 0
BBX 12 11 0 -1
BITMAP
7BC0
0840
1040
2440
FFE0
0000
77C0
1280
7280
4280
3FC0
ENDCHAR
STARTCHAR uniAF3B
ENCODING 44859
SWIDTH 960 0
DWIDTH 12 0
BBX 12 11 0 -1
BITMAP
7BC0
0840
1040
2440
FFE0
0000
7880
0FE0
7A40
4240
3980
ENDCHAR
STARTCHAR uniAF3C
ENCODING 44860
SWIDTH 960 0
DWIDTH 12 0
BBX 12 11 0 -1
BITMAP
7BC0
0840
0840
1040
2440
FFE0
0000
7FC0
4040
4040
3FC0
ENDCHAR
STARTCHAR uniAF3D
ENCODING 44861
SWIDTH 960 0
DWIDTH 12 0
BBX 12 11 0 -1
BITMAP
7BC0
0840
0840
1040
2440
FFE0
0000
4040
7FC0
4040
3FC0
ENDCHAR
STARTCHAR uniAF3E
ENCODING 44862
SWIDTH 960 0
DWIDTH 12 0
BBX 12 11 0 -1
BITMAP
7BC0
0840
0840
1040
2440
FFE0
0000
4900
7A80
4C40
3820
ENDCHAR
STARTCHAR uniAF3F
ENCODING 44863
SWIDTH 960 0
DWIDTH 12 0
BBX 12 11 0 -1
BITMAP
7BC0
0840
0840
1040
2440
FFE0
0000
0400
0A00
1100
60C0
ENDCHAR
STARTCHAR uniAF40
ENCODING 44864
SWIDTH 960 0
DWIDTH 12 0
BBX 12 11 0 -1
BITMAP
7BC0
0840
0840
1040
2440
FFE0
0000
1100
1100
2A80
4440
ENDCHAR
STARTCHAR uniAF41
ENCODING 44865
SWIDTH 960 0
DWIDTH 12 0
BBX 12 11 0 -1
BITMAP
7BC0
0840
0840
1040
2440
FFE0
0000
3F80
4040
4040
3F80
ENDCHAR
STARTCHAR uniAF42
ENCODING 44866
SWIDTH 960 0
DWIDTH 12 0
BBX 12 11 0 -1
BITMAP
7BC0
0840
0840
1040
2440
FFE0
0000
7FC0
0400
0A00
71C0
ENDCHAR
STARTCHAR uniAF43
ENCODING 44867
SWIDTH 960 0
DWIDTH 12 0
BBX 12 11 0 -1
BITMAP
7BC0
0840
1040
2440
FFE0
0000
0200
7FC0
0400
1B00
60C0
ENDCHAR
STARTCHAR uniAF44
ENCODING 44868
SWIDTH 960 0
DWIDTH 12 0
BBX 12 11 0 -1
BITMAP
7BC0
0840
1040
2440
FFE0
0000
7FC0
4000
7F80
4000
3FC0
ENDCHAR
STARTCHAR uniAF45
ENCODING 44869
SWIDTH 960 0
DWIDTH 12 0
BBX 12 11 0 -1
BITMAP
7BC0
0840
1040
2440
FFE0
0000
7FC0
4000
7F80
4000
3FC0
ENDCHAR
STARTCHAR uniAF46
ENCODING 44870
SWIDTH 960 0
DWIDTH 12 0
BBX 12 11 0 -1
BITMAP
7BC0
0840
0840
1040
2440
FFE0
0000
7FC0
1100
1100
7FC0
ENDCHAR
STARTCHAR uniAF47
ENCODING 44871
SWIDTH 960 0
DWIDTH 12 0
BBX 12 11 0 -1
BITMAP
7BC0
0840
1040
2440
FFE0
0000
0E00
0000
7FC0
2080
1F00
ENDCHAR
STARTCHAR uniAF48
ENCODING 44872
SWIDTH 960 0
DWIDTH 12 0
BBX 12 11 0 -1
BITMAP
7740
1140
1140
1140
2170
4140
0840
0840
7F40
0040
0040
ENDCHAR
STARTCHAR uniAF49
ENCODING 44873
SWIDTH 960 0
DWIDTH 12 0
BBX 12 11 0 -1
BITMAP
7740
1140
2140
4170
0840
7F40
0000
3FC0
0040
0040
0040
ENDCHAR
STARTCHAR uniAF4A
ENCODING 44874
SWIDTH 960 0
DWIDTH 12 0
BBX 12 11 0 -1
BITMAP
7740
1140
2140
4170
0840
7F40
0000
3FC0
0440
0440
0440
ENDCHAR
STARTCHAR uniAF4B
ENCODING 44875
SWIDTH 960 0
DWIDTH 12 0
BBX 12 11 0 -1
BITMAP
7740
1140
2140
4170
0840
7F40
0000
3C80
0480
0540
0220
ENDCHAR
STARTCHAR uniAF4C
ENCODING 44876
SWIDTH 960 0
DWIDTH 12 0
BBX 12 11 0 -1
BITMAP
7740
1140
2140
4170
0840
7F40
0040
2000
2000
2000
1FC0
ENDCHAR
STARTCHAR uniAF4D
ENCODING 44877
SWIDTH 960 0
DWIDTH 12 0
BBX 12 11 0 -1
BITMAP
7740
1140
2140
4170
0840
7F40
0000
27C0
2100
2280
1C60
ENDCHAR
STARTCHAR uniAF4E
ENCODING 44878
SWIDTH 960 0
DWIDTH 12 0
BBX 12 11 0 -1
BITMAP
7740
1140
2140
4170
0840
7F40
0100
27E0
2240
2240
1980
ENDCHAR
STARTCHAR uniAF4F
ENCODING 44879
SWIDTH 960 0
DWIDTH 12 0
BBX 12 11 0 -1
BITMAP
7740
1140
2140
4170
0840
7F40
0000
3FC0
2000
2000
1FC0
ENDCHAR
STARTCHAR uniAF50
ENCODING 44880
SWIDTH 960 0
DWIDTH 12 0
BBX 12 11 0 -1
BITMAP
7740
1140
2140
0870
7FC0
0000
3FC0
0040
3FC0
2000
1FC0
ENDCHAR
STARTCHAR uniAF51
ENCODING 44881
SWIDTH 960 0
DWIDTH 12 0
BBX 12 11 0 -1
BITMAP
7740
1140
2140
0870
7FC0
0000
3FC0
0440
3C40
2040
1C40
ENDCHAR
STARTCHAR uniAF52
ENCODING 44882
SWIDTH 960 0
DWIDTH 12 0
BBX 12 11 0 -1
BITMAP
7740
1140
2140
0870
7FC0
0000
3DC0
0540
3D40
2140
1FC0
ENDCHAR
STARTCHAR uniAF53
ENCODING 44883
SWIDTH 960 0
DWIDTH 12 0
BBX 12 11 0 -1
BITMAP
7740
1140
2140
0870
7FC0
0000
3A40
0A40
3BC0
2240
1FC0
ENDCHAR
STARTCHAR uniAF54
ENCODING 44884
SWIDTH 960 0
DWIDTH 12 0
BBX 12 11 0 -1
BITMAP
7740
1140
2140
0870
7FC0
0000
3C80
0480
3D40
2220
1C10
ENDCHAR
STARTCHAR uniAF55
ENCODING 44885
SWIDTH 960 0
DWIDTH 12 0
BBX 12 11 0 -1
BITMAP
7740
1140
2140
0870
7FC0
0000
3DE0
0500
3DC0
2100
1FE0
ENDCHAR
STARTCHAR uniAF56
ENCODING 44886
SWIDTH 960 0
DWIDTH 12 0
BBX 12 11 0 -1
BITMAP
7740
1140
2140
0870
7FC0
0000
3BE0
0940
3940
2140
1FE0
ENDCHAR
STARTCHAR uniAF57
ENCODING 44887
SWIDTH 960 0
DWIDTH 12 0
BBX 12 11 0 -1
BITMAP
7740
1140
2140
0870
7FC0
0000
3880
0FE0
3A40
2240
1980
ENDCHAR
STARTCHAR uniAF58
ENCODING 44888
SWIDTH 960 0
DWIDTH 12 0
BBX 12 11 0 -1
BITMAP
7740
1140
2140
4170
0840
7F40
0000
3FC0
2040
2040
1FC0
ENDCHAR
STARTCHAR uniAF59
ENCODING 44889
SWIDTH 960 0
DWIDTH 12 0
BBX 12 11 0 -1
BITMAP
7740
1140
2140
4170
0840
7F40
0000
2040
3FC0
2040
1FC0
ENDCHAR
STARTCHAR uniAF5A
ENCODING 44890
SWIDTH 960 0
DWIDTH 12 0
BBX 12 11 0 -1
BITMAP
7740
1140
2140
4170
0840
7F40
0000
2480
3D40
2620
1C10
ENDCHAR
STARTCHAR uniAF5B
ENCODING 44891
SWIDTH 960 0
DWIDTH 12 0
BBX 12 11 0 -1
BITMAP
7740
1140
2140
4170
0840
7F40
0000
0200
0500
0880
3060
ENDCHAR
STARTCHAR uniAF5C
ENCODING 44892
SWIDTH 960 0
DWIDTH 12 0
BBX 12 11 0 -1
BITMAP
7740
1140
2140
4170
0840
7F40
0000
0880
0880
1540
2220
ENDCHAR
STARTCHAR uniAF5D
ENCODING 44893
SWIDTH 960 0
DWIDTH 12 0
BBX 12 11 0 -1
BITMAP
7740
1140
2140
4170
0840
7F40
0000
1F80
2040
2040
1F80
ENDCHAR
STARTCHAR uniAF5E
ENCODING 44894
SWIDTH 960 0
DWIDTH 12 0
BBX 12 11 0 -1
BITMAP
7740
1140
2140
4170
0840
7F40
0000
3FE0
0100
0680
3860
ENDCHAR
STARTCHAR uniAF5F
ENCODING 44895
SWIDTH 960 0
DWIDTH 12 0
BBX 12 11 0 -1
BITMAP
7740
1140
2140
0870
7FC0
0000
0100
3FE0
0100
0680
3860
ENDCHAR
STARTCHAR uniAF60
ENCODING 44896
SWIDTH 960 0
DWIDTH 12 0
BBX 12 11 0 -1
BITMAP
7740
1140
2140
0870
7FC0
0000
3FC0
2000
3FC0
2000
1FC0
ENDCHAR
STARTCHAR uniAF61
ENCODING 44897
SWIDTH 960 0
DWIDTH 12 0
BBX 12 11 0 -1
BITMAP
7740
1140
2140
0870
7FC0
0000
3FC0
2000
3FC0
2000
1FC0
ENDCHAR
STARTCHAR uniAF62
ENCODING 44898
SWIDTH 960 0
DWIDTH 12 0
BBX 12 11 0 -1
BITMAP
7740
1140
2140
4170
0840
7F40
0000
3FE0
0880
0880
3FE0
ENDCHAR
STARTCHAR uniAF63
ENCODING 44899
SWIDTH 960 0
DWIDTH 12 0
BBX 12 11 0 -1
BITMAP
7740
1140
2140
0870
7FC0
0000
0700
0000
7FE0
1040
0F80
ENDCHAR
STARTCHAR uniAF64
ENCODING 44900
SWIDTH 960 0
DWIDTH 12 0
BBX 12 11 0 -1
BITMAP
7EA0
12A0
12A0
12A0
22E0
42A0
10A0
10A0
7EA0
00A0
00A0
ENDCHAR
STARTCHAR uniAF65
ENCODING 44901
SWIDTH 960 0
DWIDTH 12 0
BBX 12 11 0 -1
BITMAP
7EA0
12A0
22E0
42A0
10A0
7EA0
00A0
1FE0
0020
0020
0020
ENDCHAR
STARTCHAR uniAF66
ENCODING 44902
SWIDTH 960 0
DWIDTH 12 0
BBX 12 11 0 -1
BITMAP
7EA0
12A0
22E0
42A0
10A0
7EA0
00A0
1FE0
0220
0220
0220
ENDCHAR
STARTCHAR uniAF67
ENCODING 44903
SWIDTH 960 0
DWIDTH 12 0
BBX 12 11 0 -1
BITMAP
7EA0
12A0
22E0
42A0
10A0
7EA0
00A0
3C80
0480
0540
0220
ENDCHAR
STARTCHAR uniAF68
ENCODING 44904
SWIDTH 960 0
DWIDTH 12 0
BBX 12 11 0 -1
BITMAP
7EA0
12A0
22E0
42A0
10A0
7EA0
00A0
2020
2000
2000
1FE0
ENDCHAR
STARTCHAR uniAF69
ENCODING 44905
SWIDTH 960 0
DWIDTH 12 0
BBX 12 11 0 -1
BITMAP
7EA0
12A0
22E0
42A0
10A0
7EA0
00A0
23E0
2080
2140
1E30
ENDCHAR
STARTCHAR uniAF6A
ENCODING 44906
SWIDTH 960 0
DWIDTH 12 0
BBX 12 11 0 -1
BITMAP
7EA0
12A0
22E0
42A0
10A0
7EA0
00A0
23F0
2120
2120
1CC0
ENDCHAR
STARTCHAR uniAF6B
ENCODING 44907
SWIDTH 960 0
DWIDTH 12 0
BBX 12 11 0 -1
BITMAP
7EA0
12A0
22E0
42A0
10A0
7EA0
00A0
3FE0
2000
2000
1FE0
ENDCHAR
STARTCHAR uniAF6C
ENCODING 44908
SWIDTH 960 0
DWIDTH 12 0
BBX 12 11 0 -1
BITMAP
7EA0
12A0
22E0
10A0
7EA0
0000
3FE0
0020
3FE0
2000
1FE0
ENDCHAR
STARTCHAR uniAF6D
ENCODING 44909
SWIDTH 960 0
DWIDTH 12 0
BBX 12 11 0 -1
BITMAP
7EA0
12A0
22E0
10A0
7EA0
0000
3DE0
0420
3C20
2020
1E20
ENDCHAR
STARTCHAR uniAF6E
ENCODING 44910
SWIDTH 960 0
DWIDTH 12 0
BBX 12 11 0 -1
BITMAP
7EA0
12A0
22E0
10A0
7EA0
0000
3DE0
0520
3D20
2120
1FE0
ENDCHAR
STARTCHAR uniAF6F
ENCODING 44911
SWIDTH 960 0
DWIDTH 12 0
BBX 12 11 0 -1
BITMAP
7EA0
12A0
22E0
10A0
7EA0
0000
3D20
0520
3DE0
2120
1FE0
ENDCHAR
STARTCHAR uniAF70
ENCODING 44912
SWIDTH 960 0
DWIDTH 12 0
BBX 12 11 0 -1
BITMAP
7EA0
12A0
22E0
10A0
7EA0
0000
3C80
0480
3D40
2220
1C10
ENDCHAR
STARTCHAR uniAF71
ENCODING 44913
SWIDTH 960 0
DWIDTH 12 0
BBX 12 11 0 -1
BITMAP
7EA0
12A0
22E0
10A0
7EA0
0000
3DE0
0500
3DE0
2100
1FE0
ENDCHAR
STARTCHAR uniAF72
ENCODING 44914
SWIDTH 960 0
DWIDTH 12 0
BBX 12 11 0 -1
BITMAP
7EA0
12A0
22E0
10A0
7EA0
0000
3BE0
0940
3940
2140
1FE0
ENDCHAR
STARTCHAR uniAF73
ENCODING 44915
SWIDTH 960 0
DWIDTH 12 0
BBX 12 11 0 -1
BITMAP
7EA0
12A0
22E0
10A0
7EA0
0000
3880
0FE0
3A40
2240
1980
ENDCHAR
STARTCHAR uniAF74
ENCODING 44916
SWIDTH 960 0
DWIDTH 12 0
BBX 12 11 0 -1
BITMAP
7EA0
12A0
22E0
42A0
10A0
7EA0
00A0
3FE0
2020
2020
1FE0
ENDCHAR
STARTCHAR uniAF75
ENCODING 44917
SWIDTH 960 0
DWIDTH 12 0
BBX 12 11 0 -1
BITMAP
7EA0
12A0
22E0
42A0
10A0
7EA0
00A0
2020
3FE0
2020
1FE0
ENDCHAR
STARTCHAR uniAF76
ENCODING 44918
SWIDTH 960 0
DWIDTH 12 0
BBX 12 11 0 -1
BITMAP
7EA0
12A0
22E0
42A0
10A0
7EA0
00A0
2480
3D40
2620
1C10
ENDCHAR
STARTCHAR uniAF77
ENCODING 44919
SWIDTH 960 0
DWIDTH 12 0
BBX 12 11 0 -1
BITMAP
7EA0
12A0
22E0
42A0
10A0
7EA0
00A0
0100
0100
0680
3860
ENDCHAR
STARTCHAR uniAF78
ENCODING 44920
SWIDTH 960 0
DWIDTH 12 0
BBX 12 11 0 -1
BITMAP
7EA0
12A0
22E0
42A0
10A0
7EA0
00A0
0880
0880
1540
2220
ENDCHAR
STARTCHAR uniAF79
ENCODING 44921
SWIDTH 960 0
DWIDTH 12 0
BBX 12 11 0 -1
BITMAP
7EA0
12A0
22E0
42A0
10A0
7EA0
00A0
1FC0
2020
2020
1FC0
ENDCHAR
STARTCHAR uniAF7A
ENCODING 44922
SWIDTH 960 0
DWIDTH 12 0
BBX 12 11 0 -1
BITMAP
7EA0
12A0
22E0
42A0
10A0
7EA0
00A0
3FE0
0100
0680
3860
ENDCHAR
STARTCHAR uniAF7B
ENCODING 44923
SWIDTH 960 0
DWIDTH 12 0
BBX 12 11 0 -1
BITMAP
7EA0
12A0
22E0
10A0
7EA0
0000
0080
3FE0
0100
0680
3860
ENDCHAR
STARTCHAR uniAF7C
ENCODING 44924
SWIDTH 960 0
DWIDTH 12 0
BBX 12 11 0 -1
BITMAP
7EA0
12A0
22E0
10A0
7EA0
0000
3FE0
2000
3FE0
2000
1FE0
ENDCHAR
STARTCHAR uniAF7D
ENCODING 44925
SWIDTH 960 0
DWIDTH 12 0
BBX 12 11 0 -1
BITMAP
7EA0
12A0
22E0
10A0
7EA0
0000
3FE0
2000
3FE0
2000
1FE0
ENDCHAR
STARTCHAR uniAF7E
ENCODING 44926
SWIDTH 960 0
DWIDTH 12 0
BBX 12 11 0 -1
BITMAP
7EA0
12A0
22E0
42A0
10A0
7EA0
00A0
3FE0
0880
0880
3FE0
ENDCHAR
STARTCHAR uniAF7F
ENCODING 44927
SWIDTH 960 0
DWIDTH 12 0
BBX 12 11 0 -1
BITMAP
7EA0
12A0
22E0
10A0
7EA0
0000
0700
0000
3FE0
1040
0F80
ENDCHAR
STARTCHAR uniAF80
ENCODING 44928
SWIDTH 960 0
DWIDTH 12 0
BBX 12 11 0 -1
BITMAP
7740
1140
1140
1140
2140
4140
0840
0840
7F40
0040
0040
ENDCHAR
STARTCHAR uniAF81
ENCODING 44929
SWIDTH 960 0
DWIDTH 12 0
BBX 12 11 0 -1
BITMAP
7740
1140
2140
4140
0840
7F40
0040
3FC0
0040
0040
0040
ENDCHAR
STARTCHAR uniAF82
ENCODING 44930
SWIDTH 960 0
DWIDTH 12 0
BBX 12 11 0 -1
BITMAP
7740
1140
2140
4140
0840
7F40
0040
3FC0
0440
0440
0440
ENDCHAR
STARTCHAR uniAF83
ENCODING 44931
SWIDTH 960 0
DWIDTH 12 0
BBX 12 11 0 -1
BITMAP
7740
1140
2140
4140
0840
7F40
0040
3C80
0480
0540
0220
ENDCHAR
STARTCHAR uniAF84
ENCODING 44932
SWIDTH 960 0
DWIDTH 12 0
BBX 12 11 0 -1
BITMAP
7740
1140
2140
4140
0840
7F40
0040
2040
2000
2000
1FC0
ENDCHAR
STARTCHAR uniAF85
ENCODING 44933
SWIDTH 960 0
DWIDTH 12 0
BBX 12 11 0 -1
BITMAP
7740
1140
2140
4140
0840
7F40
0040
27C0
2100
2280
1C60
ENDCHAR
STARTCHAR uniAF86
ENCODING 44934
SWIDTH 960 0
DWIDTH 12 0
BBX 12 11 0 -1
BITMAP
7740
1140
2140
4140
0840
7F40
0140
27E0
2240
2240
1980
ENDCHAR
STARTCHAR uniAF87
ENCODING 44935
SWIDTH 960 0
DWIDTH 12 0
BBX 12 11 0 -1
BITMAP
7740
1140
2140
4140
0840
7F40
0040
3FC0
2000
2000
1FC0
ENDCHAR
STARTCHAR uniAF88
ENCODING 44936
SWIDTH 960 0
DWIDTH 12 0
BBX 12 11 0 -1
BITMAP
7740
1140
2140
0840
7F40
0040
3FC0
0040
3FC0
2000
1FC0
ENDCHAR
STARTCHAR uniAF89
ENCODING 44937
SWIDTH 960 0
DWIDTH 12 0
BBX 12 11 0 -1
BITMAP
7740
1140
2140
0840
7F40
0040
3FC0
0440
3C40
2040
1C40
ENDCHAR
STARTCHAR uniAF8A
ENCODING 44938
SWIDTH 960 0
DWIDTH 12 0
BBX 12 11 0 -1
BITMAP
7740
1140
2140
0840
7F40
0040
3DC0
0540
3D40
2140
1FC0
ENDCHAR
STARTCHAR uniAF8B
ENCODING 44939
SWIDTH 960 0
DWIDTH 12 0
BBX 12 11 0 -1
BITMAP
7740
1140
2140
0840
7F40
0040
3A40
0A40
3BC0
2240
1FC0
ENDCHAR
STARTCHAR uniAF8C
ENCODING 44940
SWIDTH 960 0
DWIDTH 12 0
BBX 12 11 0 -1
BITMAP
7740
1140
2140
0840
7F40
0040
3C80
0480
3D40
2220
1C10
ENDCHAR
STARTCHAR uniAF8D
ENCODING 44941
SWIDTH 960 0
DWIDTH 12 0
BBX 12 11 0 -1
BITMAP
7740
1140
2140
0840
7F40
0040
3DE0
0500
3DC0
2100
1FE0
ENDCHAR
STARTCHAR uniAF8E
ENCODING 44942
SWIDTH 960 0
DWIDTH 12 0
BBX 12 11 0 -1
BITMAP
7740
1140
2140
0840
7F40
0040
3BE0
0940
3940
2140
1FE0
ENDCHAR
STARTCHAR uniAF8F
ENCODING 44943
SWIDTH 960 0
DWIDTH 12 0
BBX 12 11 0 -1
BITMAP
7740
1140
2140
0840
7F40
0040
3880
0FE0
3A40
2240
1980
ENDCHAR
STARTCHAR uniAF90
ENCODING 44944
SWIDTH 960 0
DWIDTH 12 0
BBX 12 11 0 -1
BITMAP
7740
1140
2140
4140
0840
7F40
0040
3FC0
2040
2040
1FC0
ENDCHAR
STARTCHAR uniAF91
ENCODING 44945
SWIDTH 960 0
DWIDTH 12 0
BBX 12 11 0 -1
BITMAP
7740
1140
2140
4140
0840
7F40
0040
2040
3FC0
2040
1FC0
ENDCHAR
STARTCHAR uniAF92
ENCODING 44946
SWIDTH 960 0
DWIDTH 12 0
BBX 12 11 0 -1
BITMAP
7740
1140
2140
4140
0840
7F40
0040
2480
3D40
2620
1C10
ENDCHAR
STARTCHAR uniAF93
ENCODING 44947
SWIDTH 960 0
DWIDTH 12 0
BBX 12 11 0 -1
BITMAP
7740
1140
2140
4140
0840
7F40
0040
0200
0500
0880
3060
ENDCHAR
STARTCHAR uniAF94
ENCODING 44948
SWIDTH 960 0
DWIDTH 12 0
BBX 12 11 0 -1
BITMAP
7740
1140
2140
4140
0840
7F40
0040
0880
0880
1540
2220
ENDCHAR
STARTCHAR uniAF95
ENCODING 44949
SWIDTH 960 0
DWIDTH 12 0
BBX 12 11 0 -1
BITMAP
7740
1140
2140
4140
0840
7F40
0040
1F80
2040
2040
1F80
ENDCHAR
STARTCHAR uniAF96
ENCODING 44950
SWIDTH 960 0
DWIDTH 12 0
BBX 12 11 0 -1
BITMAP
7740
1140
2140
4140
0840
7F40
0040
3FE0
0100
0680
3860
ENDCHAR
STARTCHAR uniAF97
ENCODING 44951
SWIDTH 960 0
DWIDTH 12 0
BBX 12 11 0 -1
BITMAP
7740
1140
2140
0840
7F40
0040
0100
3FE0
0100
0680
3860
ENDCHAR
STARTCHAR uniAF98
ENCODING 44952
SWIDTH 960 0
DWIDTH 12 0
BBX 12 11 0 -1
BITMAP
7740
1140
2140
0840
7F40
0040
3FC0
2000
3FC0
2000
1FC0
ENDCHAR
STARTCHAR uniAF99
ENCODING 44953
SWIDTH 960 0
DWIDTH 12 0
BBX 12 11 0 -1
BITMAP
7740
1140
2140
0840
7F40
0040
3FC0
2000
3FC0
2000
1FC0
ENDCHAR
STARTCHAR uniAF9A
ENCODING 44954
SWIDTH 960 0
DWIDTH 12 0
BBX 12 11 0 -1
BITMAP
7740
1140
2140
4140
0840
7F40
0040
3FE0
0880
0880
3FE0
ENDCHAR
STARTCHAR uniAF9B
ENCODING 44955
SWIDTH 960 0
DWIDTH 12 0
BBX 12 11 0 -1
BITMAP
7740
1140
2140
0840
7F40
0040
0700
0000
7FE0
1040
0F80
ENDCHAR
STARTCHAR uniAF9C
ENCODING 44956
SWIDTH 960 0
DWIDTH 12 0
BBX 12 11 0 -1
BITMAP
7BC0
0840
0840
0840
0840
1040
2040
5180
1100
FFE0
0000
ENDCHAR
STARTCHAR uniAF9D
ENCODING 44957
SWIDTH 960 0
DWIDTH 12 0
BBX 12 11 0 -1
BITMAP
7BC0
0840
0840
1040
3140
FFE0
0000
7FC0
0040
0040
0040
ENDCHAR
STARTCHAR uniAF9E
ENCODING 44958
SWIDTH 960 0
DWIDTH 12 0
BBX 12 11 0 -1
BITMAP
7BC0
0840
0840
1040
3140
FFE0
0000
7FC0
0440
0440
0440
ENDCHAR
STARTCHAR uniAF9F
ENCODING 44959
SWIDTH 960 0
DWIDTH 12 0
BBX 12 11 0 -1
BITMAP
7BC0
0840
0840
1040
3140
FFE0
0000
7880
0880
0940
0A20
ENDCHAR
STARTCHAR uniAFA0
ENCODING 44960
SWIDTH 960 0
DWIDTH 12 0
BBX 12 11 0 -1
BITMAP
7BC0
0840
0840
1040
2040
1100
FFE0
4000
4000
4000
3FC0
ENDCHAR
STARTCHAR uniAFA1
ENCODING 44961
SWIDTH 960 0
DWIDTH 12 0
BBX 12 11 0 -1
BITMAP
7BC0
0840
0840
1040
3140
FFE0
0000
47C0
4100
4280
3C40
ENDCHAR
STARTCHAR uniAFA2
ENCODING 44962
SWIDTH 960 0
DWIDTH 12 0
BBX 12 11 0 -1
BITMAP
7BC0
0840
0840
1040
3140
FFE0
0100
47E0
4240
4240
3980
ENDCHAR
STARTCHAR uniAFA3
ENCODING 44963
SWIDTH 960 0
DWIDTH 12 0
BBX 12 11 0 -1
BITMAP
7BC0
0840
0840
1040
3140
FFE0
0000
7FC0
4000
4000
3FC0
ENDCHAR
STARTCHAR uniAFA4
ENCODING 44964
SWIDTH 960 0
DWIDTH 12 0
BBX 12 11 0 -1
BITMAP
7BC0
0840
1040
3140
FFE0
0000
7FC0
0040
7FC0
4000
3FC0
ENDCHAR
STARTCHAR uniAFA5
ENCODING 44965
SWIDTH 960 0
DWIDTH 12 0
BBX 12 11 0 -1
BITMAP
7BC0
0840
1040
3140
FFE0
0000
7BC0
0840
7840
4040
3C40
ENDCHAR
STARTCHAR uniAFA6
ENCODING 44966
SWIDTH 960 0
DWIDTH 12 0
BBX 12 11 0 -1
BITMAP
7BC0
0840
1040
3140
FFE0
0000
7BC0
0A40
7A40
4240
3FC0
ENDCHAR
STARTCHAR uniAFA7
ENCODING 44967
SWIDTH 960 0
DWIDTH 12 0
BBX 12 11 0 -1
BITMAP
7BC0
0840
1040
3140
FFE0
0000
7A40
0A40
7BC0
4240
3FC0
ENDCHAR
STARTCHAR uniAFA8
ENCODING 44968
SWIDTH 960 0
DWIDTH 12 0
BBX 12 11 0 -1
BITMAP
7BC0
0840
1040
3140
FFE0
0000
7900
0900
7A80
4440
3820
ENDCHAR
STARTCHAR uniAFA9
ENCODING 44969
SWIDTH 960 0
DWIDTH 12 0
BBX 12 11 0 -1
BITMAP
7BC0
0840
1040
3140
FFE0
0000
7BC0
0A00
7B80
4200
3FC0
ENDCHAR
STARTCHAR uniAFAA
ENCODING 44970
SWIDTH 960 0
DWIDTH 12 0
BBX 12 11 0 -1
BITMAP
7BC0
0840
1040
3140
FFE0
0000
77C0
1280
7280
4280
3FC0
ENDCHAR
STARTCHAR uniAFAB
ENCODING 44971
SWIDTH 960 0
DWIDTH 12 0
BBX 12 11 0 -1
BITMAP
7BC0
0840
1040
3140
FFE0
0000
7880
0FE0
7A40
4240
3980
ENDCHAR
STARTCHAR uniAFAC
ENCODING 44972
SWIDTH 960 0
DWIDTH 12 0
BBX 12 11 0 -1
BITMAP
7BC0
0840
0840
1040
3140
FFE0
0000
7FC0
4040
4040
3FC0
ENDCHAR
STARTCHAR uniAFAD
ENCODING 44973
SWIDTH 960 0
DWIDTH 12 0
BBX 12 11 0 -1
BITMAP
7BC0
0840
0840
1040
3140
FFE0
0000
4040
7FC0
4040
3FC0
ENDCHAR
STARTCHAR uniAFAE
ENCODING 44974
SWIDTH 960 0
DWIDTH 12 0
BBX 12 11 0 -1
BITMAP
7BC0
0840
0840
1040
3140
FFE0
0000
4900
7A80
4C40
3820
ENDCHAR
STARTCHAR uniAFAF
ENCODING 44975
SWIDTH 960 0
DWIDTH 12 0
BBX 12 11 0 -1
BITMAP
7BC0
0840
0840
1040
3140
FFE0
0000
0400
0A00
1100
60C0
ENDCHAR
STARTCHAR uniAFB0
ENCODING 44976
SWIDTH 960 0
DWIDTH 12 0
BBX 12 11 0 -1
BITMAP
7BC0
0840
0840
1040
3140
FFE0
0000
1100
1100
2A80
4440
ENDCHAR
STARTCHAR uniAFB1
ENCODING 44977
SWIDTH 960 0
DWIDTH 12 0
BBX 12 11 0 -1
BITMAP
7BC0
0840
0840
1040
3140
FFE0
0000
3F80
4040
4040
3F80
ENDCHAR
STARTCHAR uniAFB2
ENCODING 44978
SWIDTH 960 0
DWIDTH 12 0
BBX 12 11 0 -1
BITMAP
7BC0
0840
0840
1040
3140
FFE0
0000
7FC0
0400
0A00
71C0
ENDCHAR
STARTCHAR uniAFB3
ENCODING 44979
SWIDTH 960 0
DWIDTH 12 0
BBX 12 11 0 -1
BITMAP
7BC0
0840
1040
3140
FFE0
0000
0200
7FC0
0400
1B00
60C0
ENDCHAR
STARTCHAR uniAFB4
ENCODING 44980
SWIDTH 960 0
DWIDTH 12 0
BBX 12 11 0 -1
BITMAP
7BC0
0840
1040
3140
FFE0
0000
7FC0
4000
7F80
4000
3FC0
ENDCHAR
STARTCHAR uniAFB5
ENCODING 44981
SWIDTH 960 0
DWIDTH 12 0
BBX 12 11 0 -1
BITMAP
7BC0
0840
1040
3140
FFE0
0000
7FC0
4000
7F80
4000
3FC0
ENDCHAR
STARTCHAR uniAFB6
ENCODING 44982
SWIDTH 960 0
DWIDTH 12 0
BBX 12 11 0 -1
BITMAP
7BC0
0840
0840
1040
3140
FFE0
0000
7FC0
1100
1100
7FC0
ENDCHAR
STARTCHAR uniAFB7
ENCODING 44983
SWIDTH 960 0
DWIDTH 12 0
BBX 12 11 0 -1
BITMAP
7BC0
0840
1040
3140
FFE0
0000
0E00
0000
7FC0
2080
1F00
ENDCHAR
STARTCHAR uniAFB8
ENCODING 44984
SWIDTH 960 0
DWIDTH 12 0
BBX 12 11 0 -1
BITMAP
7BC0
0840
0840
0840
0840
0840
FFE0
0400
0400
0400
0400
ENDCHAR
STARTCHAR uniAFB9
ENCODING 44985
SWIDTH 960 0
DWIDTH 12 0
BBX 12 11 0 -1
BITMAP
7BC0
0840
0840
0840
0000
FFE0
0400
7FC0
0040
0040
0040
ENDCHAR
STARTCHAR uniAFBA
ENCODING 44986
SWIDTH 960 0
DWIDTH 12 0
BBX 12 11 0 -1
BITMAP
7BC0
0840
0840
0840
0000
FFE0
0400
7FC0
0440
0440
0440
ENDCHAR
STARTCHAR uniAFBB
ENCODING 44987
SWIDTH 960 0
DWIDTH 12 0
BBX 12 11 0 -1
BITMAP
7BC0
0840
0840
0840
0000
FFE0
0400
7880
0880
0940
0A20
ENDCHAR
STARTCHAR uniAFBC
ENCODING 44988
SWIDTH 960 0
DWIDTH 12 0
BBX 12 11 0 -1
BITMAP
7BC0
0840
0840
0840
0000
0000
FFE0
4400
4400
4000
3FC0
ENDCHAR
STARTCHAR uniAFBD
ENCODING 44989
SWIDTH 960 0
DWIDTH 12 0
BBX 12 11 0 -1
BITMAP
7BC0
0840
0840
0840
0000
FFE0
0400
47C0
4100
4280
3C40
ENDCHAR
STARTCHAR uniAFBE
ENCODING 44990
SWIDTH 960 0
DWIDTH 12 0
BBX 12 11 0 -1
BITMAP
7BC0
0840
0840
0840
0000
FFE0
0400
47E0
4240
4240
3980
ENDCHAR
STARTCHAR uniAFBF
ENCODING 44991
SWIDTH 960 0
DWIDTH 12 0
BBX 12 11 0 -1
BITMAP
7BC0
0840
0840
0840
0000
FFE0
0400
7FC0
4000
4000
3FC0
ENDCHAR
STARTCHAR uniAFC0
ENCODING 44992
SWIDTH 960 0
DWIDTH 12 0
BBX 12 11 0 -1
BITMAP
7BC0
0840
0840
0840
FFE0
0400
7FC0
0040
7FC0
4000
3FC0
ENDCHAR
STARTCHAR uniAFC1
ENCODING 44993
SWIDTH 960 0
DWIDTH 12 0
BBX 12 11 0 -1
BITMAP
7BC0
0840
0840
0840
FFE0
0400
7BC0
0840
7840
4040
3C40
ENDCHAR
STARTCHAR uniAFC2
ENCODING 44994
SWIDTH 960 0
DWIDTH 12 0
BBX 12 11 0 -1
BITMAP
7BC0
0840
0840
0840
FFE0
0400
7BC0
0A40
7A40
4240
3FC0
ENDCHAR
STARTCHAR uniAFC3
ENCODING 44995
SWIDTH 960 0
DWIDTH 12 0
BBX 12 11 0 -1
BITMAP
7BC0
0840
0840
0840
FFE0
0400
7A40
0A40
7BC0
4240
3FC0
ENDCHAR
STARTCHAR uniAFC4
ENCODING 44996
SWIDTH 960 0
DWIDTH 12 0
BBX 12 11 0 -1
BITMAP
7BC0
0840
0840
0840
FFE0
0400
7900
0900
7A80
4440
3820
ENDCHAR
STARTCHAR uniAFC5
ENCODING 44997
SWIDTH 960 0
DWIDTH 12 0
BBX 12 11 0 -1
BITMAP
7BC0
0840
0840
0840
FFE0
0400
7BC0
0A00
7B80
4200
3FC0
ENDCHAR
STARTCHAR uniAFC6
ENCODING 44998
SWIDTH 960 0
DWIDTH 12 0
BBX 12 11 0 -1
BITMAP
7BC0
0840
0840
0840
FFE0
0400
77C0
1280
7280
4280
3FC0
ENDCHAR
STARTCHAR uniAFC7
ENCODING 44999
SWIDTH 960 0
DWIDTH 12 0
BBX 12 11 0 -1
BITMAP
7BC0
0840
0840
0840
FFE0
0400
7880
0FE0
7A40
4240
3980
ENDCHAR
STARTCHAR uniAFC8
ENCODING 45000
SWIDTH 960 0
DWIDTH 12 0
BBX 12 11 0 -1
BITMAP
7BC0
0840
0840
0840
0000
FFE0
0400
7FC0
4040
4040
3FC0
ENDCHAR
STARTCHAR uniAFC9
ENCODING 45001
SWIDTH 960 0
DWIDTH 12 0
BBX 12 11 0 -1
BITMAP
7BC0
0840
0840
0840
0000
FFE0
0400
4040
7FC0
4040
3FC0
ENDCHAR
STARTCHAR uniAFCA
ENCODING 45002
SWIDTH 960 0
DWIDTH 12 0
BBX 12 11 0 -1
BITMAP
7BC0
0840
0840
0840
0000
FFE0
0400
4900
7A80
4C40
3820
ENDCHAR
STARTCHAR uniAFCB
ENCODING 45003
SWIDTH 960 0
DWIDTH 12 0
BBX 12 11 0 -1
BITMAP
7BC0
0840
0840
0840
0000
FFE0
0400
0400
0A00
1100
60C0
ENDCHAR
STARTCHAR uniAFCC
ENCODING 45004
SWIDTH 960 0
DWIDTH 12 0
BBX 12 11 0 -1
BITMAP
7BC0
0840
0840
0840
0000
FFE0
0400
1100
1100
2A80
4440
ENDCHAR
STARTCHAR uniAFCD
ENCODING 45005
SWIDTH 960 0
DWIDTH 12 0
BBX 12 11 0 -1
BITMAP
7BC0
0840
0840
0840
0000
FFE0
0400
3F80
4040
4040
3F80
ENDCHAR
STARTCHAR uniAFCE
ENCODING 45006
SWIDTH 960 0
DWIDTH 12 0
BBX 12 11 0 -1
BITMAP
7BC0
0840
0840
0840
0000
FFE0
0400
7FC0
0400
0A00
71C0
ENDCHAR
STARTCHAR uniAFCF
ENCODING 45007
SWIDTH 960 0
DWIDTH 12 0
BBX 12 11 0 -1
BITMAP
7BC0
0840
0840
0840
FFE0
0400
0200
7FC0
0400
1B00
60C0
ENDCHAR
STARTCHAR uniAFD0
ENCODING 45008
SWIDTH 960 0
DWIDTH 12 0
BBX 12 11 0 -1
BITMAP
7BC0
0840
0840
0840
FFE0
0400
7FC0
4000
7F80
4000
3FC0
ENDCHAR
STARTCHAR uniAFD1
ENCODING 45009
SWIDTH 960 0
DWIDTH 12 0
BBX 12 11 0 -1
BITMAP
7BC0
0840
0840
0840
FFE0
0400
7FC0
4000
7F80
4000
3FC0
ENDCHAR
STARTCHAR uniAFD2
ENCODING 45010
SWIDTH 960 0
DWIDTH 12 0
BBX 12 11 0 -1
BITMAP
7BC0
0840
0840
0840
0000
FFE0
0400
7FC0
1100
1100
7FC0
ENDCHAR
STARTCHAR uniAFD3
ENCODING 45011
SWIDTH 960 0
DWIDTH 12 0
BBX 12 11 0 -1
BITMAP
7BC0
0840
0840
0840
FFE0
0400
0E00
0000
FFE0
2080
1F00
ENDCHAR
STARTCHAR uniAFD4
ENCODING 45012
SWIDTH 960 0
DWIDTH 12 0
BBX 12 11 0 -1
BITMAP
7740
1140
1140
1140
1140
0040
7F40
0840
0BC0
0840
0840
ENDCHAR
STARTCHAR uniAFD5
ENCODING 45013
SWIDTH 960 0
DWIDTH 12 0
BBX 12 11 0 -1
BITMAP
7E40
1240
12C0
0040
0040
7F40
0840
3FC0
0040
0040
0040
ENDCHAR
STARTCHAR uniAFD6
ENCODING 45014
SWIDTH 960 0
DWIDTH 12 0
BBX 12 11 0 -1
BITMAP
7E40
1240
12C0
0040
0040
7F40
0840
3FC0
0440
0440
0440
ENDCHAR
STARTCHAR uniAFD7
ENCODING 45015
SWIDTH 960 0
DWIDTH 12 0
BBX 12 11 0 -1
BITMAP
7E40
1240
12C0
0040
0040
7F40
0840
3C80
0480
0540
0220
ENDCHAR
STARTCHAR uniAFD8
ENCODING 45016
SWIDTH 960 0
DWIDTH 12 0
BBX 12 11 0 -1
BITMAP
7E40
1240
12C0
0040
0040
7F40
0840
2800
2000
2000
1FC0
ENDCHAR
STARTCHAR uniAFD9
ENCODING 45017
SWIDTH 960 0
DWIDTH 12 0
BBX 12 11 0 -1
BITMAP
7E40
1240
12C0
0040
0040
7F40
0840
27C0
2100
2280
1C60
ENDCHAR
STARTCHAR uniAFDA
ENCODING 45018
SWIDTH 960 0
DWIDTH 12 0
BBX 12 11 0 -1
BITMAP
7E40
1240
12C0
0040
0040
7F40
0940
27E0
2240
2240
1980
ENDCHAR
STARTCHAR uniAFDB
ENCODING 45019
SWIDTH 960 0
DWIDTH 12 0
BBX 12 11 0 -1
BITMAP
7E40
1240
12C0
0040
0040
7F40
0840
3FC0
2000
2000
1FC0
ENDCHAR
STARTCHAR uniAFDC
ENCODING 45020
SWIDTH 960 0
DWIDTH 12 0
BBX 12 11 0 -1
BITMAP
7E40
1240
12C0
0040
7F40
0840
3FC0
0040
3FC0
2000
1FC0
ENDCHAR
STARTCHAR uniAFDD
ENCODING 45021
SWIDTH 960 0
DWIDTH 12 0
BBX 12 11 0 -1
BITMAP
7E40
1240
12C0
0040
7F40
0840
3FC0
0440
3C40
2040
1C40
ENDCHAR
STARTCHAR uniAFDE
ENCODING 45022
SWIDTH 960 0
DWIDTH 12 0
BBX 12 11 0 -1
BITMAP
7E40
1240
12C0
0040
7F40
0840
3DC0
0540
3D40
2140
1FC0
ENDCHAR
STARTCHAR uniAFDF
ENCODING 45023
SWIDTH 960 0
DWIDTH 12 0
BBX 12 11 0 -1
BITMAP
7E40
1240
12C0
0040
7F40
0840
3A40
0A40
3BC0
2240
1FC0
ENDCHAR
STARTCHAR uniAFE0
ENCODING 45024
SWIDTH 960 0
DWIDTH 12 0
BBX 12 11 0 -1
BITMAP
7E40
1240
12C0
0040
7F40
0840
3C80
0480
3D40
2220
1C10
ENDCHAR
STARTCHAR uniAFE1
ENCODING 45025
SWIDTH 960 0
DWIDTH 12 0
BBX 12 11 0 -1
BITMAP
7E40
1240
12C0
0040
7F40
0840
3DE0
0500
3DC0
2100
1FE0
ENDCHAR
STARTCHAR uniAFE2
ENCODING 45026
SWIDTH 960 0
DWIDTH 12 0
BBX 12 11 0 -1
BITMAP
7E40
1240
12C0
0040
7F40
0840
3BE0
0940
3940
2140
1FE0
ENDCHAR
STARTCHAR uniAFE3
ENCODING 45027
SWIDTH 960 0
DWIDTH 12 0
BBX 12 11 0 -1
BITMAP
7E40
1240
12C0
0040
7F40
0840
3880
0FE0
3A40
2240
1980
ENDCHAR
STARTCHAR uniAFE4
ENCODING 45028
SWIDTH 960 0
DWIDTH 12 0
BBX 12 11 0 -1
BITMAP
7E40
1240
12C0
0040
0040
7F40
0840
3FC0
2040
2040
1FC0
ENDCHAR
STARTCHAR uniAFE5
ENCODING 45029
SWIDTH 960 0
DWIDTH 12 0
BBX 12 11 0 -1
BITMAP
7E40
1240
12C0
0040
0040
7F40
0840
2040
3FC0
2040
1FC0
ENDCHAR
STARTCHAR uniAFE6
ENCODING 45030
SWIDTH 960 0
DWIDTH 12 0
BBX 12 11 0 -1
BITMAP
7E40
1240
12C0
0040
0040
7F40
0840
2480
3D40
2620
1C10
ENDCHAR
STARTCHAR uniAFE7
ENCODING 45031
SWIDTH 960 0
DWIDTH 12 0
BBX 12 11 0 -1
BITMAP
7E40
1240
12C0
0040
0040
7F40
0840
0200
0500
0880
3060
ENDCHAR
STARTCHAR uniAFE8
ENCODING 45032
SWIDTH 960 0
DWIDTH 12 0
BBX 12 11 0 -1
BITMAP
7E40
1240
12C0
0040
0040
7F40
0840
0880
0880
1540
2220
ENDCHAR
STARTCHAR uniAFE9
ENCODING 45033
SWIDTH 960 0
DWIDTH 12 0
BBX 12 11 0 -1
BITMAP
7E40
1240
12C0
0040
0040
7F40
0840
1F80
2040
2040
1F80
ENDCHAR
STARTCHAR uniAFEA
ENCODING 45034
SWIDTH 960 0
DWIDTH 12 0
BBX 12 11 0 -1
BITMAP
7E40
1240
12C0
0040
0040
7F40
0840
3FE0
0100
0680
3860
ENDCHAR
STARTCHAR uniAFEB
ENCODING 45035
SWIDTH 960 0
DWIDTH 12 0
BBX 12 11 0 -1
BITMAP
7E40
1240
12C0
0040
7F40
0840
0100
3FE0
0100
0680
3860
ENDCHAR
STARTCHAR uniAFEC
ENCODING 45036
SWIDTH 960 0
DWIDTH 12 0
BBX 12 11 0 -1
BITMAP
7E40
1240
12C0
0040
7F40
0840
3FC0
2000
3FC0
2000
1FC0
ENDCHAR
STARTCHAR uniAFED
ENCODING 45037
SWIDTH 960 0
DWIDTH 12 0
BBX 12 11 0 -1
BITMAP
7E40
1240
12C0
0040
7F40
0840
3FC0
2000
3FC0
2000
1FC0
ENDCHAR
STARTCHAR uniAFEE
ENCODING 45038
SWIDTH 960 0
DWIDTH 12 0
BBX 12 11 0 -1
BITMAP
7E40
1240
12C0
0040
0040
7F40
0840
3FE0
0880
0880
3FE0
ENDCHAR
STARTCHAR uniAFEF
ENCODING 45039
SWIDTH 960 0
DWIDTH 12 0
BBX 12 11 0 -1
BITMAP
7E40
1240
12C0
0040
7F40
0840
0700
0000
7FE0
1040
0F80
ENDCHAR
STARTCHAR uniAFF0
ENCODING 45040
SWIDTH 960 0
DWIDTH 12 0
BBX 12 11 0 -1
BITMAP
7EA0
12A0
12A0
12A0
12A0
00A0
7EA0
10A0
13A0
10A0
10A0
ENDCHAR
STARTCHAR uniAFF1
ENCODING 45041
SWIDTH 960 0
DWIDTH 12 0
BBX 12 11 0 -1
BITMAP
7CA0
14A0
15A0
00A0
00A0
7EA0
10A0
1FE0
0020
0020
0020
ENDCHAR
STARTCHAR uniAFF2
ENCODING 45042
SWIDTH 960 0
DWIDTH 12 0
BBX 12 11 0 -1
BITMAP
7CA0
14A0
15A0
00A0
00A0
7EA0
10A0
1FE0
0220
0220
0220
ENDCHAR
STARTCHAR uniAFF3
ENCODING 45043
SWIDTH 960 0
DWIDTH 12 0
BBX 12 11 0 -1
BITMAP
7CA0
14A0
15A0
00A0
00A0
7EA0
10A0
3C80
0480
0540
0220
ENDCHAR
STARTCHAR uniAFF4
ENCODING 45044
SWIDTH 960 0
DWIDTH 12 0
BBX 12 11 0 -1
BITMAP
7CA0
14A0
15A0
00A0
00A0
7EA0
08A0
2800
2000
2000
1FE0
ENDCHAR
STARTCHAR uniAFF5
ENCODING 45045
SWIDTH 960 0
DWIDTH 12 0
BBX 12 11 0 -1
BITMAP
7CA0
14A0
15A0
00A0
00A0
7EA0
10A0
23E0
2080
2140
1E30
ENDCHAR
STARTCHAR uniAFF6
ENCODING 45046
SWIDTH 960 0
DWIDTH 12 0
BBX 12 11 0 -1
BITMAP
7CA0
14A0
15A0
00A0
00A0
7EA0
10A0
23F0
2120
2120
1CC0
ENDCHAR
STARTCHAR uniAFF7
ENCODING 45047
SWIDTH 960 0
DWIDTH 12 0
BBX 12 11 0 -1
BITMAP
7CA0
14A0
15A0
00A0
00A0
7EA0
10A0
3FE0
2000
2000
1FE0
ENDCHAR
STARTCHAR uniAFF8
ENCODING 45048
SWIDTH 960 0
DWIDTH 12 0
BBX 12 11 0 -1
BITMAP
7EA0
12A0
13A0
00A0
00A0
7EA0
3FE0
0020
3FE0
2000
1FE0
ENDCHAR
STARTCHAR uniAFF9
ENCODING 45049
SWIDTH 960 0
DWIDTH 12 0
BBX 12 11 0 -1
BITMAP
7EA0
12A0
13A0
00A0
00A0
7EA0
3DE0
0420
3C20
2020
1E20
ENDCHAR
STARTCHAR uniAFFA
ENCODING 45050
SWIDTH 960 0
DWIDTH 12 0
BBX 12 11 0 -1
BITMAP
7EA0
12A0
13A0
00A0
00A0
7EA0
3DE0
0520
3D20
2120
1FE0
ENDCHAR
STARTCHAR uniAFFB
ENCODING 45051
SWIDTH 960 0
DWIDTH 12 0
BBX 12 11 0 -1
BITMAP
7EA0
12A0
13A0
00A0
00A0
7EA0
3DA0
0520
3DE0
2120
1FE0
ENDCHAR
STARTCHAR uniAFFC
ENCODING 45052
SWIDTH 960 0
DWIDTH 12 0
BBX 12 11 0 -1
BITMAP
7EA0
12A0
13A0
00A0
00A0
7EA0
3CA0
0480
3D40
2220
1C10
ENDCHAR
STARTCHAR uniAFFD
ENCODING 45053
SWIDTH 960 0
DWIDTH 12 0
BBX 12 11 0 -1
BITMAP
7EA0
12A0
13A0
00A0
00A0
7EA0
3DE0
0500
3DE0
2100
1FE0
ENDCHAR
STARTCHAR uniAFFE
ENCODING 45054
SWIDTH 960 0
DWIDTH 12 0
BBX 12 11 0 -1
BITMAP
7EA0
12A0
13A0
00A0
00A0
7EA0
3BE0
0940
3940
2140
1FE0
ENDCHAR
STARTCHAR uniAFFF
ENCODING 45055
SWIDTH 960 0
DWIDTH 12 0
BBX 12 11 0 -1
BITMAP
7EA0
12A0
13A0
00A0
00A0
7EA0
38A0
0FE0
3A40
2240
1980
ENDCHAR
STARTCHAR uniB000
ENCODING 45056
SWIDTH 960 0
DWIDTH 12 0
BBX 12 11 0 -1
BITMAP
7CA0
14A0
15A0
00A0
00A0
7EA0
10A0
3FE0
2020
2020
1FE0
ENDCHAR
STARTCHAR uniB001
ENCODING 45057
SWIDTH 960 0
DWIDTH 12 0
BBX 12 11 0 -1
BITMAP
7CA0
14A0
15A0
00A0
00A0
7EA0
10A0
2020
3FE0
2020
1FE0
ENDCHAR
STARTCHAR uniB002
ENCODING 45058
SWIDTH 960 0
DWIDTH 12 0
BBX 12 11 0 -1
BITMAP
7CA0
14A0
15A0
00A0
00A0
7EA0
10A0
2480
3D40
2620
1C10
ENDCHAR
STARTCHAR uniB003
ENCODING 45059
SWIDTH 960 0
DWIDTH 12 0
BBX 12 11 0 -1
BITMAP
7CA0
14A0
15A0
00A0
00A0
7EA0
10A0
0100
0100
0680
3860
ENDCHAR
STARTCHAR uniB004
ENCODING 45060
SWIDTH 960 0
DWIDTH 12 0
BBX 12 11 0 -1
BITMAP
7CA0
14A0
15A0
00A0
00A0
7EA0
10A0
0880
0880
1540
2220
ENDCHAR
STARTCHAR uniB005
ENCODING 45061
SWIDTH 960 0
DWIDTH 12 0
BBX 12 11 0 -1
BITMAP
7CA0
14A0
15A0
00A0
00A0
7EA0
10A0
1FC0
2020
2020
1FC0
ENDCHAR
STARTCHAR uniB006
ENCODING 45062
SWIDTH 960 0
DWIDTH 12 0
BBX 12 11 0 -1
BITMAP
7CA0
14A0
15A0
00A0
00A0
7EA0
10A0
3FE0
0100
0680
3860
ENDCHAR
STARTCHAR uniB007
ENCODING 45063
SWIDTH 960 0
DWIDTH 12 0
BBX 12 11 0 -1
BITMAP
7EA0
12A0
13A0
00A0
00A0
7EA0
10A0
3FE0
0100
0680
3860
ENDCHAR
STARTCHAR uniB008
ENCODING 45064
SWIDTH 960 0
DWIDTH 12 0
BBX 12 11 0 -1
BITMAP
7EA0
12A0
13A0
00A0
00A0
7EA0
3FE0
2000
3FE0
2000
1FE0
ENDCHAR
STARTCHAR uniB009
ENCODING 45065
SWIDTH 960 0
DWIDTH 12 0
BBX 12 11 0 -1
BITMAP
7EA0
12A0
13A0
00A0
00A0
7EA0
3FE0
2000
3FE0
2000
1FE0
ENDCHAR
STARTCHAR uniB00A
ENCODING 45066
SWIDTH 960 0
DWIDTH 12 0
BBX 12 11 0 -1
BITMAP
7CA0
14A0
15A0
00A0
00A0
7EA0
10A0
3FE0
0880
0880
3FE0
ENDCHAR
STARTCHAR uniB00B
ENCODING 45067
SWIDTH 960 0
DWIDTH 12 0
BBX 12 11 0 -1
BITMAP
7EA0
12A0
13A0
00A0
00A0
7EA0
17A0
0000
3FE0
1040
0F80
ENDCHAR
STARTCHAR uniB00C
ENCODING 45068
SWIDTH 960 0
DWIDTH 12 0
BBX 12 11 0 -1
BITMAP
7740
1140
1140
1140
1140
0040
7F40
0840
0840
0840
0840
ENDCHAR
STARTCHAR uniB00D
ENCODING 45069
SWIDTH 960 0
DWIDTH 12 0
BBX 12 11 0 -1
BITMAP
7E40
1240
1240
0040
0040
7FC0
0840
3FC0
0040
0040
0040
ENDCHAR
STARTCHAR uniB00E
ENCODING 45070
SWIDTH 960 0
DWIDTH 12 0
BBX 12 11 0 -1
BITMAP
7E40
1240
1240
0040
0040
7FC0
0840
3FC0
0440
0440
0440
ENDCHAR
STARTCHAR uniB00F
ENCODING 45071
SWIDTH 960 0
DWIDTH 12 0
BBX 12 11 0 -1
BITMAP
7E40
1240
1240
0040
0040
7FC0
0840
3C80
0480
0540
0220
ENDCHAR
STARTCHAR uniB010
ENCODING 45072
SWIDTH 960 0
DWIDTH 12 0
BBX 12 11 0 -1
BITMAP
7E40
1240
1240
0040
0040
7FC0
0840
2840
2000
2000
1FC0
ENDCHAR
STARTCHAR uniB011
ENCODING 45073
SWIDTH 960 0
DWIDTH 12 0
BBX 12 11 0 -1
BITMAP
7E40
1240
1240
0040
0040
7FC0
0840
27C0
2100
2280
1C60
ENDCHAR
STARTCHAR uniB012
ENCODING 45074
SWIDTH 960 0
DWIDTH 12 0
BBX 12 11 0 -1
BITMAP
7E40
1240
1240
0040
0040
7FC0
0940
27E0
2240
2240
1980
ENDCHAR
STARTCHAR uniB013
ENCODING 45075
SWIDTH 960 0
DWIDTH 12 0
BBX 12 11 0 -1
BITMAP
7E40
1240
1240
0040
0040
7FC0
0840
3FC0
2000
2000
1FC0
ENDCHAR
STARTCHAR uniB014
ENCODING 45076
SWIDTH 960 0
DWIDTH 12 0
BBX 12 11 0 -1
BITMAP
7E40
1240
1240
0040
0040
7FC0
3FC0
0040
3FC0
2000
1FC0
ENDCHAR
STARTCHAR uniB015
ENCODING 45077
SWIDTH 960 0
DWIDTH 12 0
BBX 12 11 0 -1
BITMAP
7E40
1240
1240
0040
0040
7FC0
3FC0
0440
3C40
2040
1C40
ENDCHAR
STARTCHAR uniB016
ENCODING 45078
SWIDTH 960 0
DWIDTH 12 0
BBX 12 11 0 -1
BITMAP
7E40
1240
1240
0040
0040
7FC0
3DC0
0540
3D40
2140
1FC0
ENDCHAR
STARTCHAR uniB017
ENCODING 45079
SWIDTH 960 0
DWIDTH 12 0
BBX 12 11 0 -1
BITMAP
7E40
1240
1240
0040
0040
7FC0
3A40
0A40
3BC0
2240
1FC0
ENDCHAR
STARTCHAR uniB018
ENCODING 45080
SWIDTH 960 0
DWIDTH 12 0
BBX 12 11 0 -1
BITMAP
7E40
1240
1240
0040
0040
7FC0
3CC0
0480
3D40
2220
1C10
ENDCHAR
STARTCHAR uniB019
ENCODING 45081
SWIDTH 960 0
DWIDTH 12 0
BBX 12 11 0 -1
BITMAP
7E40
1240
1240
0040
0040
7FC0
3DE0
0500
3DC0
2100
1FE0
ENDCHAR
STARTCHAR uniB01A
ENCODING 45082
SWIDTH 960 0
DWIDTH 12 0
BBX 12 11 0 -1
BITMAP
7E40
1240
1240
0040
0040
7FC0
3BE0
0940
3940
2140
1FE0
ENDCHAR
STARTCHAR uniB01B
ENCODING 45083
SWIDTH 960 0
DWIDTH 12 0
BBX 12 11 0 -1
BITMAP
7E40
1240
1240
0040
0040
7FC0
38C0
0FE0
3A40
2240
1980
ENDCHAR
STARTCHAR uniB01C
ENCODING 45084
SWIDTH 960 0
DWIDTH 12 0
BBX 12 11 0 -1
BITMAP
7E40
1240
1240
0040
0040
7FC0
0840
3FC0
2040
2040
1FC0
ENDCHAR
STARTCHAR uniB01D
ENCODING 45085
SWIDTH 960 0
DWIDTH 12 0
BBX 12 11 0 -1
BITMAP
7E40
1240
1240
0040
0040
7FC0
0840
2040
3FC0
2040
1FC0
ENDCHAR
STARTCHAR uniB01E
ENCODING 45086
SWIDTH 960 0
DWIDTH 12 0
BBX 12 11 0 -1
BITMAP
7E40
1240
1240
0040
0040
7FC0
0840
2480
3D40
2620
1C10
ENDCHAR
STARTCHAR uniB01F
ENCODING 45087
SWIDTH 960 0
DWIDTH 12 0
BBX 12 11 0 -1
BITMAP
7E40
1240
1240
0040
0040
7FC0
0840
0200
0500
0880
3060
ENDCHAR
STARTCHAR uniB020
ENCODING 45088
SWIDTH 960 0
DWIDTH 12 0
BBX 12 11 0 -1
BITMAP
7E40
1240
1240
0040
0040
7FC0
0840
0880
0880
1540
2220
ENDCHAR
STARTCHAR uniB021
ENCODING 45089
SWIDTH 960 0
DWIDTH 12 0
BBX 12 11 0 -1
BITMAP
7E40
1240
1240
0040
0040
7FC0
0840
1F80
2040
2040
1F80
ENDCHAR
STARTCHAR uniB022
ENCODING 45090
SWIDTH 960 0
DWIDTH 12 0
BBX 12 11 0 -1
BITMAP
7E40
1240
1240
0040
0040
7FC0
0840
3FE0
0100
0680
3860
ENDCHAR
STARTCHAR uniB023
ENCODING 45091
SWIDTH 960 0
DWIDTH 12 0
BBX 12 11 0 -1
BITMAP
7E40
1240
1240
0040
0040
7FC0
0940
3FE0
0100
0680
3860
ENDCHAR
STARTCHAR uniB024
ENCODING 45092
SWIDTH 960 0
DWIDTH 12 0
BBX 12 11 0 -1
BITMAP
7E40
1240
1240
0040
0040
7FC0
3FC0
2000
3FC0
2000
1FC0
ENDCHAR
STARTCHAR uniB025
ENCODING 45093
SWIDTH 960 0
DWIDTH 12 0
BBX 12 11 0 -1
BITMAP
7E40
1240
1240
0040
0040
7FC0
3FC0
2000
3FC0
2000
1FC0
ENDCHAR
STARTCHAR uniB026
ENCODING 45094
SWIDTH 960 0
DWIDTH 12 0
BBX 12 11 0 -1
BITMAP
7E40
1240
1240
0040
0040
7FC0
0840
3FE0
0880
0880
3FE0
ENDCHAR
STARTCHAR uniB027
ENCODING 45095
SWIDTH 960 0
DWIDTH 12 0
BBX 12 11 0 -1
BITMAP
7E40
1240
1240
0040
0040
7FC0
0F40
0000
7FE0
1040
0F80
ENDCHAR
STARTCHAR uniB028
ENCODING 45096
SWIDTH 960 0
DWIDTH 12 0
BBX 12 11 0 -1
BITMAP
7BC0
0840
0840
0840
0840
0840
FFE0
1100
1100
1100
1100
ENDCHAR
STARTCHAR uniB029
ENCODING 45097
SWIDTH 960 0
DWIDTH 12 0
BBX 12 11 0 -1
BITMAP
7BC0
0840
0840
0840
0000
FFE0
1100
7FC0
0040
0040
0040
ENDCHAR
STARTCHAR uniB02A
ENCODING 45098
SWIDTH 960 0
DWIDTH 12 0
BBX 12 11 0 -1
BITMAP
7BC0
0840
0840
0840
0000
FFE0
1100
7FC0
0440
0440
0440
ENDCHAR
STARTCHAR uniB02B
ENCODING 45099
SWIDTH 960 0
DWIDTH 12 0
BBX 12 11 0 -1
BITMAP
7BC0
0840
0840
0840
0000
FFE0
1100
7880
0880
0940
0A20
ENDCHAR
STARTCHAR uniB02C
ENCODING 45100
SWIDTH 960 0
DWIDTH 12 0
BBX 12 11 0 -1
BITMAP
7BC0
0840
0840
0840
0000
0000
FFE0
5100
5100
4000
3FC0
ENDCHAR
STARTCHAR uniB02D
ENCODING 45101
SWIDTH 960 0
DWIDTH 12 0
BBX 12 11 0 -1
BITMAP
7BC0
0840
0840
0840
0000
FFE0
1100
47C0
4100
4280
3C40
ENDCHAR
STARTCHAR uniB02E
ENCODING 45102
SWIDTH 960 0
DWIDTH 12 0
BBX 12 11 0 -1
BITMAP
7BC0
0840
0840
0840
0000
FFE0
1100
47E0
4240
4240
3980
ENDCHAR
STARTCHAR uniB02F
ENCODING 45103
SWIDTH 960 0
DWIDTH 12 0
BBX 12 11 0 -1
BITMAP
7BC0
0840
0840
0840
0000
FFE0
1100
7FC0
4000
4000
3FC0
ENDCHAR
STARTCHAR uniB030
ENCODING 45104
SWIDTH 960 0
DWIDTH 12 0
BBX 12 11 0 -1
BITMAP
7BC0
0840
0840
0840
FFE0
1100
7FC0
0040
7FC0
4000
3FC0
ENDCHAR
STARTCHAR uniB031
ENCODING 45105
SWIDTH 960 0
DWIDTH 12 0
BBX 12 11 0 -1
BITMAP
7BC0
0840
0840
0840
FFE0
1100
7BC0
0840
7840
4040
3C40
ENDCHAR
STARTCHAR uniB032
ENCODING 45106
SWIDTH 960 0
DWIDTH 12 0
BBX 12 11 0 -1
BITMAP
7BC0
0840
0840
0840
FFE0
1100
7BC0
0A40
7A40
4240
3FC0
ENDCHAR
STARTCHAR uniB033
ENCODING 45107
SWIDTH 960 0
DWIDTH 12 0
BBX 12 11 0 -1
BITMAP
7BC0
0840
0840
0840
FFE0
1100
7A40
0A40
7BC0
4240
3FC0
ENDCHAR
STARTCHAR uniB034
ENCODING 45108
SWIDTH 960 0
DWIDTH 12 0
BBX 12 11 0 -1
BITMAP
7BC0
0840
0840
0840
FFE0
1100
7900
0900
7A80
4440
3820
ENDCHAR
STARTCHAR uniB035
ENCODING 45109
SWIDTH 960 0
DWIDTH 12 0
BBX 12 11 0 -1
BITMAP
7BC0
0840
0840
0840
FFE0
1100
7BC0
0A00
7B80
4200
3FC0
ENDCHAR
STARTCHAR uniB036
ENCODING 45110
SWIDTH 960 0
DWIDTH 12 0
BBX 12 11 0 -1
BITMAP
7BC0
0840
0840
0840
FFE0
1100
77C0
1280
7280
4280
3FC0
ENDCHAR
STARTCHAR uniB037
ENCODING 45111
SWIDTH 960 0
DWIDTH 12 0
BBX 12 11 0 -1
BITMAP
7BC0
0840
0840
0840
FFE0
1100
7880
0FE0
7A40
4240
3980
ENDCHAR
STARTCHAR uniB038
ENCODING 45112
SWIDTH 960 0
DWIDTH 12 0
BBX 12 11 0 -1
BITMAP
7BC0
0840
0840
0840
0000
FFE0
1100
7FC0
4040
4040
3FC0
ENDCHAR
STARTCHAR uniB039
ENCODING 45113
SWIDTH 960 0
DWIDTH 12 0
BBX 12 11 0 -1
BITMAP
7BC0
0840
0840
0840
0000
FFE0
1100
4040
7FC0
4040
3FC0
ENDCHAR
STARTCHAR uniB03A
ENCODING 45114
SWIDTH 960 0
DWIDTH 12 0
BBX 12 11 0 -1
BITMAP
7BC0
0840
0840
0840
0000
FFE0
1100
4900
7A80
4C40
3820
ENDCHAR
STARTCHAR uniB03B
ENCODING 45115
SWIDTH 960 0
DWIDTH 12 0
BBX 12 11 0 -1
BITMAP
7BC0
0840
0840
0840
0000
FFE0
1100
0400
0A00
1100
60C0
ENDCHAR
STARTCHAR uniB03C
ENCODING 45116
SWIDTH 960 0
DWIDTH 12 0
BBX 12 11 0 -1
BITMAP
7BC0
0840
0840
0840
0000
FFE0
1100
1100
1100
2A80
4440
ENDCHAR
STARTCHAR uniB03D
ENCODING 45117
SWIDTH 960 0
DWIDTH 12 0
BBX 12 11 0 -1
BITMAP
7BC0
0840
0840
0840
0000
FFE0
1100
3F80
4040
4040
3F80
ENDCHAR
STARTCHAR uniB03E
ENCODING 45118
SWIDTH 960 0
DWIDTH 12 0
BBX 12 11 0 -1
BITMAP
7BC0
0840
0840
0840
0000
FFE0
1100
7FC0
0400
0A00
71C0
ENDCHAR
STARTCHAR uniB03F
ENCODING 45119
SWIDTH 960 0
DWIDTH 12 0
BBX 12 11 0 -1
BITMAP
7BC0
0840
0840
0840
FFE0
1100
0200
7FC0
0400
1B00
60C0
ENDCHAR
STARTCHAR uniB040
ENCODING 45120
SWIDTH 960 0
DWIDTH 12 0
BBX 12 11 0 -1
BITMAP
7BC0
0840
0840
0840
FFE0
1100
7FC0
4000
7F80
4000
3FC0
ENDCHAR
STARTCHAR uniB041
ENCODING 45121
SWIDTH 960 0
DWIDTH 12 0
BBX 12 11 0 -1
BITMAP
7BC0
0840
0840
0840
FFE0
1100
7FC0
4000
7F80
4000
3FC0
ENDCHAR
STARTCHAR uniB042
ENCODING 45122
SWIDTH 960 0
DWIDTH 12 0
BBX 12 11 0 -1
BITMAP
7BC0
0840
0840
0840
0000
FFE0
1100
7FC0
1100
1100
7FC0
ENDCHAR
STARTCHAR uniB043
ENCODING 45123
SWIDTH 960 0
DWIDTH 12 0
BBX 12 11 0 -1
BITMAP
7BC0
0840
0840
0840
FFE0
1100
0E00
0000
FFE0
2080
1F00
ENDCHAR
STARTCHAR uniB044
ENCODING 45124
SWIDTH 960 0
DWIDTH 12 0
BBX 12 11 0 -1
BITMAP
7BC0
0840
0840
0840
0840
1040
2040
4080
0000
FFE0
0000
ENDCHAR
STARTCHAR uniB045
ENCODING 45125
SWIDTH 960 0
DWIDTH 12 0
BBX 12 11 0 -1
BITMAP
7BC0
0840
0840
1040
2040
FFE0
0000
7FC0
0040
0040
0040
ENDCHAR
STARTCHAR uniB046
ENCODING 45126
SWIDTH 960 0
DWIDTH 12 0
BBX 12 11 0 -1
BITMAP
7BC0
0840
0840
1040
2040
FFE0
0000
7FC0
0440
0440
0440
ENDCHAR
STARTCHAR uniB047
ENCODING 45127
SWIDTH 960 0
DWIDTH 12 0
BBX 12 11 0 -1
BITMAP
7BC0
0840
0840
1040
2040
FFE0
0000
7880
0880
0940
0A20
ENDCHAR
STARTCHAR uniB048
ENCODING 45128
SWIDTH 960 0
DWIDTH 12 0
BBX 12 11 0 -1
BITMAP
7BC0
0840
0840
1040
2040
0000
FFE0
4000
4000
4000
3FC0
ENDCHAR
STARTCHAR uniB049
ENCODING 45129
SWIDTH 960 0
DWIDTH 12 0
BBX 12 11 0 -1
BITMAP
7BC0
0840
0840
1040
2040
FFE0
0000
47C0
4100
4280
3C40
ENDCHAR
STARTCHAR uniB04A
ENCODING 45130
SWIDTH 960 0
DWIDTH 12 0
BBX 12 11 0 -1
BITMAP
7BC0
0840
0840
1040
2040
FFE0
0100
47E0
4240
4240
3980
ENDCHAR
STARTCHAR uniB04B
ENCODING 45131
SWIDTH 960 0
DWIDTH 12 0
BBX 12 11 0 -1
BITMAP
7BC0
0840
0840
1040
2040
FFE0
0000
7FC0
4000
4000
3FC0
ENDCHAR
STARTCHAR uniB04C
ENCODING 45132
SWIDTH 960 0
DWIDTH 12 0
BBX 12 11 0 -1
BITMAP
7BC0
0840
1040
2040
FFE0
0000
7FC0
0040
7FC0
4000
3FC0
ENDCHAR
STARTCHAR uniB04D
ENCODING 45133
SWIDTH 960 0
DWIDTH 12 0
BBX 12 11 0 -1
BITMAP
7BC0
0840
1040
2040
FFE0
0000
7BC0
0840
7840
4040
3C40
ENDCHAR
STARTCHAR uniB04E
ENCODING 45134
SWIDTH 960 0
DWIDTH 12 0
BBX 12 11 0 -1
BITMAP
7BC0
0840
1040
2040
FFE0
0000
7BC0
0A40
7A40
4240
3FC0
ENDCHAR
STARTCHAR uniB04F
ENCODING 45135
SWIDTH 960 0
DWIDTH 12 0
BBX 12 11 0 -1
BITMAP
7BC0
0840
1040
2040
FFE0
0000
7A40
0A40
7BC0
4240
3FC0
ENDCHAR
STARTCHAR uniB050
ENCODING 45136
SWIDTH 960 0
DWIDTH 12 0
BBX 12 11 0 -1
BITMAP
7BC0
0840
1040
2040
FFE0
0000
7900
0900
7A80
4440
3820
ENDCHAR
STARTCHAR uniB051
ENCODING 45137
SWIDTH 960 0
DWIDTH 12 0
BBX 12 11 0 -1
BITMAP
7BC0
0840
1040
2040
FFE0
0000
7BC0
0A00
7B80
4200
3FC0
ENDCHAR
STARTCHAR uniB052
ENCODING 45138
SWIDTH 960 0
DWIDTH 12 0
BBX 12 11 0 -1
BITMAP
7BC0
0840
1040
2040
FFE0
0000
77C0
1280
7280
4280
3FC0
ENDCHAR
STARTCHAR uniB053
ENCODING 45139
SWIDTH 960 0
DWIDTH 12 0
BBX 12 11 0 -1
BITMAP
7BC0
0840
1040
2040
FFE0
0000
7880
0FE0
7A40
4240
3980
ENDCHAR
STARTCHAR uniB054
ENCODING 45140
SWIDTH 960 0
DWIDTH 12 0
BBX 12 11 0 -1
BITMAP
7BC0
0840
0840
1040
2040
FFE0
0000
7FC0
4040
4040
3FC0
ENDCHAR
STARTCHAR uniB055
ENCODING 45141
SWIDTH 960 0
DWIDTH 12 0
BBX 12 11 0 -1
BITMAP
7BC0
0840
0840
1040
2040
FFE0
0000
4040
7FC0
4040
3FC0
ENDCHAR
STARTCHAR uniB056
ENCODING 45142
SWIDTH 960 0
DWIDTH 12 0
BBX 12 11 0 -1
BITMAP
7BC0
0840
0840
1040
2040
FFE0
0000
4900
7A80
4C40
3820
ENDCHAR
STARTCHAR uniB057
ENCODING 45143
SWIDTH 960 0
DWIDTH 12 0
BBX 12 11 0 -1
BITMAP
7BC0
0840
0840
1040
2040
FFE0
0000
0400
0A00
1100
60C0
ENDCHAR
STARTCHAR uniB058
ENCODING 45144
SWIDTH 960 0
DWIDTH 12 0
BBX 12 11 0 -1
BITMAP
7BC0
0840
0840
1040
2040
FFE0
0000
1100
1100
2A80
4440
ENDCHAR
STARTCHAR uniB059
ENCODING 45145
SWIDTH 960 0
DWIDTH 12 0
BBX 12 11 0 -1
BITMAP
7BC0
0840
0840
1040
2040
FFE0
0000
3F80
4040
4040
3F80
ENDCHAR
STARTCHAR uniB05A
ENCODING 45146
SWIDTH 960 0
DWIDTH 12 0
BBX 12 11 0 -1
BITMAP
7BC0
0840
0840
1040
2040
FFE0
0000
7FC0
0400
0A00
71C0
ENDCHAR
STARTCHAR uniB05B
ENCODING 45147
SWIDTH 960 0
DWIDTH 12 0
BBX 12 11 0 -1
BITMAP
7BC0
0840
1040
2040
FFE0
0000
0200
7FC0
0400
1B00
60C0
ENDCHAR
STARTCHAR uniB05C
ENCODING 45148
SWIDTH 960 0
DWIDTH 12 0
BBX 12 11 0 -1
BITMAP
7BC0
0840
1040
2040
FFE0
0000
7FC0
4000
7F80
4000
3FC0
ENDCHAR
STARTCHAR uniB05D
ENCODING 45149
SWIDTH 960 0
DWIDTH 12 0
BBX 12 11 0 -1
BITMAP
7BC0
0840
1040
2040
FFE0
0000
7FC0
4000
7F80
4000
3FC0
ENDCHAR
STARTCHAR uniB05E
ENCODING 45150
SWIDTH 960 0
DWIDTH 12 0
BBX 12 11 0 -1
BITMAP
7BC0
0840
0840
1040
2040
FFE0
0000
7FC0
1100
1100
7FC0
ENDCHAR
STARTCHAR uniB05F
ENCODING 45151
SWIDTH 960 0
DWIDTH 12 0
BBX 12 11 0 -1
BITMAP
7BC0
0840
1040
2040
FFE0
0000
0E00
0000
7FC0
2080
1F00
ENDCHAR
STARTCHAR uniB060
ENCODING 45152
SWIDTH 960 0
DWIDTH 12 0
BBX 12 11 0 -1
BITMAP
7740
1140
1140
1140
2140
4140
0040
0040
7FC0
0040
0040
ENDCHAR
STARTCHAR uniB061
ENCODING 45153
SWIDTH 960 0
DWIDTH 12 0
BBX 12 11 0 -1
BITMAP
7740
1140
2140
4140
0040
7FC0
0040
3FC0
0040
0040
0040
ENDCHAR
STARTCHAR uniB062
ENCODING 45154
SWIDTH 960 0
DWIDTH 12 0
BBX 12 11 0 -1
BITMAP
7740
1140
2140
4140
0040
7FC0
0040
3FC0
0440
0440
0440
ENDCHAR
STARTCHAR uniB063
ENCODING 45155
SWIDTH 960 0
DWIDTH 12 0
BBX 12 11 0 -1
BITMAP
7740
1140
2140
4140
0040
7FC0
0040
3C80
0480
0540
0220
ENDCHAR
STARTCHAR uniB064
ENCODING 45156
SWIDTH 960 0
DWIDTH 12 0
BBX 12 11 0 -1
BITMAP
7740
1140
2140
4140
0040
7FC0
0040
2000
2000
2000
1FC0
ENDCHAR
STARTCHAR uniB065
ENCODING 45157
SWIDTH 960 0
DWIDTH 12 0
BBX 12 11 0 -1
BITMAP
7740
1140
2140
4140
0040
7FC0
0040
27C0
2100
2280
1C60
ENDCHAR
STARTCHAR uniB066
ENCODING 45158
SWIDTH 960 0
DWIDTH 12 0
BBX 12 11 0 -1
BITMAP
7740
1140
2140
4140
0040
7FC0
0140
27E0
2240
2240
1980
ENDCHAR
STARTCHAR uniB067
ENCODING 45159
SWIDTH 960 0
DWIDTH 12 0
BBX 12 11 0 -1
BITMAP
7740
1140
2140
4140
0040
7FC0
0040
3FC0
2000
2000
1FC0
ENDCHAR
STARTCHAR uniB068
ENCODING 45160
SWIDTH 960 0
DWIDTH 12 0
BBX 12 11 0 -1
BITMAP
7740
1140
2140
0040
7FC0
0040
3FC0
0040
3FC0
2000
1FC0
ENDCHAR
STARTCHAR uniB069
ENCODING 45161
SWIDTH 960 0
DWIDTH 12 0
BBX 12 11 0 -1
BITMAP
7740
1140
2140
0040
7FC0
0040
3FC0
0440
3C40
2040
1C40
ENDCHAR
STARTCHAR uniB06A
ENCODING 45162
SWIDTH 960 0
DWIDTH 12 0
BBX 12 11 0 -1
BITMAP
7740
1140
2140
0040
7FC0
0040
3DC0
0540
3D40
2140
1FC0
ENDCHAR
STARTCHAR uniB06B
ENCODING 45163
SWIDTH 960 0
DWIDTH 12 0
BBX 12 11 0 -1
BITMAP
7740
1140
2140
0040
7FC0
0040
3A40
0A40
3BC0
2240
1FC0
ENDCHAR
STARTCHAR uniB06C
ENCODING 45164
SWIDTH 960 0
DWIDTH 12 0
BBX 12 11 0 -1
BITMAP
7740
1140
2140
0040
7FC0
0040
3C80
0480
3D40
2220
1C10
ENDCHAR
STARTCHAR uniB06D
ENCODING 45165
SWIDTH 960 0
DWIDTH 12 0
BBX 12 11 0 -1
BITMAP
7740
1140
2140
0040
7FC0
0040
3DE0
0500
3DC0
2100
1FE0
ENDCHAR
STARTCHAR uniB06E
ENCODING 45166
SWIDTH 960 0
DWIDTH 12 0
BBX 12 11 0 -1
BITMAP
7740
1140
2140
0040
7FC0
0040
3BE0
0940
3940
2140
1FE0
ENDCHAR
STARTCHAR uniB06F
ENCODING 45167
SWIDTH 960 0
DWIDTH 12 0
BBX 12 11 0 -1
BITMAP
7740
1140
2140
0040
7FC0
0040
3880
0FE0
3A40
2240
1980
ENDCHAR
STARTCHAR uniB070
ENCODING 45168
SWIDTH 960 0
DWIDTH 12 0
BBX 12 11 0 -1
BITMAP
7740
1140
2140
4140
0040
7FC0
0040
3FC0
2040
2040
1FC0
ENDCHAR
STARTCHAR uniB071
ENCODING 45169
SWIDTH 960 0
DWIDTH 12 0
BBX 12 11 0 -1
BITMAP
7740
1140
2140
4140
0040
7FC0
0040
2040
3FC0
2040
1FC0
ENDCHAR
STARTCHAR uniB072
ENCODING 45170
SWIDTH 960 0
DWIDTH 12 0
BBX 12 11 0 -1
BITMAP
7740
1140
2140
4140
0040
7FC0
0040
2480
3D40
2620
1C10
ENDCHAR
STARTCHAR uniB073
ENCODING 45171
SWIDTH 960 0
DWIDTH 12 0
BBX 12 11 0 -1
BITMAP
7740
1140
2140
4140
0040
7FC0
0040
0200
0500
0880
3060
ENDCHAR
STARTCHAR uniB074
ENCODING 45172
SWIDTH 960 0
DWIDTH 12 0
BBX 12 11 0 -1
BITMAP
7740
1140
2140
4140
0040
7FC0
0040
0880
0880
1540
2220
ENDCHAR
STARTCHAR uniB075
ENCODING 45173
SWIDTH 960 0
DWIDTH 12 0
BBX 12 11 0 -1
BITMAP
7740
1140
2140
4140
0040
7FC0
0040
1F80
2040
2040
1F80
ENDCHAR
STARTCHAR uniB076
ENCODING 45174
SWIDTH 960 0
DWIDTH 12 0
BBX 12 11 0 -1
BITMAP
7740
1140
2140
4140
0040
7FC0
0040
3FE0
0100
0680
3860
ENDCHAR
STARTCHAR uniB077
ENCODING 45175
SWIDTH 960 0
DWIDTH 12 0
BBX 12 11 0 -1
BITMAP
7740
1140
2140
0040
7FC0
0040
0100
3FE0
0100
0680
3860
ENDCHAR
STARTCHAR uniB078
ENCODING 45176
SWIDTH 960 0
DWIDTH 12 0
BBX 12 11 0 -1
BITMAP
7740
1140
2140
0040
7FC0
0040
3FC0
2000
3FC0
2000
1FC0
ENDCHAR
STARTCHAR uniB079
ENCODING 45177
SWIDTH 960 0
DWIDTH 12 0
BBX 12 11 0 -1
BITMAP
7740
1140
2140
0040
7FC0
0040
3FC0
2000
3FC0
2000
1FC0
ENDCHAR
STARTCHAR uniB07A
ENCODING 45178
SWIDTH 960 0
DWIDTH 12 0
BBX 12 11 0 -1
BITMAP
7740
1140
2140
4140
0040
7FC0
0040
3FE0
0880
0880
3FE0
ENDCHAR
STARTCHAR uniB07B
ENCODING 45179
SWIDTH 960 0
DWIDTH 12 0
BBX 12 11 0 -1
BITMAP
7740
1140
2140
0040
7FC0
0040
0700
0000
7FE0
1040
0F80
ENDCHAR
STARTCHAR uniB07C
ENCODING 45180
SWIDTH 960 0
DWIDTH 12 0
BBX 12 11 0 -1
BITMAP
7740
1140
1140
1140
1140
1140
2140
2240
4240
0440
0040
ENDCHAR
STARTCHAR uniB07D
ENCODING 45181
SWIDTH 960 0
DWIDTH 12 0
BBX 12 11 0 -1
BITMAP
7E40
1240
1240
1240
2240
4440
0000
3FC0
0040
0040
0040
ENDCHAR
STARTCHAR uniB07E
ENCODING 45182
SWIDTH 960 0
DWIDTH 12 0
BBX 12 11 0 -1
BITMAP
7E40
1240
1240
1240
2240
4440
0000
3FC0
0440
0440
0440
ENDCHAR
STARTCHAR uniB07F
ENCODING 45183
SWIDTH 960 0
DWIDTH 12 0
BBX 12 11 0 -1
BITMAP
7E40
1240
1240
1240
2240
4440
0000
3C80
0480
0540
0220
ENDCHAR
STARTCHAR uniB080
ENCODING 45184
SWIDTH 960 0
DWIDTH 12 0
BBX 12 11 0 -1
BITMAP
7E40
1240
1240
1240
2240
4440
0040
2000
2000
2000
1FC0
ENDCHAR
STARTCHAR uniB081
ENCODING 45185
SWIDTH 960 0
DWIDTH 12 0
BBX 12 11 0 -1
BITMAP
7E40
1240
1240
1240
2240
4440
0000
27C0
2100
2280
1C60
ENDCHAR
STARTCHAR uniB082
ENCODING 45186
SWIDTH 960 0
DWIDTH 12 0
BBX 12 11 0 -1
BITMAP
7E40
1240
1240
1240
2240
4440
0100
27E0
2240
2240
1D80
ENDCHAR
STARTCHAR uniB083
ENCODING 45187
SWIDTH 960 0
DWIDTH 12 0
BBX 12 11 0 -1
BITMAP
7E40
1240
1240
1240
2240
4440
0000
3FC0
2000
2000
1FC0
ENDCHAR
STARTCHAR uniB084
ENCODING 45188
SWIDTH 960 0
DWIDTH 12 0
BBX 12 11 0 -1
BITMAP
7E40
1240
1240
2240
4440
0040
3FC0
0040
3FC0
2000
1FC0
ENDCHAR
STARTCHAR uniB085
ENCODING 45189
SWIDTH 960 0
DWIDTH 12 0
BBX 12 11 0 -1
BITMAP
7E40
1240
1240
2240
4440
0040
3FC0
0440
3C40
2040
1C40
ENDCHAR
ENDFONT
